{"glyphs":{"0":{"ha":446,"x_min":61,"x_max":378,"o":"m 229 5 q 61 785 61 5 l 61 829 q 66 920 61 881 q 84 991 72 959 q 120 1043 96 1025 q 179 1060 144 1060 q 378 353 378 1060 q 229 5 378 5 m 242 68 q 278 109 263 68 q 311 314 302 171 q 314 385 314 355 q 305 631 314 484 q 263 895 297 770 q 221 989 247 954 q 163 1029 195 1025 q 135 994 142 1012 q 127 946 127 977 q 130 809 127 890 q 133 671 133 728 q 140 604 133 650 q 147 536 147 561 q 152 384 147 493 q 178 174 157 275 q 204 96 187 125 q 242 68 222 68 z "},"1":{"ha":373,"x_min":10,"x_max":346,"o":"m 146 -6 q 113 1 122 -6 q 103 32 103 9 q 110 53 103 48 q 139 58 117 58 q 170 81 170 58 q 149 488 170 222 q 127 887 127 753 l 129 911 q 130 938 130 923 q 81 1003 130 1003 l 66 1002 q 50 1002 59 1002 q 10 1031 10 1002 q 122 1068 10 1068 q 193 1045 180 1068 q 185 987 185 1008 q 196 859 185 941 q 206 732 206 775 q 221 404 206 617 q 236 74 236 189 l 236 65 q 249 67 240 66 q 271 68 258 68 q 287 69 277 69 l 287 70 q 346 35 346 70 q 188 -5 346 -5 l 165 -5 q 146 -6 158 -6 z "},"2":{"ha":476,"x_min":68,"x_max":368,"o":"m 119 -10 q 83 2 98 -10 q 68 32 68 14 l 68 37 q 97 83 85 57 q 124 149 110 110 q 144 203 137 187 q 264 531 227 385 q 301 838 301 677 q 235 1017 301 1012 q 215 992 223 1011 q 204 951 208 973 q 190 915 201 929 q 163 900 180 900 q 129 943 129 900 q 138 1001 129 972 q 168 1053 148 1030 q 218 1076 189 1076 l 218 1076 q 298 1056 263 1076 q 342 1002 319 1043 q 362 930 354 981 q 368 852 366 902 l 368 814 q 345 609 368 720 q 290 412 322 498 q 218 225 251 307 q 155 58 178 126 q 319 73 240 73 q 349 33 349 52 q 330 3 349 18 q 224 -3 295 3 q 119 -10 157 -10 z "},"3":{"ha":464,"x_min":41,"x_max":369,"o":"m 225 -14 q 141 14 172 -14 q 123 52 123 29 q 127 70 123 66 q 146 75 131 75 q 165 67 157 75 q 186 50 176 56 q 214 43 197 43 q 299 199 299 43 q 297 304 299 268 q 288 393 296 341 q 214 576 273 503 q 200 574 209 574 q 170 582 182 574 q 157 603 157 589 q 170 633 157 615 q 202 673 182 650 q 233 722 220 692 q 246 780 246 751 q 234 907 246 831 q 211 975 227 949 q 174 1002 195 1002 q 146 990 158 1002 q 130 962 135 979 q 112 934 124 946 q 82 922 100 922 q 55 933 66 922 q 41 960 43 944 q 96 1038 60 1009 q 176 1067 131 1067 q 234 1046 208 1067 q 276 993 260 1026 q 299 919 290 962 q 313 838 309 877 q 315 762 315 805 q 310 724 315 744 q 296 692 304 705 l 274 659 l 253 629 q 309 562 285 610 q 347 452 334 515 q 369 245 369 338 q 362 134 369 188 q 349 79 358 102 q 323 32 339 55 q 283 -2 308 9 q 225 -14 258 -14 z "},"4":{"ha":420,"x_min":102,"x_max":373,"o":"m 280 -26 q 248 -5 260 -26 q 236 40 236 16 l 236 45 q 243 95 243 71 q 239 163 243 121 q 233 230 233 210 q 234 260 233 247 q 235 290 235 273 q 232 333 235 316 l 196 329 q 156 326 167 326 l 156 325 q 102 347 130 325 q 108 401 102 378 q 102 479 102 433 q 113 622 102 529 q 123 762 123 718 l 123 1019 q 124 1034 123 1029 q 132 1042 126 1038 q 149 1046 138 1046 q 178 1037 165 1046 q 191 1012 191 1027 q 188 958 191 990 q 184 904 184 919 l 184 892 q 184 879 184 886 q 186 854 184 864 l 186 849 q 191 775 191 812 q 181 599 191 720 q 171 422 171 481 q 173 391 171 406 q 224 398 199 392 q 231 595 224 470 q 237 787 237 726 q 248 809 237 800 q 273 818 260 818 l 294 793 l 294 727 q 292 404 294 499 l 309 406 q 332 408 328 408 q 373 378 373 408 q 317 344 373 344 q 295 332 295 344 q 299 197 295 275 q 309 105 303 119 q 307 79 307 91 q 313 52 307 62 l 313 26 q 304 -11 313 4 q 280 -26 296 -26 z "},"5":{"ha":458,"x_min":81,"x_max":383,"o":"m 242 -25 q 166 14 166 -25 q 179 37 166 29 q 209 45 191 45 q 245 34 229 45 q 282 73 266 41 q 308 147 298 105 q 317 222 317 189 q 315 340 317 292 q 311 398 313 375 q 302 453 308 420 q 289 502 296 482 q 269 544 281 521 q 242 576 257 564 q 205 597 227 588 q 159 604 182 604 q 132 611 142 604 q 116 631 121 618 q 108 684 108 653 q 112 719 108 696 q 115 754 115 745 q 108 873 115 812 l 91 988 l 81 1044 l 105 1069 l 218 1069 q 276 1034 276 1069 l 276 1026 l 250 1005 l 216 1005 l 216 1009 l 157 1009 q 184 680 159 932 q 211 677 185 679 q 243 673 233 675 q 269 667 252 671 q 296 654 285 662 q 348 562 326 634 q 377 414 370 490 q 383 294 383 347 q 383 239 383 262 q 380 189 382 216 q 375 142 378 159 q 361 96 371 125 q 341 55 353 73 q 309 15 330 37 q 266 -24 290 -5 l 255 -24 q 242 -25 250 -25 z "},"6":{"ha":393,"x_min":68,"x_max":326,"o":"m 214 -9 q 157 12 182 -9 q 117 75 132 34 q 90 162 100 117 q 76 265 80 208 q 68 479 68 373 q 68 544 68 517 l 68 597 q 218 1076 68 1076 q 239 1067 229 1076 q 250 1048 250 1058 q 235 1017 250 1030 q 197 1000 219 1004 q 167 911 181 985 q 145 758 153 837 q 137 644 139 690 q 159 646 149 646 q 217 625 191 646 q 262 569 244 604 q 290 491 277 538 q 311 397 303 444 q 320 306 316 357 q 325 222 324 254 q 326 160 326 202 q 324 108 326 127 q 317 66 322 89 q 298 26 310 41 q 266 1 287 11 q 214 -9 245 -9 m 224 50 q 260 144 260 50 q 244 391 260 235 q 215 533 235 475 q 167 598 195 593 q 143 568 149 585 q 136 522 136 551 q 138 410 136 493 q 149 252 140 341 q 175 111 155 178 q 196 65 184 81 q 224 50 209 50 z "},"7":{"ha":417,"x_min":51,"x_max":322,"o":"m 102 16 q 117 91 102 46 l 127 123 q 214 564 181 330 q 252 1013 247 798 q 219 1016 233 1016 q 140 1008 204 1016 l 83 1003 q 60 1021 70 1010 q 51 1044 51 1031 q 92 1065 51 1057 q 226 1073 134 1073 l 252 1073 q 284 1070 273 1073 q 306 1060 295 1068 q 322 1033 317 1051 q 263 549 297 911 q 228 282 250 412 q 182 81 206 152 q 182 68 182 79 q 167 17 182 41 q 128 -7 151 -7 l 102 16 z "},"8":{"ha":437,"x_min":81,"x_max":355,"o":"m 222 -56 q 169 -36 192 -56 q 134 15 146 -17 q 112 134 112 71 q 144 368 112 212 q 177 585 177 524 q 163 672 177 623 q 130 770 150 722 q 95 869 109 817 q 81 964 81 922 q 106 1054 81 1018 q 178 1090 132 1090 l 207 1090 q 267 1038 250 1063 q 283 1009 278 1021 q 290 977 288 996 q 294 890 294 941 q 290 821 294 852 q 286 789 288 802 q 275 720 284 770 q 260 652 266 675 l 252 617 l 245 585 q 324 333 293 473 q 355 81 355 193 q 355 71 355 75 l 355 61 l 354 47 q 353 41 353 45 l 353 41 q 222 -56 311 -56 m 201 683 q 232 890 232 791 q 228 945 232 911 q 215 1003 223 978 q 197 1028 207 1028 l 182 1027 l 168 1027 l 168 1028 q 149 958 149 1007 q 166 826 149 914 q 201 683 184 739 m 223 4 q 274 29 258 4 q 291 95 291 54 q 273 278 291 184 q 216 509 255 371 q 186 340 197 445 q 176 129 176 235 l 176 127 q 194 55 176 94 l 194 48 q 204 18 196 32 q 223 4 212 4 z "},"9":{"ha":390,"x_min":31,"x_max":281,"o":"m 189 3 q 210 465 210 69 l 209 555 l 208 631 q 116 673 156 643 q 53 748 76 704 q 31 843 31 792 q 34 905 31 876 q 45 968 37 935 q 68 1033 54 1006 q 106 1076 83 1059 q 165 1095 132 1095 q 235 1081 210 1095 q 271 1039 260 1067 q 281 963 281 1010 q 273 562 281 830 q 265 161 265 295 q 260 112 265 143 q 256 61 256 81 q 256 48 256 54 l 256 33 q 245 -7 256 9 q 210 -23 233 -23 l 189 3 m 209 684 q 215 968 215 790 q 204 1019 215 1002 q 165 1036 194 1036 q 133 1013 147 1036 q 111 955 118 990 q 98 846 98 888 q 103 791 98 816 q 109 770 104 780 q 117 753 111 767 q 127 739 120 745 q 140 727 137 729 q 154 717 143 724 q 171 706 164 710 q 189 696 175 703 l 209 684 z "},"\u0000":{"ha":0,"x_min":0,"x_max":0,"o":""},"\r":{"ha":254,"x_min":0,"x_max":0,"o":""}," ":{"ha":254,"x_min":0,"x_max":0,"o":""},"A":{"ha":486,"x_min":24,"x_max":404,"o":"m 358 1 q 326 9 336 1 q 315 37 315 17 l 315 218 q 248 240 297 231 q 153 253 199 250 q 130 182 140 230 l 126 161 q 106 71 115 106 q 85 16 98 37 q 24 43 31 16 q 58 174 37 62 q 104 428 77 269 q 161 738 135 612 q 215 950 186 864 q 276 1046 246 1046 q 321 1034 306 1046 q 348 766 321 983 q 375 481 375 550 q 390 271 375 416 q 404 47 404 122 q 358 1 404 1 m 286 299 q 314 303 298 299 q 300 454 312 333 q 268 838 268 776 q 269 850 268 848 q 231 725 255 837 q 185 485 206 613 q 162 315 164 356 q 286 299 221 299 z "},"Á":{"ha":486,"x_min":24,"x_max":476,"o":"m 358 1 q 326 9 336 1 q 315 37 315 17 l 315 218 q 248 240 297 231 q 153 253 199 250 q 130 182 140 230 l 126 161 q 106 71 115 106 q 85 16 98 37 q 24 43 31 16 q 58 174 37 62 q 104 428 77 269 q 161 738 135 612 q 215 950 186 864 q 276 1046 246 1046 q 321 1034 306 1046 q 348 766 321 983 q 375 481 375 550 q 390 271 375 416 q 404 47 404 122 q 358 1 404 1 m 286 299 q 314 303 298 299 q 300 454 312 333 q 268 838 268 776 q 269 850 268 848 q 231 725 255 837 q 185 485 206 613 q 162 315 164 356 q 286 299 221 299 m 252 1076 q 237 1082 243 1076 q 230 1095 230 1087 q 237 1109 230 1101 q 337 1196 269 1139 q 419 1267 401 1251 q 431 1270 427 1270 q 461 1253 447 1270 q 476 1218 476 1236 q 466 1196 476 1204 q 264 1079 410 1156 q 252 1076 259 1076 z "},"Ă":{"ha":486,"x_min":24,"x_max":422,"o":"m 358 1 q 326 9 336 1 q 315 37 315 17 l 315 218 q 248 240 297 231 q 153 253 199 250 q 130 182 140 230 l 126 161 q 106 71 115 106 q 85 16 98 37 q 24 43 31 16 q 58 174 37 62 q 104 428 77 269 q 161 738 135 612 q 215 950 186 864 q 276 1046 246 1046 q 321 1034 306 1046 q 348 766 321 983 q 375 481 375 550 q 390 271 375 416 q 404 47 404 122 q 358 1 404 1 m 286 299 q 314 303 298 299 q 300 454 312 333 q 268 838 268 776 q 269 850 268 848 q 231 725 255 837 q 185 485 206 613 q 162 315 164 356 q 286 299 221 299 m 302 1099 q 247 1113 271 1099 q 210 1154 222 1128 q 185 1263 185 1200 q 192 1279 185 1272 q 211 1285 199 1285 q 239 1267 226 1285 q 259 1224 252 1249 q 276 1181 266 1198 q 298 1163 287 1163 q 333 1184 321 1163 q 346 1227 346 1204 q 354 1267 346 1255 q 385 1279 362 1279 q 411 1269 399 1279 q 422 1244 422 1258 q 419 1210 422 1221 q 379 1129 408 1160 q 302 1099 350 1099 z "},"Ắ":{"ha":486,"x_min":24,"x_max":510,"o":"m 358 1 q 326 9 336 1 q 315 37 315 17 l 315 218 q 248 240 297 231 q 153 253 199 250 q 130 182 140 230 l 126 161 q 106 71 115 106 q 85 16 98 37 q 24 43 31 16 q 58 174 37 62 q 104 428 77 269 q 161 738 135 612 q 215 950 186 864 q 276 1046 246 1046 q 321 1034 306 1046 q 348 766 321 983 q 375 481 375 550 q 390 271 375 416 q 404 47 404 122 q 358 1 404 1 m 286 299 q 314 303 298 299 q 300 454 312 333 q 268 838 268 776 q 269 850 268 848 q 231 725 255 837 q 185 485 206 613 q 162 315 164 356 q 286 299 221 299 m 302 1099 q 247 1113 271 1099 q 210 1154 222 1128 q 185 1263 185 1200 q 192 1279 185 1272 q 211 1285 199 1285 q 239 1267 226 1285 q 259 1224 252 1249 q 276 1181 266 1198 q 298 1163 287 1163 q 333 1184 321 1163 q 346 1227 346 1204 q 354 1267 346 1255 q 385 1279 362 1279 q 411 1269 399 1279 q 422 1244 422 1258 q 419 1210 422 1221 q 379 1129 408 1160 q 302 1099 350 1099 m 286 1336 q 271 1341 277 1336 q 264 1354 264 1347 q 271 1369 264 1361 q 371 1456 302 1398 q 453 1527 435 1510 q 465 1530 460 1530 q 495 1513 481 1530 q 510 1478 510 1496 q 500 1456 510 1463 q 298 1339 444 1415 q 286 1336 293 1336 z "},"Ặ":{"ha":486,"x_min":24,"x_max":422,"o":"m 358 1 q 326 9 336 1 q 315 37 315 17 l 315 218 q 248 240 297 231 q 153 253 199 250 q 130 182 140 230 l 126 161 q 106 71 115 106 q 85 16 98 37 q 24 43 31 16 q 58 174 37 62 q 104 428 77 269 q 161 738 135 612 q 215 950 186 864 q 276 1046 246 1046 q 321 1034 306 1046 q 348 766 321 983 q 375 481 375 550 q 390 271 375 416 q 404 47 404 122 q 358 1 404 1 m 286 299 q 314 303 298 299 q 300 454 312 333 q 268 838 268 776 q 269 850 268 848 q 231 725 255 837 q 185 485 206 613 q 162 315 164 356 q 286 299 221 299 m 302 1099 q 247 1113 271 1099 q 210 1154 222 1128 q 185 1263 185 1200 q 192 1279 185 1272 q 211 1285 199 1285 q 239 1267 226 1285 q 259 1224 252 1249 q 276 1181 266 1198 q 298 1163 287 1163 q 333 1184 321 1163 q 346 1227 346 1204 q 354 1267 346 1255 q 385 1279 362 1279 q 411 1269 399 1279 q 422 1244 422 1258 q 419 1210 422 1221 q 379 1129 408 1160 q 302 1099 350 1099 m 239 -234 q 206 -219 220 -234 q 192 -184 192 -203 q 208 -147 192 -163 q 244 -131 223 -131 q 279 -147 264 -131 q 294 -183 294 -163 q 278 -220 294 -205 q 239 -234 263 -234 z "},"Ằ":{"ha":486,"x_min":24,"x_max":422,"o":"m 358 1 q 326 9 336 1 q 315 37 315 17 l 315 218 q 248 240 297 231 q 153 253 199 250 q 130 182 140 230 l 126 161 q 106 71 115 106 q 85 16 98 37 q 24 43 31 16 q 58 174 37 62 q 104 428 77 269 q 161 738 135 612 q 215 950 186 864 q 276 1046 246 1046 q 321 1034 306 1046 q 348 766 321 983 q 375 481 375 550 q 390 271 375 416 q 404 47 404 122 q 358 1 404 1 m 286 299 q 314 303 298 299 q 300 454 312 333 q 268 838 268 776 q 269 850 268 848 q 231 725 255 837 q 185 485 206 613 q 162 315 164 356 q 286 299 221 299 m 302 1099 q 247 1113 271 1099 q 210 1154 222 1128 q 185 1263 185 1200 q 192 1279 185 1272 q 211 1285 199 1285 q 239 1267 226 1285 q 259 1224 252 1249 q 276 1181 266 1198 q 298 1163 287 1163 q 333 1184 321 1163 q 346 1227 346 1204 q 354 1267 346 1255 q 385 1279 362 1279 q 411 1269 399 1279 q 422 1244 422 1258 q 419 1210 422 1221 q 379 1129 408 1160 q 302 1099 350 1099 m 366 1341 q 286 1360 351 1341 q 165 1400 221 1379 q 109 1429 109 1421 q 116 1452 109 1439 q 134 1474 123 1466 q 155 1483 144 1483 q 221 1454 164 1483 q 327 1393 278 1424 q 376 1351 376 1362 q 366 1341 376 1341 z "},"Ẳ":{"ha":486,"x_min":24,"x_max":466,"o":"m 358 1 q 326 9 336 1 q 315 37 315 17 l 315 218 q 248 240 297 231 q 153 253 199 250 q 130 182 140 230 l 126 161 q 106 71 115 106 q 85 16 98 37 q 24 43 31 16 q 58 174 37 62 q 104 428 77 269 q 161 738 135 612 q 215 950 186 864 q 276 1046 246 1046 q 321 1034 306 1046 q 348 766 321 983 q 375 481 375 550 q 390 271 375 416 q 404 47 404 122 q 358 1 404 1 m 286 299 q 314 303 298 299 q 300 454 312 333 q 268 838 268 776 q 269 850 268 848 q 231 725 255 837 q 185 485 206 613 q 162 315 164 356 q 286 299 221 299 m 302 1099 q 247 1113 271 1099 q 210 1154 222 1128 q 185 1263 185 1200 q 192 1279 185 1272 q 211 1285 199 1285 q 239 1267 226 1285 q 259 1224 252 1249 q 276 1181 266 1198 q 298 1163 287 1163 q 333 1184 321 1163 q 346 1227 346 1204 q 354 1267 346 1255 q 385 1279 362 1279 q 411 1269 399 1279 q 422 1244 422 1258 q 419 1210 422 1221 q 379 1129 408 1160 q 302 1099 350 1099 m 307 1343 q 275 1364 283 1343 q 286 1413 275 1396 q 314 1437 298 1430 q 354 1448 330 1443 q 384 1457 375 1453 q 393 1473 393 1461 q 374 1508 393 1493 q 319 1522 354 1522 q 268 1511 286 1522 q 250 1481 250 1499 q 259 1468 250 1480 q 252 1459 259 1467 q 237 1446 245 1452 q 221 1440 228 1440 q 192 1449 203 1440 q 182 1470 182 1459 l 182 1483 q 216 1555 182 1529 q 316 1581 250 1581 q 434 1549 403 1581 q 466 1473 466 1516 q 455 1432 466 1447 q 428 1412 444 1417 q 388 1400 412 1406 q 353 1390 363 1395 q 342 1371 342 1384 l 342 1348 q 314 1345 317 1348 q 307 1343 310 1343 z "},"Ẵ":{"ha":486,"x_min":24,"x_max":465,"o":"m 358 1 q 326 9 336 1 q 315 37 315 17 l 315 218 q 248 240 297 231 q 153 253 199 250 q 130 182 140 230 l 126 161 q 106 71 115 106 q 85 16 98 37 q 24 43 31 16 q 58 174 37 62 q 104 428 77 269 q 161 738 135 612 q 215 950 186 864 q 276 1046 246 1046 q 321 1034 306 1046 q 348 766 321 983 q 375 481 375 550 q 390 271 375 416 q 404 47 404 122 q 358 1 404 1 m 286 299 q 314 303 298 299 q 300 454 312 333 q 268 838 268 776 q 269 850 268 848 q 231 725 255 837 q 185 485 206 613 q 162 315 164 356 q 286 299 221 299 m 302 1099 q 247 1113 271 1099 q 210 1154 222 1128 q 185 1263 185 1200 q 192 1279 185 1272 q 211 1285 199 1285 q 239 1267 226 1285 q 259 1224 252 1249 q 276 1181 266 1198 q 298 1163 287 1163 q 333 1184 321 1163 q 346 1227 346 1204 q 354 1267 346 1255 q 385 1279 362 1279 q 411 1269 399 1279 q 422 1244 422 1258 q 419 1210 422 1221 q 379 1129 408 1160 q 302 1099 350 1099 m 376 1341 q 317 1350 342 1341 q 282 1371 292 1358 q 228 1400 258 1400 q 214 1389 218 1396 q 212 1373 210 1381 q 208 1358 213 1365 q 192 1346 203 1350 q 156 1357 170 1346 q 142 1386 142 1367 q 169 1443 142 1420 q 242 1467 197 1467 q 302 1439 258 1467 q 359 1411 347 1411 q 380 1419 372 1411 q 389 1438 387 1427 q 399 1458 391 1450 q 420 1466 407 1466 q 453 1456 441 1466 q 465 1430 465 1445 q 453 1386 465 1407 q 420 1353 441 1365 q 376 1341 399 1341 z "},"Ǎ":{"ha":486,"x_min":24,"x_max":404,"o":"m 358 1 q 326 9 336 1 q 315 37 315 17 l 315 218 q 248 240 297 231 q 153 253 199 250 q 130 182 140 230 l 126 161 q 106 71 115 106 q 85 16 98 37 q 24 43 31 16 q 58 174 37 62 q 104 428 77 269 q 161 738 135 612 q 215 950 186 864 q 276 1046 246 1046 q 321 1034 306 1046 q 348 766 321 983 q 375 481 375 550 q 390 271 375 416 q 404 47 404 122 q 358 1 404 1 m 286 299 q 314 303 298 299 q 300 454 312 333 q 268 838 268 776 q 269 850 268 848 q 231 725 255 837 q 185 485 206 613 q 162 315 164 356 q 286 299 221 299 m 290 1086 q 243 1140 273 1086 q 189 1259 214 1194 q 165 1350 165 1324 q 175 1369 165 1361 q 198 1377 185 1377 q 232 1337 215 1377 q 267 1234 248 1300 l 285 1170 q 291 1217 288 1185 q 298 1274 294 1246 q 307 1325 302 1301 q 346 1381 319 1381 q 367 1374 359 1381 q 375 1352 375 1366 q 370 1341 375 1348 q 365 1331 366 1336 l 365 1306 l 345 1230 q 326 1131 326 1153 q 290 1086 326 1086 z "},"Â":{"ha":486,"x_min":24,"x_max":418,"o":"m 358 1 q 326 9 336 1 q 315 37 315 17 l 315 218 q 248 240 297 231 q 153 253 199 250 q 130 182 140 230 l 126 161 q 106 71 115 106 q 85 16 98 37 q 24 43 31 16 q 58 174 37 62 q 104 428 77 269 q 161 738 135 612 q 215 950 186 864 q 276 1046 246 1046 q 321 1034 306 1046 q 348 766 321 983 q 375 481 375 550 q 390 271 375 416 q 404 47 404 122 q 358 1 404 1 m 286 299 q 314 303 298 299 q 300 454 312 333 q 268 838 268 776 q 269 850 268 848 q 231 725 255 837 q 185 485 206 613 q 162 315 164 356 q 286 299 221 299 m 386 1075 q 368 1084 372 1075 l 314 1272 l 244 1094 q 224 1084 240 1084 q 200 1092 210 1084 q 189 1112 189 1099 q 192 1124 189 1119 q 229 1215 216 1183 l 241 1247 q 275 1320 264 1302 q 307 1354 291 1347 q 326 1357 315 1357 q 345 1343 336 1357 q 380 1250 361 1321 l 398 1183 q 416 1116 405 1156 q 418 1104 418 1109 q 408 1083 418 1090 q 386 1075 399 1075 z "},"Ấ":{"ha":486,"x_min":24,"x_max":613,"o":"m 358 1 q 326 9 336 1 q 315 37 315 17 l 315 218 q 248 240 297 231 q 153 253 199 250 q 130 182 140 230 l 126 161 q 106 71 115 106 q 85 16 98 37 q 24 43 31 16 q 58 174 37 62 q 104 428 77 269 q 161 738 135 612 q 215 950 186 864 q 276 1046 246 1046 q 321 1034 306 1046 q 348 766 321 983 q 375 481 375 550 q 390 271 375 416 q 404 47 404 122 q 358 1 404 1 m 286 299 q 314 303 298 299 q 300 454 312 333 q 268 838 268 776 q 269 850 268 848 q 231 725 255 837 q 185 485 206 613 q 162 315 164 356 q 286 299 221 299 m 351 1068 q 334 1078 337 1068 l 279 1265 l 210 1087 q 190 1078 205 1078 q 165 1085 176 1078 q 155 1105 155 1093 q 157 1118 155 1112 q 194 1208 182 1176 l 207 1240 q 240 1314 229 1295 q 272 1347 256 1340 q 291 1350 281 1350 q 311 1337 301 1350 q 346 1243 326 1314 l 363 1176 q 381 1109 370 1149 q 383 1097 383 1103 q 374 1076 383 1084 q 351 1068 364 1068 m 389 1218 q 374 1223 380 1218 q 367 1236 367 1229 q 374 1251 367 1243 q 474 1338 406 1280 q 556 1409 538 1392 q 568 1412 564 1412 q 598 1395 584 1412 q 613 1360 613 1378 q 603 1338 613 1345 q 401 1221 547 1297 q 389 1218 396 1218 z "},"Ậ":{"ha":486,"x_min":24,"x_max":418,"o":"m 358 1 q 326 9 336 1 q 315 37 315 17 l 315 218 q 248 240 297 231 q 153 253 199 250 q 130 182 140 230 l 126 161 q 106 71 115 106 q 85 16 98 37 q 24 43 31 16 q 58 174 37 62 q 104 428 77 269 q 161 738 135 612 q 215 950 186 864 q 276 1046 246 1046 q 321 1034 306 1046 q 348 766 321 983 q 375 481 375 550 q 390 271 375 416 q 404 47 404 122 q 358 1 404 1 m 286 299 q 314 303 298 299 q 300 454 312 333 q 268 838 268 776 q 269 850 268 848 q 231 725 255 837 q 185 485 206 613 q 162 315 164 356 q 286 299 221 299 m 386 1075 q 368 1084 372 1075 l 314 1272 l 244 1094 q 224 1084 240 1084 q 200 1092 210 1084 q 189 1112 189 1099 q 192 1124 189 1119 q 229 1215 216 1183 l 241 1247 q 275 1320 264 1302 q 307 1354 291 1347 q 326 1357 315 1357 q 345 1343 336 1357 q 380 1250 361 1321 l 398 1183 q 416 1116 405 1156 q 418 1104 418 1109 q 408 1083 418 1090 q 386 1075 399 1075 m 239 -234 q 206 -219 220 -234 q 192 -184 192 -203 q 208 -147 192 -163 q 244 -131 223 -131 q 279 -147 264 -131 q 294 -183 294 -163 q 278 -220 294 -205 q 239 -234 263 -234 z "},"Ầ":{"ha":486,"x_min":-54,"x_max":404,"o":"m 159 1192 q 91 1237 145 1197 q -9 1316 36 1277 q -52 1362 -54 1354 q -30 1387 -47 1375 q 1 1398 -14 1398 q 10 1397 5 1398 q 62 1347 18 1394 q 140 1254 105 1299 q 172 1197 176 1208 q 159 1192 169 1188 m 353 1068 q 336 1078 339 1068 l 281 1265 l 212 1087 q 192 1078 208 1078 q 167 1085 178 1078 q 157 1105 157 1093 q 159 1118 157 1112 q 196 1208 184 1176 l 209 1240 q 242 1314 231 1295 q 274 1347 258 1340 q 293 1350 283 1350 q 313 1337 303 1350 q 348 1243 328 1314 l 366 1176 q 383 1109 372 1149 q 385 1097 385 1103 q 376 1076 385 1084 q 353 1068 366 1068 m 358 1 q 326 9 336 1 q 315 37 315 17 l 315 218 q 248 240 297 231 q 153 253 199 250 q 130 182 140 230 l 126 161 q 106 71 115 106 q 85 16 98 37 q 24 43 31 16 q 58 174 37 62 q 104 428 77 269 q 161 738 135 612 q 215 950 186 864 q 276 1046 246 1046 q 321 1034 306 1046 q 348 766 321 983 q 375 481 375 550 q 390 271 375 416 q 404 47 404 122 q 358 1 404 1 m 286 299 q 314 303 298 299 q 300 454 312 333 q 268 838 268 776 q 269 850 268 848 q 231 725 255 837 q 185 485 206 613 q 162 315 164 356 q 286 299 221 299 z "},"Ẩ":{"ha":486,"x_min":24,"x_max":648,"o":"m 358 1 q 326 9 336 1 q 315 37 315 17 l 315 218 q 248 240 297 231 q 153 253 199 250 q 130 182 140 230 l 126 161 q 106 71 115 106 q 85 16 98 37 q 24 43 31 16 q 58 174 37 62 q 104 428 77 269 q 161 738 135 612 q 215 950 186 864 q 276 1046 246 1046 q 321 1034 306 1046 q 348 766 321 983 q 375 481 375 550 q 390 271 375 416 q 404 47 404 122 q 358 1 404 1 m 286 299 q 314 303 298 299 q 300 454 312 333 q 268 838 268 776 q 269 850 268 848 q 231 725 255 837 q 185 485 206 613 q 162 315 164 356 q 286 299 221 299 m 366 1068 q 348 1078 351 1068 l 294 1265 l 224 1087 q 204 1078 220 1078 q 179 1085 190 1078 q 169 1105 169 1093 q 172 1118 169 1112 q 208 1208 196 1176 l 221 1240 q 254 1314 243 1295 q 286 1347 271 1340 q 305 1350 295 1350 q 325 1337 315 1350 q 360 1243 340 1314 l 378 1176 q 395 1109 385 1149 q 397 1097 397 1103 q 388 1076 397 1084 q 366 1068 378 1068 m 489 1207 q 456 1228 465 1207 q 468 1277 456 1259 q 495 1300 479 1294 q 536 1312 511 1307 q 566 1321 557 1316 q 575 1337 575 1325 q 555 1371 575 1357 q 500 1385 536 1385 q 450 1374 468 1385 q 431 1345 431 1363 q 441 1332 431 1343 q 434 1323 441 1331 q 418 1310 427 1316 q 403 1303 410 1303 q 374 1313 385 1303 q 363 1334 363 1322 l 363 1347 q 398 1419 363 1393 q 498 1445 432 1445 q 616 1413 585 1445 q 648 1337 648 1380 q 636 1296 648 1311 q 610 1275 625 1281 q 570 1264 594 1270 q 534 1253 545 1259 q 524 1235 524 1248 l 524 1211 q 496 1209 498 1211 q 489 1207 492 1207 z "},"Ẫ":{"ha":486,"x_min":24,"x_max":465,"o":"m 358 1 q 326 9 336 1 q 315 37 315 17 l 315 218 q 248 240 297 231 q 153 253 199 250 q 130 182 140 230 l 126 161 q 106 71 115 106 q 85 16 98 37 q 24 43 31 16 q 58 174 37 62 q 104 428 77 269 q 161 738 135 612 q 215 950 186 864 q 276 1046 246 1046 q 321 1034 306 1046 q 348 766 321 983 q 375 481 375 550 q 390 271 375 416 q 404 47 404 122 q 358 1 404 1 m 286 299 q 314 303 298 299 q 300 454 312 333 q 268 838 268 776 q 269 850 268 848 q 231 725 255 837 q 185 485 206 613 q 162 315 164 356 q 286 299 221 299 m 386 1075 q 368 1084 372 1075 l 314 1272 l 244 1094 q 224 1084 240 1084 q 200 1092 210 1084 q 189 1112 189 1099 q 192 1124 189 1119 q 229 1215 216 1183 l 241 1247 q 275 1320 264 1302 q 307 1354 291 1347 q 326 1357 315 1357 q 345 1343 336 1357 q 380 1250 361 1321 l 398 1183 q 416 1116 405 1156 q 418 1104 418 1109 q 408 1083 418 1090 q 386 1075 399 1075 m 376 1385 q 317 1394 342 1385 q 282 1415 292 1403 q 228 1444 258 1444 q 214 1433 218 1440 q 212 1418 210 1426 q 208 1402 213 1410 q 192 1391 203 1395 q 156 1401 170 1391 q 142 1431 142 1412 q 169 1488 142 1465 q 242 1512 197 1512 q 302 1484 258 1512 q 359 1455 347 1455 q 380 1463 372 1455 q 389 1483 387 1472 q 399 1503 391 1495 q 420 1511 407 1511 q 453 1500 441 1511 q 465 1475 465 1490 q 453 1431 465 1451 q 420 1398 441 1410 q 376 1385 399 1385 z "},"Ȁ":{"ha":486,"x_min":24,"x_max":471,"o":"m 358 1 q 326 9 336 1 q 315 37 315 17 l 315 218 q 248 240 297 231 q 153 253 199 250 q 130 182 140 230 l 126 161 q 106 71 115 106 q 85 16 98 37 q 24 43 31 16 q 58 174 37 62 q 104 428 77 269 q 161 738 135 612 q 215 950 186 864 q 276 1046 246 1046 q 321 1034 306 1046 q 348 766 321 983 q 375 481 375 550 q 390 271 375 416 q 404 47 404 122 q 358 1 404 1 m 286 299 q 314 303 298 299 q 300 454 312 333 q 268 838 268 776 q 269 850 268 848 q 231 725 255 837 q 185 485 206 613 q 162 315 164 356 q 286 299 221 299 m 296 1089 q 82 1290 86 1284 l 69 1313 q 85 1338 73 1328 q 110 1348 96 1348 q 171 1294 121 1348 q 266 1178 222 1238 q 309 1105 309 1119 q 296 1089 309 1089 m 462 1078 q 326 1232 390 1146 q 285 1308 285 1284 q 296 1322 285 1316 q 320 1328 308 1328 q 366 1276 329 1328 q 436 1167 402 1225 q 471 1093 469 1109 l 462 1078 z "},"Ä":{"ha":486,"x_min":24,"x_max":467,"o":"m 358 1 q 326 9 336 1 q 315 37 315 17 l 315 218 q 248 240 297 231 q 153 253 199 250 q 130 182 140 230 l 126 161 q 106 71 115 106 q 85 16 98 37 q 24 43 31 16 q 58 174 37 62 q 104 428 77 269 q 161 738 135 612 q 215 950 186 864 q 276 1046 246 1046 q 321 1034 306 1046 q 348 766 321 983 q 375 481 375 550 q 390 271 375 416 q 404 47 404 122 q 358 1 404 1 m 286 299 q 314 303 298 299 q 300 454 312 333 q 268 838 268 776 q 269 850 268 848 q 231 725 255 837 q 185 485 206 613 q 162 315 164 356 q 286 299 221 299 m 188 1088 q 155 1104 170 1088 q 141 1138 141 1119 q 157 1175 141 1159 q 193 1192 172 1192 q 228 1176 213 1192 q 243 1139 243 1160 q 228 1103 243 1117 q 188 1088 212 1088 m 412 1082 q 379 1097 393 1082 q 365 1131 365 1112 q 380 1168 365 1152 q 417 1185 396 1185 q 452 1169 437 1185 q 467 1133 467 1153 q 451 1096 467 1110 q 412 1082 436 1082 z "},"Ȧ":{"ha":486,"x_min":24,"x_max":404,"o":"m 358 1 q 326 9 336 1 q 315 37 315 17 l 315 218 q 248 240 297 231 q 153 253 199 250 q 130 182 140 230 l 126 161 q 106 71 115 106 q 85 16 98 37 q 24 43 31 16 q 58 174 37 62 q 104 428 77 269 q 161 738 135 612 q 215 950 186 864 q 276 1046 246 1046 q 321 1034 306 1046 q 348 766 321 983 q 375 481 375 550 q 390 271 375 416 q 404 47 404 122 q 358 1 404 1 m 286 299 q 314 303 298 299 q 300 454 312 333 q 268 838 268 776 q 269 850 268 848 q 231 725 255 837 q 185 485 206 613 q 162 315 164 356 q 286 299 221 299 m 266 1109 q 233 1125 248 1109 q 219 1159 219 1140 q 235 1196 219 1180 q 271 1213 250 1213 q 306 1197 291 1213 q 321 1160 321 1181 q 306 1124 321 1138 q 266 1109 290 1109 z "},"Ạ":{"ha":486,"x_min":24,"x_max":404,"o":"m 358 1 q 326 9 336 1 q 315 37 315 17 l 315 218 q 248 240 297 231 q 153 253 199 250 q 130 182 140 230 l 126 161 q 106 71 115 106 q 85 16 98 37 q 24 43 31 16 q 58 174 37 62 q 104 428 77 269 q 161 738 135 612 q 215 950 186 864 q 276 1046 246 1046 q 321 1034 306 1046 q 348 766 321 983 q 375 481 375 550 q 390 271 375 416 q 404 47 404 122 q 358 1 404 1 m 286 299 q 314 303 298 299 q 300 454 312 333 q 268 838 268 776 q 269 850 268 848 q 231 725 255 837 q 185 485 206 613 q 162 315 164 356 q 286 299 221 299 m 239 -234 q 206 -219 220 -234 q 192 -184 192 -203 q 208 -147 192 -163 q 244 -131 223 -131 q 279 -147 264 -131 q 294 -183 294 -163 q 278 -220 294 -205 q 239 -234 263 -234 z "},"À":{"ha":486,"x_min":24,"x_max":404,"o":"m 358 1 q 326 9 336 1 q 315 37 315 17 l 315 218 q 248 240 297 231 q 153 253 199 250 q 130 182 140 230 l 126 161 q 106 71 115 106 q 85 16 98 37 q 24 43 31 16 q 58 174 37 62 q 104 428 77 269 q 161 738 135 612 q 215 950 186 864 q 276 1046 246 1046 q 321 1034 306 1046 q 348 766 321 983 q 375 481 375 550 q 390 271 375 416 q 404 47 404 122 q 358 1 404 1 m 286 299 q 314 303 298 299 q 300 454 312 333 q 268 838 268 776 q 269 850 268 848 q 231 725 255 837 q 185 485 206 613 q 162 315 164 356 q 286 299 221 299 m 332 1082 q 252 1101 317 1082 q 131 1141 187 1120 q 75 1169 75 1162 q 82 1193 75 1179 q 100 1215 90 1206 q 121 1223 111 1223 q 187 1194 130 1223 q 293 1133 244 1164 q 342 1091 342 1102 q 332 1082 342 1082 z "},"Ả":{"ha":486,"x_min":24,"x_max":432,"o":"m 358 1 q 326 9 336 1 q 315 37 315 17 l 315 218 q 248 240 297 231 q 153 253 199 250 q 130 182 140 230 l 126 161 q 106 71 115 106 q 85 16 98 37 q 24 43 31 16 q 58 174 37 62 q 104 428 77 269 q 161 738 135 612 q 215 950 186 864 q 276 1046 246 1046 q 321 1034 306 1046 q 348 766 321 983 q 375 481 375 550 q 390 271 375 416 q 404 47 404 122 q 358 1 404 1 m 286 299 q 314 303 298 299 q 300 454 312 333 q 268 838 268 776 q 269 850 268 848 q 231 725 255 837 q 185 485 206 613 q 162 315 164 356 q 286 299 221 299 m 273 1084 q 241 1105 249 1084 q 252 1153 241 1136 q 280 1177 264 1171 q 320 1188 296 1183 q 350 1197 341 1193 q 359 1213 359 1202 q 340 1248 359 1234 q 285 1262 320 1262 q 234 1251 252 1262 q 216 1221 216 1240 q 225 1208 216 1220 q 218 1200 225 1207 q 203 1186 212 1192 q 187 1180 194 1180 q 158 1190 169 1180 q 148 1211 148 1199 l 148 1223 q 182 1296 148 1270 q 282 1322 216 1322 q 400 1289 369 1322 q 432 1213 432 1257 q 421 1173 432 1187 q 394 1152 410 1158 q 354 1141 378 1146 q 319 1130 330 1135 q 308 1112 308 1124 l 308 1088 q 280 1086 283 1088 q 273 1084 276 1084 z "},"Ȃ":{"ha":486,"x_min":24,"x_max":404,"o":"m 358 1 q 326 9 336 1 q 315 37 315 17 l 315 218 q 248 240 297 231 q 153 253 199 250 q 130 182 140 230 l 126 161 q 106 71 115 106 q 85 16 98 37 q 24 43 31 16 q 58 174 37 62 q 104 428 77 269 q 161 738 135 612 q 215 950 186 864 q 276 1046 246 1046 q 321 1034 306 1046 q 348 766 321 983 q 375 481 375 550 q 390 271 375 416 q 404 47 404 122 q 358 1 404 1 m 286 299 q 314 303 298 299 q 300 454 312 333 q 268 838 268 776 q 269 850 268 848 q 231 725 255 837 q 185 485 206 613 q 162 315 164 356 q 286 299 221 299 m 151 1095 q 176 1206 151 1158 q 213 1245 189 1231 q 269 1260 237 1260 q 313 1253 295 1260 q 343 1229 330 1246 q 362 1200 356 1211 q 380 1160 368 1188 l 383 1154 l 385 1149 l 383 1143 q 382 1137 382 1137 l 388 1115 q 377 1090 388 1101 q 351 1080 366 1080 q 320 1092 328 1080 q 312 1132 312 1104 q 302 1172 312 1149 q 280 1196 292 1196 l 251 1196 q 231 1167 239 1187 q 218 1124 222 1147 q 203 1088 213 1103 q 177 1074 193 1074 l 151 1095 z "},"Ā":{"ha":486,"x_min":24,"x_max":464,"o":"m 358 1 q 326 9 336 1 q 315 37 315 17 l 315 218 q 248 240 297 231 q 153 253 199 250 q 130 182 140 230 l 126 161 q 106 71 115 106 q 85 16 98 37 q 24 43 31 16 q 58 174 37 62 q 104 428 77 269 q 161 738 135 612 q 215 950 186 864 q 276 1046 246 1046 q 321 1034 306 1046 q 348 766 321 983 q 375 481 375 550 q 390 271 375 416 q 404 47 404 122 q 358 1 404 1 m 286 299 q 314 303 298 299 q 300 454 312 333 q 268 838 268 776 q 269 850 268 848 q 231 725 255 837 q 185 485 206 613 q 162 315 164 356 q 286 299 221 299 m 132 1114 q 76 1158 76 1114 q 84 1180 76 1172 q 107 1189 93 1189 l 311 1189 q 354 1192 329 1189 q 397 1194 382 1194 q 464 1152 464 1194 q 453 1128 464 1137 q 425 1120 442 1120 q 278 1117 387 1120 q 132 1114 168 1114 z "},"Ą":{"ha":486,"x_min":24,"x_max":404,"o":"m 376 3 q 262 -156 262 -87 q 268 -182 262 -173 q 286 -191 273 -191 q 310 -185 298 -191 q 338 -168 321 -180 l 353 -209 q 319 -235 343 -222 q 276 -248 295 -248 q 220 -223 240 -248 q 201 -165 201 -197 q 236 -68 201 -113 q 326 8 271 -24 l 327 8 q 315 37 315 16 l 315 218 q 248 240 297 231 q 153 253 199 250 q 130 182 140 230 l 126 161 q 106 71 115 106 q 85 16 98 37 q 24 43 31 16 q 58 174 37 62 q 104 428 77 269 q 161 738 135 612 q 215 950 186 864 q 276 1046 246 1046 q 321 1034 306 1046 q 348 766 321 983 q 375 481 375 550 q 390 271 375 416 q 404 47 404 122 q 376 3 404 11 m 286 299 q 314 303 298 299 q 300 454 312 333 q 268 838 268 776 q 269 850 268 848 q 231 725 255 837 q 185 485 206 613 q 162 315 164 356 q 286 299 221 299 z "},"Å":{"ha":486,"x_min":24,"x_max":410,"o":"m 358 1 q 326 9 336 1 q 315 37 315 17 l 315 218 q 248 240 297 231 q 153 253 199 250 q 130 182 140 230 l 126 161 q 106 71 115 106 q 85 16 98 37 q 24 43 31 16 q 58 174 37 62 q 104 428 77 269 q 161 738 135 612 q 215 950 186 864 q 276 1046 246 1046 q 321 1034 306 1046 q 348 766 321 983 q 375 481 375 550 q 390 271 375 416 q 404 47 404 122 q 358 1 404 1 m 286 299 q 314 303 298 299 q 300 454 312 333 q 268 838 268 776 q 269 850 268 848 q 231 725 255 837 q 185 485 206 613 q 162 315 164 356 q 286 299 221 299 m 270 1053 q 216 1066 239 1053 q 181 1102 193 1079 q 160 1192 160 1144 q 174 1250 160 1224 q 213 1290 188 1276 q 270 1305 238 1305 q 327 1297 301 1305 q 368 1278 352 1290 q 392 1251 382 1266 q 406 1220 402 1235 q 410 1192 410 1204 q 394 1126 410 1158 q 369 1089 384 1104 q 329 1063 353 1074 q 270 1053 304 1053 m 276 1106 q 318 1115 300 1106 q 345 1139 336 1124 q 360 1189 360 1165 q 339 1235 360 1216 q 277 1255 319 1255 q 229 1229 245 1255 q 213 1164 213 1204 q 222 1138 213 1152 q 246 1115 231 1124 q 276 1106 260 1106 z "},"Ǻ":{"ha":486,"x_min":24,"x_max":491,"o":"m 358 1 q 326 9 336 1 q 315 37 315 17 l 315 218 q 248 240 297 231 q 153 253 199 250 q 130 182 140 230 l 126 161 q 106 71 115 106 q 85 16 98 37 q 24 43 31 16 q 58 174 37 62 q 104 428 77 269 q 161 738 135 612 q 215 950 186 864 q 276 1046 246 1046 q 321 1034 306 1046 q 348 766 321 983 q 375 481 375 550 q 390 271 375 416 q 404 47 404 122 q 358 1 404 1 m 286 299 q 314 303 298 299 q 300 454 312 333 q 268 838 268 776 q 269 850 268 848 q 231 725 255 837 q 185 485 206 613 q 162 315 164 356 q 286 299 221 299 m 270 1053 q 216 1066 239 1053 q 181 1102 193 1079 q 160 1192 160 1144 q 174 1250 160 1224 q 213 1290 188 1276 q 270 1305 238 1305 q 327 1297 301 1305 q 368 1278 352 1290 q 392 1251 382 1266 q 406 1220 402 1235 q 410 1192 410 1204 q 394 1126 410 1158 q 369 1089 384 1104 q 329 1063 353 1074 q 270 1053 304 1053 m 276 1106 q 318 1115 300 1106 q 345 1139 336 1124 q 360 1189 360 1165 q 339 1235 360 1216 q 277 1255 319 1255 q 229 1229 245 1255 q 213 1164 213 1204 q 222 1138 213 1152 q 246 1115 231 1124 q 276 1106 260 1106 m 267 1329 q 252 1334 258 1329 q 245 1347 245 1339 q 252 1361 245 1354 q 352 1449 283 1391 q 434 1520 416 1503 q 446 1522 441 1522 q 476 1506 462 1522 q 491 1470 491 1489 q 481 1449 491 1456 q 279 1331 425 1408 q 267 1329 274 1329 z "},"Ã":{"ha":486,"x_min":24,"x_max":431,"o":"m 358 1 q 326 9 336 1 q 315 37 315 17 l 315 218 q 248 240 297 231 q 153 253 199 250 q 130 182 140 230 l 126 161 q 106 71 115 106 q 85 16 98 37 q 24 43 31 16 q 58 174 37 62 q 104 428 77 269 q 161 738 135 612 q 215 950 186 864 q 276 1046 246 1046 q 321 1034 306 1046 q 348 766 321 983 q 375 481 375 550 q 390 271 375 416 q 404 47 404 122 q 358 1 404 1 m 286 299 q 314 303 298 299 q 300 454 312 333 q 268 838 268 776 q 269 850 268 848 q 231 725 255 837 q 185 485 206 613 q 162 315 164 356 q 286 299 221 299 m 342 1081 q 283 1090 308 1081 q 248 1111 258 1099 q 194 1140 224 1140 q 180 1129 184 1136 q 178 1114 176 1122 q 174 1098 179 1105 q 158 1086 170 1090 q 122 1097 136 1086 q 108 1126 108 1107 q 135 1184 108 1160 q 208 1207 163 1207 q 269 1179 224 1207 q 326 1151 313 1151 q 346 1159 338 1151 q 355 1179 353 1167 q 365 1198 357 1190 q 386 1206 373 1206 q 419 1196 408 1206 q 431 1171 431 1185 q 419 1126 431 1147 q 386 1093 407 1105 q 342 1081 366 1081 z "},"Æ":{"ha":682,"x_min":73,"x_max":620,"o":"m 347 1 l 349 2 q 360 172 360 125 q 357 300 360 204 q 353 429 353 397 q 338 429 349 429 l 324 428 q 264 422 292 427 q 233 414 243 418 l 165 153 q 163 143 164 151 q 158 117 161 135 q 145 58 150 77 q 129 21 140 39 q 100 1 116 1 q 81 11 90 1 q 73 33 73 20 q 111 252 73 102 q 195 555 144 389 l 218 631 q 281 838 250 742 l 312 936 q 317 954 313 941 q 323 976 320 967 q 331 996 329 989 q 342 1016 336 1008 l 354 1031 q 391 1047 367 1047 q 444 1050 405 1047 q 498 1054 484 1054 q 557 1016 557 1054 l 557 1012 l 543 983 q 411 977 470 983 q 416 887 412 934 q 420 791 420 825 q 418 638 420 740 q 416 486 416 536 q 464 493 427 486 q 517 498 500 498 l 524 498 l 552 466 q 475 421 552 421 l 469 421 l 416 422 q 418 246 416 370 q 420 56 420 122 q 496 63 442 56 q 574 70 545 70 q 606 60 591 70 q 620 36 620 51 q 454 -8 620 -8 l 433 -8 q 404 -18 422 -8 q 378 -29 386 -28 l 347 1 m 247 467 q 351 479 313 471 l 354 618 q 356 782 356 724 q 355 870 356 831 q 247 467 279 616 z "},"Ǽ":{"ha":682,"x_min":73,"x_max":622,"o":"m 347 1 l 349 2 q 360 172 360 125 q 357 300 360 204 q 353 429 353 397 q 338 429 349 429 l 324 428 q 264 422 292 427 q 233 414 243 418 l 165 153 q 163 143 164 151 q 158 117 161 135 q 145 58 150 77 q 129 21 140 39 q 100 1 116 1 q 81 11 90 1 q 73 33 73 20 q 111 252 73 102 q 195 555 144 389 l 218 631 q 281 838 250 742 l 312 936 q 317 954 313 941 q 323 976 320 967 q 331 996 329 989 q 342 1016 336 1008 l 354 1031 q 391 1047 367 1047 q 444 1050 405 1047 q 498 1054 484 1054 q 557 1016 557 1054 l 557 1012 l 543 983 q 411 977 470 983 q 416 887 412 934 q 420 791 420 825 q 418 638 420 740 q 416 486 416 536 q 464 493 427 486 q 517 498 500 498 l 524 498 l 552 466 q 475 421 552 421 l 469 421 l 416 422 q 418 246 416 370 q 420 56 420 122 q 496 63 442 56 q 574 70 545 70 q 606 60 591 70 q 620 36 620 51 q 454 -8 620 -8 l 433 -8 q 404 -18 422 -8 q 378 -29 386 -28 l 347 1 m 247 467 q 351 479 313 471 l 354 618 q 356 782 356 724 q 355 870 356 831 q 247 467 279 616 m 398 1076 q 382 1082 389 1076 q 376 1095 376 1087 q 383 1109 376 1101 q 483 1196 414 1139 q 565 1267 547 1251 q 576 1270 572 1270 q 607 1253 593 1270 q 622 1218 622 1236 q 612 1196 622 1204 q 410 1079 556 1156 q 398 1076 405 1076 z "},"Ǣ":{"ha":682,"x_min":73,"x_max":620,"o":"m 347 1 l 349 2 q 360 172 360 125 q 357 300 360 204 q 353 429 353 397 q 338 429 349 429 l 324 428 q 264 422 292 427 q 233 414 243 418 l 165 153 q 163 143 164 151 q 158 117 161 135 q 145 58 150 77 q 129 21 140 39 q 100 1 116 1 q 81 11 90 1 q 73 33 73 20 q 111 252 73 102 q 195 555 144 389 l 218 631 q 281 838 250 742 l 312 936 q 317 954 313 941 q 323 976 320 967 q 331 996 329 989 q 342 1016 336 1008 l 354 1031 q 391 1047 367 1047 q 444 1050 405 1047 q 498 1054 484 1054 q 557 1016 557 1054 l 557 1012 l 543 983 q 411 977 470 983 q 416 887 412 934 q 420 791 420 825 q 418 638 420 740 q 416 486 416 536 q 464 493 427 486 q 517 498 500 498 l 524 498 l 552 466 q 475 421 552 421 l 469 421 l 416 422 q 418 246 416 370 q 420 56 420 122 q 496 63 442 56 q 574 70 545 70 q 606 60 591 70 q 620 36 620 51 q 454 -8 620 -8 l 433 -8 q 404 -18 422 -8 q 378 -29 386 -28 l 347 1 m 247 467 q 351 479 313 471 l 354 618 q 356 782 356 724 q 355 870 356 831 q 247 467 279 616 m 277 1114 q 222 1158 222 1114 q 230 1180 222 1172 q 253 1189 239 1189 l 457 1189 q 500 1192 475 1189 q 543 1194 528 1194 q 610 1152 610 1194 q 599 1128 610 1137 q 570 1120 588 1120 q 424 1117 532 1120 q 277 1114 314 1114 z "},"B":{"ha":436,"x_min":81,"x_max":389,"o":"m 149 -12 q 84 23 84 -12 q 87 194 84 67 q 91 365 91 321 q 86 647 91 471 q 81 929 81 823 l 81 937 q 83 972 81 958 q 89 1004 84 986 q 104 1032 93 1022 q 134 1042 116 1042 q 246 1014 199 1042 q 319 933 294 985 q 344 814 344 882 q 329 727 344 773 q 288 643 313 682 q 231 583 262 604 q 350 442 312 528 q 389 254 389 356 q 356 134 389 203 q 310 61 336 92 q 245 10 284 31 q 155 -12 203 -12 l 149 -12 m 162 602 q 196 622 180 606 q 224 663 212 637 q 262 758 244 703 q 276 795 271 785 l 276 845 q 262 900 276 872 q 224 946 248 928 q 176 964 201 964 q 157 920 157 964 q 159 758 157 852 q 162 602 162 663 m 168 61 q 247 94 214 68 q 299 161 281 121 q 317 250 317 201 q 306 367 317 314 q 279 448 296 420 q 248 492 264 474 q 222 517 233 511 l 211 522 l 161 522 q 168 61 168 338 z "},"Ḃ":{"ha":436,"x_min":81,"x_max":389,"o":"m 149 -12 q 84 23 84 -12 q 87 194 84 67 q 91 365 91 321 q 86 647 91 471 q 81 929 81 823 l 81 937 q 83 972 81 958 q 89 1004 84 986 q 104 1032 93 1022 q 134 1042 116 1042 q 246 1014 199 1042 q 319 933 294 985 q 344 814 344 882 q 329 727 344 773 q 288 643 313 682 q 231 583 262 604 q 350 442 312 528 q 389 254 389 356 q 356 134 389 203 q 310 61 336 92 q 245 10 284 31 q 155 -12 203 -12 l 149 -12 m 162 602 q 196 622 180 606 q 224 663 212 637 q 262 758 244 703 q 276 795 271 785 l 276 845 q 262 900 276 872 q 224 946 248 928 q 176 964 201 964 q 157 920 157 964 q 159 758 157 852 q 162 602 162 663 m 168 61 q 247 94 214 68 q 299 161 281 121 q 317 250 317 201 q 306 367 317 314 q 279 448 296 420 q 248 492 264 474 q 222 517 233 511 l 211 522 l 161 522 q 168 61 168 338 m 180 1109 q 148 1125 162 1109 q 134 1159 134 1140 q 149 1196 134 1180 q 186 1213 165 1213 q 220 1197 205 1213 q 235 1160 235 1181 q 220 1124 235 1138 q 180 1109 205 1109 z "},"C":{"ha":469,"x_min":61,"x_max":445,"o":"m 275 -22 q 203 -4 235 -22 q 147 45 170 14 q 111 118 127 73 q 84 212 94 163 q 70 314 75 255 q 63 427 64 372 q 61 537 61 476 q 62 625 61 588 q 62 703 62 663 q 72 831 62 781 q 68 875 68 854 q 97 973 68 930 q 176 1038 125 1015 q 289 1061 227 1061 q 334 1053 311 1061 q 371 1028 357 1044 q 386 994 386 1013 q 375 971 386 979 q 347 962 363 962 q 317 967 333 962 q 298 979 302 972 l 298 979 l 279 979 l 279 982 q 193 960 227 982 q 170 934 180 950 q 154 900 160 918 q 146 861 149 886 q 142 818 143 837 q 142 773 142 806 q 144 725 142 757 q 146 677 146 694 q 140 629 146 661 q 134 581 134 597 l 134 547 q 137 399 134 477 q 143 320 138 355 q 155 240 147 286 q 174 172 163 201 q 203 115 185 142 q 293 63 235 63 q 352 88 317 63 q 404 113 388 113 q 445 92 424 113 q 434 46 445 66 q 406 13 424 26 q 366 -7 389 1 q 320 -19 343 -16 q 275 -22 295 -22 z "},"Ć":{"ha":469,"x_min":61,"x_max":445,"o":"m 275 -22 q 203 -4 235 -22 q 147 45 170 14 q 111 118 127 73 q 84 212 94 163 q 70 314 75 255 q 63 427 64 372 q 61 537 61 476 q 62 625 61 588 q 62 703 62 663 q 72 831 62 781 q 68 875 68 854 q 97 973 68 930 q 176 1038 125 1015 q 289 1061 227 1061 q 334 1053 311 1061 q 371 1028 357 1044 q 386 994 386 1013 q 375 971 386 979 q 347 962 363 962 q 317 967 333 962 q 298 979 302 972 l 298 979 l 279 979 l 279 982 q 193 960 227 982 q 170 934 180 950 q 154 900 160 918 q 146 861 149 886 q 142 818 143 837 q 142 773 142 806 q 144 725 142 757 q 146 677 146 694 q 140 629 146 661 q 134 581 134 597 l 134 547 q 137 399 134 477 q 143 320 138 355 q 155 240 147 286 q 174 172 163 201 q 203 115 185 142 q 293 63 235 63 q 352 88 317 63 q 404 113 388 113 q 445 92 424 113 q 434 46 445 66 q 406 13 424 26 q 366 -7 389 1 q 320 -19 343 -16 q 275 -22 295 -22 m 217 1076 q 201 1082 208 1076 q 195 1095 195 1087 q 202 1109 195 1101 q 302 1196 233 1139 q 384 1267 366 1251 q 395 1270 391 1270 q 426 1253 412 1270 q 441 1218 441 1236 q 431 1196 441 1204 q 229 1079 375 1156 q 217 1076 224 1076 z "},"Č":{"ha":469,"x_min":61,"x_max":445,"o":"m 275 -22 q 203 -4 235 -22 q 147 45 170 14 q 111 118 127 73 q 84 212 94 163 q 70 314 75 255 q 63 427 64 372 q 61 537 61 476 q 62 625 61 588 q 62 703 62 663 q 72 831 62 781 q 68 875 68 854 q 97 973 68 930 q 176 1038 125 1015 q 289 1061 227 1061 q 334 1053 311 1061 q 371 1028 357 1044 q 386 994 386 1013 q 375 971 386 979 q 347 962 363 962 q 317 967 333 962 q 298 979 302 972 l 298 979 l 279 979 l 279 982 q 193 960 227 982 q 170 934 180 950 q 154 900 160 918 q 146 861 149 886 q 142 818 143 837 q 142 773 142 806 q 144 725 142 757 q 146 677 146 694 q 140 629 146 661 q 134 581 134 597 l 134 547 q 137 399 134 477 q 143 320 138 355 q 155 240 147 286 q 174 172 163 201 q 203 115 185 142 q 293 63 235 63 q 352 88 317 63 q 404 113 388 113 q 445 92 424 113 q 434 46 445 66 q 406 13 424 26 q 366 -7 389 1 q 320 -19 343 -16 q 275 -22 295 -22 m 255 1086 q 208 1140 238 1086 q 154 1259 178 1194 q 130 1350 130 1324 q 140 1369 130 1361 q 163 1377 150 1377 q 197 1337 180 1377 q 232 1234 213 1300 l 250 1170 q 256 1217 252 1185 q 263 1274 259 1246 q 272 1325 267 1301 q 311 1381 284 1381 q 332 1374 323 1381 q 340 1352 340 1366 q 335 1341 340 1348 q 330 1331 331 1336 l 330 1306 l 310 1230 q 290 1131 290 1153 q 255 1086 290 1086 z "},"Ç":{"ha":469,"x_min":61,"x_max":445,"o":"m 404 113 q 445 92 424 113 q 434 46 445 66 q 406 13 424 26 q 366 -7 389 1 q 320 -19 343 -16 q 275 -22 295 -22 q 251 -20 262 -22 q 250 -55 250 -43 q 351 -195 351 -62 q 336 -242 351 -216 q 296 -287 321 -269 q 245 -304 272 -304 q 205 -294 224 -304 q 186 -267 186 -284 q 201 -253 186 -253 q 223 -260 210 -253 q 245 -267 238 -267 q 284 -238 269 -267 q 300 -170 300 -209 q 279 -109 300 -125 q 260 -111 273 -109 q 241 -113 249 -113 q 203 -85 221 -113 q 215 -10 215 -59 q 147 45 176 7 q 111 118 127 73 q 84 212 94 163 q 70 314 75 255 q 63 427 64 372 q 61 537 61 476 q 62 625 61 588 q 62 703 62 663 q 72 831 62 781 q 68 875 68 854 q 97 973 68 930 q 176 1038 125 1015 q 289 1061 227 1061 q 334 1053 311 1061 q 371 1028 357 1044 q 386 994 386 1013 q 375 971 386 979 q 347 962 363 962 q 317 967 333 962 q 298 979 302 972 l 298 979 l 279 979 l 279 982 q 193 960 227 982 q 170 934 180 950 q 154 900 160 918 q 146 861 149 886 q 142 818 143 837 q 142 773 142 806 q 144 725 142 757 q 146 677 146 694 q 140 629 146 661 q 134 581 134 597 l 134 547 q 137 399 134 477 q 143 320 138 355 q 155 240 147 286 q 174 172 163 201 q 203 115 185 142 q 293 63 235 63 q 352 88 317 63 q 404 113 388 113 z "},"Ĉ":{"ha":469,"x_min":61,"x_max":445,"o":"m 275 -22 q 203 -4 235 -22 q 147 45 170 14 q 111 118 127 73 q 84 212 94 163 q 70 314 75 255 q 63 427 64 372 q 61 537 61 476 q 62 625 61 588 q 62 703 62 663 q 72 831 62 781 q 68 875 68 854 q 97 973 68 930 q 176 1038 125 1015 q 289 1061 227 1061 q 334 1053 311 1061 q 371 1028 357 1044 q 386 994 386 1013 q 375 971 386 979 q 347 962 363 962 q 317 967 333 962 q 298 979 302 972 l 298 979 l 279 979 l 279 982 q 193 960 227 982 q 170 934 180 950 q 154 900 160 918 q 146 861 149 886 q 142 818 143 837 q 142 773 142 806 q 144 725 142 757 q 146 677 146 694 q 140 629 146 661 q 134 581 134 597 l 134 547 q 137 399 134 477 q 143 320 138 355 q 155 240 147 286 q 174 172 163 201 q 203 115 185 142 q 293 63 235 63 q 352 88 317 63 q 404 113 388 113 q 445 92 424 113 q 434 46 445 66 q 406 13 424 26 q 366 -7 389 1 q 320 -19 343 -16 q 275 -22 295 -22 m 351 1075 q 333 1084 336 1075 l 279 1272 l 209 1094 q 189 1084 205 1084 q 164 1092 175 1084 q 154 1112 154 1099 q 157 1124 154 1119 q 193 1215 181 1183 l 206 1247 q 239 1320 229 1302 q 271 1354 256 1347 q 290 1357 280 1357 q 310 1343 300 1357 q 345 1250 326 1321 l 363 1183 q 380 1116 370 1156 q 382 1104 382 1109 q 373 1083 382 1090 q 351 1075 363 1075 z "},"Ċ":{"ha":469,"x_min":61,"x_max":445,"o":"m 275 -22 q 203 -4 235 -22 q 147 45 170 14 q 111 118 127 73 q 84 212 94 163 q 70 314 75 255 q 63 427 64 372 q 61 537 61 476 q 62 625 61 588 q 62 703 62 663 q 72 831 62 781 q 68 875 68 854 q 97 973 68 930 q 176 1038 125 1015 q 289 1061 227 1061 q 334 1053 311 1061 q 371 1028 357 1044 q 386 994 386 1013 q 375 971 386 979 q 347 962 363 962 q 317 967 333 962 q 298 979 302 972 l 298 979 l 279 979 l 279 982 q 193 960 227 982 q 170 934 180 950 q 154 900 160 918 q 146 861 149 886 q 142 818 143 837 q 142 773 142 806 q 144 725 142 757 q 146 677 146 694 q 140 629 146 661 q 134 581 134 597 l 134 547 q 137 399 134 477 q 143 320 138 355 q 155 240 147 286 q 174 172 163 201 q 203 115 185 142 q 293 63 235 63 q 352 88 317 63 q 404 113 388 113 q 445 92 424 113 q 434 46 445 66 q 406 13 424 26 q 366 -7 389 1 q 320 -19 343 -16 q 275 -22 295 -22 m 231 1109 q 198 1125 212 1109 q 184 1159 184 1140 q 199 1196 184 1180 q 236 1213 215 1213 q 271 1197 256 1213 q 286 1160 286 1181 q 270 1124 286 1138 q 231 1109 255 1109 z "},"D":{"ha":527,"x_min":64,"x_max":442,"o":"m 154 -3 q 106 9 126 -3 q 86 44 86 22 q 117 208 117 76 q 104 437 117 289 q 91 666 91 586 q 93 741 91 690 q 95 818 95 792 q 80 917 95 857 q 64 1004 64 981 q 171 1053 64 1053 l 192 1053 q 264 1040 231 1053 q 323 1006 298 1027 q 365 957 345 987 q 397 895 384 927 q 418 828 409 866 q 433 756 427 789 q 439 693 436 729 q 442 633 441 656 l 442 589 l 442 524 q 439 512 439 519 q 441 496 439 505 l 442 482 q 429 376 442 437 q 390 250 415 315 q 327 123 361 178 q 250 34 293 68 q 154 -3 203 -3 m 183 77 q 273 171 234 111 q 333 304 312 231 q 371 579 371 441 q 357 743 371 655 q 292 899 342 828 q 232 951 269 932 q 150 969 195 969 l 150 968 q 167 590 150 838 q 183 210 183 338 l 183 77 z "},"Ǳ":{"ha":889,"x_min":64,"x_max":801,"o":"m 154 -3 q 106 9 126 -3 q 86 44 86 22 q 117 208 117 76 q 104 437 117 289 q 91 666 91 586 q 93 741 91 690 q 95 818 95 792 q 80 917 95 857 q 64 1004 64 981 q 171 1053 64 1053 l 192 1053 q 264 1040 231 1053 q 323 1006 298 1027 q 365 957 345 987 q 397 895 384 927 q 418 828 409 866 q 433 756 427 789 q 439 693 436 729 q 442 633 441 656 l 442 589 l 442 524 q 439 512 439 519 q 441 496 439 505 l 442 482 q 429 376 442 437 q 390 250 415 315 q 327 123 361 178 q 250 34 293 68 q 154 -3 203 -3 m 183 77 q 273 171 234 111 q 333 304 312 231 q 371 579 371 441 q 357 743 371 655 q 292 899 342 828 q 232 951 269 932 q 150 969 195 969 l 150 968 q 167 590 150 838 q 183 210 183 338 l 183 77 m 600 -13 q 561 21 574 -13 q 630 272 591 68 q 698 697 669 475 q 728 984 724 895 l 678 979 q 649 977 658 977 q 574 1021 574 977 l 574 1027 l 593 1050 l 593 1051 q 632 1046 610 1046 q 698 1054 652 1046 q 763 1061 739 1061 q 790 1049 779 1061 q 801 1021 801 1037 q 647 58 801 658 q 677 60 653 58 q 720 63 701 63 q 793 20 793 63 l 793 14 l 772 -7 q 686 -10 737 -7 q 600 -13 635 -13 z "},"Ǆ":{"ha":889,"x_min":64,"x_max":813,"o":"m 154 -3 q 106 9 126 -3 q 86 44 86 22 q 117 208 117 76 q 104 437 117 289 q 91 666 91 586 q 93 741 91 690 q 95 818 95 792 q 80 917 95 857 q 64 1004 64 981 q 171 1053 64 1053 l 192 1053 q 264 1040 231 1053 q 323 1006 298 1027 q 365 957 345 987 q 397 895 384 927 q 418 828 409 866 q 433 756 427 789 q 439 693 436 729 q 442 633 441 656 l 442 589 l 442 524 q 439 512 439 519 q 441 496 439 505 l 442 482 q 429 376 442 437 q 390 250 415 315 q 327 123 361 178 q 250 34 293 68 q 154 -3 203 -3 m 183 77 q 273 171 234 111 q 333 304 312 231 q 371 579 371 441 q 357 743 371 655 q 292 899 342 828 q 232 951 269 932 q 150 969 195 969 l 150 968 q 167 590 150 838 q 183 210 183 338 l 183 77 m 600 -13 q 561 21 574 -13 q 630 272 591 68 q 698 697 669 475 q 728 984 724 895 l 678 979 q 649 977 658 977 q 574 1021 574 977 l 574 1027 l 593 1050 l 593 1051 q 632 1046 610 1046 q 698 1054 652 1046 q 763 1061 739 1061 q 790 1049 779 1061 q 801 1021 801 1037 q 647 58 801 658 q 677 60 653 58 q 720 63 701 63 q 793 20 793 63 l 793 14 l 772 -7 q 686 -10 737 -7 q 600 -13 635 -13 m 728 1086 q 682 1140 711 1086 q 627 1259 652 1194 q 603 1350 603 1324 q 613 1369 603 1361 q 636 1377 623 1377 q 670 1337 653 1377 q 705 1234 686 1300 l 723 1170 q 729 1217 726 1185 q 736 1274 732 1246 q 745 1325 740 1301 q 784 1381 758 1381 q 805 1374 797 1381 q 813 1352 813 1366 q 808 1341 813 1348 q 803 1331 804 1336 l 803 1306 l 783 1230 q 764 1131 764 1153 q 728 1086 764 1086 z "},"Ð":{"ha":585,"x_min":2,"x_max":467,"o":"m 458 756 q 464 693 461 729 q 467 633 467 656 l 467 589 l 467 524 q 464 512 464 519 q 466 496 464 505 l 467 482 q 454 376 467 437 q 415 250 440 315 q 352 123 386 178 q 275 34 318 68 q 179 -3 229 -3 q 131 9 151 -3 q 111 44 111 22 q 142 208 142 76 q 129 437 142 289 l 127 453 l 123 504 q 105 503 111 503 q 47 500 71 500 q 16 512 29 500 q 2 541 2 524 q 35 570 2 557 q 118 587 68 582 q 116 666 116 634 q 118 741 116 690 q 120 818 120 792 q 105 917 120 857 q 90 1004 90 981 q 196 1053 90 1053 l 217 1053 q 289 1040 256 1053 q 348 1006 323 1027 q 390 957 370 987 q 422 895 409 927 q 443 828 434 866 q 458 756 452 789 m 358 304 q 396 579 396 441 q 382 743 396 655 q 317 899 367 828 q 257 951 294 932 q 175 969 220 969 l 175 968 q 192 594 175 838 q 199 595 194 595 q 256 597 233 597 q 288 585 274 597 q 302 557 302 574 q 269 528 302 540 q 197 511 243 517 q 208 210 208 311 l 208 77 q 298 171 259 111 q 358 304 337 231 z "},"Ď":{"ha":527,"x_min":64,"x_max":442,"o":"m 154 -3 q 106 9 126 -3 q 86 44 86 22 q 117 208 117 76 q 104 437 117 289 q 91 666 91 586 q 93 741 91 690 q 95 818 95 792 q 80 917 95 857 q 64 1004 64 981 q 171 1053 64 1053 l 192 1053 q 264 1040 231 1053 q 323 1006 298 1027 q 365 957 345 987 q 397 895 384 927 q 418 828 409 866 q 433 756 427 789 q 439 693 436 729 q 442 633 441 656 l 442 589 l 442 524 q 439 512 439 519 q 441 496 439 505 l 442 482 q 429 376 442 437 q 390 250 415 315 q 327 123 361 178 q 250 34 293 68 q 154 -3 203 -3 m 183 77 q 273 171 234 111 q 333 304 312 231 q 371 579 371 441 q 357 743 371 655 q 292 899 342 828 q 232 951 269 932 q 150 969 195 969 l 150 968 q 167 590 150 838 q 183 210 183 338 l 183 77 m 243 1086 q 197 1140 227 1086 q 142 1259 167 1194 q 118 1350 118 1324 q 128 1369 118 1361 q 151 1377 138 1377 q 185 1337 168 1377 q 220 1234 201 1300 l 238 1170 q 244 1217 241 1185 q 251 1274 248 1246 q 260 1325 255 1301 q 299 1381 273 1381 q 320 1374 312 1381 q 328 1352 328 1366 q 323 1341 328 1348 q 318 1331 319 1336 l 318 1306 l 298 1230 q 279 1131 279 1153 q 243 1086 279 1086 z "},"Đ":{"ha":585,"x_min":2,"x_max":467,"o":"m 458 756 q 464 693 461 729 q 467 633 467 656 l 467 589 l 467 524 q 464 512 464 519 q 466 496 464 505 l 467 482 q 454 376 467 437 q 415 250 440 315 q 352 123 386 178 q 275 34 318 68 q 179 -3 229 -3 q 131 9 151 -3 q 111 44 111 22 q 142 208 142 76 q 129 437 142 289 l 127 453 l 123 504 q 105 503 111 503 q 47 500 71 500 q 16 512 29 500 q 2 541 2 524 q 35 570 2 557 q 118 587 68 582 q 116 666 116 634 q 118 741 116 690 q 120 818 120 792 q 105 917 120 857 q 90 1004 90 981 q 196 1053 90 1053 l 217 1053 q 289 1040 256 1053 q 348 1006 323 1027 q 390 957 370 987 q 422 895 409 927 q 443 828 434 866 q 458 756 452 789 m 358 304 q 396 579 396 441 q 382 743 396 655 q 317 899 367 828 q 257 951 294 932 q 175 969 220 969 l 175 968 q 192 594 175 838 q 199 595 194 595 q 256 597 233 597 q 288 585 274 597 q 302 557 302 574 q 269 528 302 540 q 197 511 243 517 q 208 210 208 311 l 208 77 q 298 171 259 111 q 358 304 337 231 z "},"Ḋ":{"ha":527,"x_min":64,"x_max":442,"o":"m 154 -3 q 106 9 126 -3 q 86 44 86 22 q 117 208 117 76 q 104 437 117 289 q 91 666 91 586 q 93 741 91 690 q 95 818 95 792 q 80 917 95 857 q 64 1004 64 981 q 171 1053 64 1053 l 192 1053 q 264 1040 231 1053 q 323 1006 298 1027 q 365 957 345 987 q 397 895 384 927 q 418 828 409 866 q 433 756 427 789 q 439 693 436 729 q 442 633 441 656 l 442 589 l 442 524 q 439 512 439 519 q 441 496 439 505 l 442 482 q 429 376 442 437 q 390 250 415 315 q 327 123 361 178 q 250 34 293 68 q 154 -3 203 -3 m 183 77 q 273 171 234 111 q 333 304 312 231 q 371 579 371 441 q 357 743 371 655 q 292 899 342 828 q 232 951 269 932 q 150 969 195 969 l 150 968 q 167 590 150 838 q 183 210 183 338 l 183 77 m 219 1109 q 186 1125 201 1109 q 172 1159 172 1140 q 188 1196 172 1180 q 224 1213 203 1213 q 259 1197 244 1213 q 274 1160 274 1181 q 259 1124 274 1138 q 219 1109 243 1109 z "},"ǲ":{"ha":933,"x_min":64,"x_max":872,"o":"m 154 -3 q 106 9 126 -3 q 86 44 86 22 q 117 208 117 76 q 104 437 117 289 q 91 666 91 586 q 93 741 91 690 q 95 818 95 792 q 80 917 95 857 q 64 1004 64 981 q 171 1053 64 1053 l 192 1053 q 264 1040 231 1053 q 323 1006 298 1027 q 365 957 345 987 q 397 895 384 927 q 418 828 409 866 q 433 756 427 789 q 439 693 436 729 q 442 633 441 656 l 442 589 l 442 524 q 439 512 439 519 q 441 496 439 505 l 442 482 q 429 376 442 437 q 390 250 415 315 q 327 123 361 178 q 250 34 293 68 q 154 -3 203 -3 m 183 77 q 273 171 234 111 q 333 304 312 231 q 371 579 371 441 q 357 743 371 655 q 292 899 342 828 q 232 951 269 932 q 150 969 195 969 l 150 968 q 167 590 150 838 q 183 210 183 338 l 183 77 m 632 -3 q 606 6 617 -3 q 595 28 595 15 q 627 245 595 112 q 722 585 659 379 q 800 852 779 766 l 746 848 q 687 844 709 844 q 662 856 673 844 q 651 882 651 867 q 804 922 651 922 q 872 883 872 922 q 842 751 872 835 q 806 633 811 665 q 734 311 789 526 q 673 71 677 92 l 697 71 q 726 73 707 71 q 755 75 746 75 l 755 76 q 812 42 812 76 q 798 17 812 26 q 764 8 783 8 q 723 10 751 8 q 682 12 695 12 q 657 5 673 12 q 632 -3 640 -3 z "},"ǅ":{"ha":933,"x_min":64,"x_max":876,"o":"m 154 -3 q 106 9 126 -3 q 86 44 86 22 q 117 208 117 76 q 104 437 117 289 q 91 666 91 586 q 93 741 91 690 q 95 818 95 792 q 80 917 95 857 q 64 1004 64 981 q 171 1053 64 1053 l 192 1053 q 264 1040 231 1053 q 323 1006 298 1027 q 365 957 345 987 q 397 895 384 927 q 418 828 409 866 q 433 756 427 789 q 439 693 436 729 q 442 633 441 656 l 442 589 l 442 524 q 439 512 439 519 q 441 496 439 505 l 442 482 q 429 376 442 437 q 390 250 415 315 q 327 123 361 178 q 250 34 293 68 q 154 -3 203 -3 m 183 77 q 273 171 234 111 q 333 304 312 231 q 371 579 371 441 q 357 743 371 655 q 292 899 342 828 q 232 951 269 932 q 150 969 195 969 l 150 968 q 167 590 150 838 q 183 210 183 338 l 183 77 m 632 -3 q 606 6 617 -3 q 595 28 595 15 q 627 245 595 112 q 722 585 659 379 q 800 852 779 766 l 746 848 q 687 844 709 844 q 662 856 673 844 q 651 882 651 867 q 804 922 651 922 q 872 883 872 922 q 842 751 872 835 q 806 633 811 665 q 734 311 789 526 q 673 71 677 92 l 697 71 q 726 73 707 71 q 755 75 746 75 l 755 76 q 812 42 812 76 q 798 17 812 26 q 764 8 783 8 q 723 10 751 8 q 682 12 695 12 q 657 5 673 12 q 632 -3 640 -3 m 791 961 q 745 1015 774 961 q 690 1134 715 1068 q 666 1225 666 1199 q 676 1243 666 1236 q 699 1251 686 1251 q 733 1212 716 1251 q 768 1108 749 1175 l 786 1044 q 792 1091 789 1059 q 799 1148 795 1121 q 808 1200 803 1176 q 847 1256 821 1256 q 868 1248 860 1256 q 876 1227 876 1240 q 871 1216 876 1223 q 866 1206 867 1211 l 866 1181 l 846 1105 q 827 1006 827 1027 q 791 961 827 961 z "},"E":{"ha":386,"x_min":75,"x_max":325,"o":"m 163 -8 q 137 -7 146 -8 q 117 -2 127 -6 q 94 37 94 6 l 94 844 q 84 915 94 866 q 75 986 75 964 l 75 991 q 109 1040 98 1029 q 161 1046 126 1040 q 212 1052 195 1052 q 255 1039 235 1052 q 276 1006 276 1025 q 213 965 276 965 q 193 966 202 965 q 173 966 184 966 q 158 966 161 966 q 163 851 158 932 q 169 736 169 770 q 165 656 169 715 q 162 578 162 596 q 182 583 161 578 q 227 590 209 590 q 256 578 243 590 q 268 551 268 567 q 257 521 268 534 q 231 509 247 509 q 216 509 223 509 q 197 510 208 510 q 168 500 176 510 l 168 71 l 245 75 q 325 39 325 75 l 325 34 q 294 6 316 16 q 252 -7 272 -5 q 206 -8 229 -8 l 163 -8 z "},"É":{"ha":386,"x_min":75,"x_max":372,"o":"m 163 -8 q 137 -7 146 -8 q 117 -2 127 -6 q 94 37 94 6 l 94 844 q 84 915 94 866 q 75 986 75 964 l 75 991 q 109 1040 98 1029 q 161 1046 126 1040 q 212 1052 195 1052 q 255 1039 235 1052 q 276 1006 276 1025 q 213 965 276 965 q 193 966 202 965 q 173 966 184 966 q 158 966 161 966 q 163 851 158 932 q 169 736 169 770 q 165 656 169 715 q 162 578 162 596 q 182 583 161 578 q 227 590 209 590 q 256 578 243 590 q 268 551 268 567 q 257 521 268 534 q 231 509 247 509 q 216 509 223 509 q 197 510 208 510 q 168 500 176 510 l 168 71 l 245 75 q 325 39 325 75 l 325 34 q 294 6 316 16 q 252 -7 272 -5 q 206 -8 229 -8 l 163 -8 m 149 1097 q 133 1102 140 1097 q 126 1115 126 1107 q 134 1129 126 1122 q 233 1217 165 1159 q 315 1288 298 1271 q 327 1291 323 1291 q 358 1274 343 1291 q 372 1238 372 1257 q 362 1217 372 1224 q 160 1099 307 1176 q 149 1097 155 1097 z "},"Ĕ":{"ha":386,"x_min":75,"x_max":325,"o":"m 163 -8 q 137 -7 146 -8 q 117 -2 127 -6 q 94 37 94 6 l 94 844 q 84 915 94 866 q 75 986 75 964 l 75 991 q 109 1040 98 1029 q 161 1046 126 1040 q 212 1052 195 1052 q 255 1039 235 1052 q 276 1006 276 1025 q 213 965 276 965 q 193 966 202 965 q 173 966 184 966 q 158 966 161 966 q 163 851 158 932 q 169 736 169 770 q 165 656 169 715 q 162 578 162 596 q 182 583 161 578 q 227 590 209 590 q 256 578 243 590 q 268 551 268 567 q 257 521 268 534 q 231 509 247 509 q 216 509 223 509 q 197 510 208 510 q 168 500 176 510 l 168 71 l 245 75 q 325 39 325 75 l 325 34 q 294 6 316 16 q 252 -7 272 -5 q 206 -8 229 -8 l 163 -8 m 199 1119 q 143 1134 167 1119 q 106 1174 119 1148 q 81 1284 81 1221 q 89 1299 81 1293 q 107 1305 96 1305 q 135 1288 122 1305 q 155 1244 148 1270 q 173 1201 162 1219 q 195 1183 183 1183 q 230 1204 217 1183 q 242 1247 242 1225 q 250 1287 242 1275 q 281 1299 258 1299 q 307 1289 296 1299 q 318 1264 318 1278 q 315 1230 318 1241 q 275 1149 304 1180 q 199 1119 246 1119 z "},"Ě":{"ha":386,"x_min":61,"x_max":325,"o":"m 163 -8 q 137 -7 146 -8 q 117 -2 127 -6 q 94 37 94 6 l 94 844 q 84 915 94 866 q 75 986 75 964 l 75 991 q 109 1040 98 1029 q 161 1046 126 1040 q 212 1052 195 1052 q 255 1039 235 1052 q 276 1006 276 1025 q 213 965 276 965 q 193 966 202 965 q 173 966 184 966 q 158 966 161 966 q 163 851 158 932 q 169 736 169 770 q 165 656 169 715 q 162 578 162 596 q 182 583 161 578 q 227 590 209 590 q 256 578 243 590 q 268 551 268 567 q 257 521 268 534 q 231 509 247 509 q 216 509 223 509 q 197 510 208 510 q 168 500 176 510 l 168 71 l 245 75 q 325 39 325 75 l 325 34 q 294 6 316 16 q 252 -7 272 -5 q 206 -8 229 -8 l 163 -8 m 186 1107 q 140 1160 170 1107 q 85 1279 110 1214 q 61 1371 61 1345 q 71 1389 61 1381 q 94 1397 81 1397 q 128 1358 111 1397 q 163 1254 144 1320 l 181 1190 q 187 1237 184 1205 q 194 1294 191 1267 q 203 1345 198 1322 q 242 1402 216 1402 q 263 1394 255 1402 q 271 1373 271 1386 q 267 1362 271 1369 q 261 1352 262 1356 l 261 1326 l 241 1251 q 222 1152 222 1173 q 186 1107 222 1107 z "},"Ȩ":{"ha":386,"x_min":75,"x_max":325,"o":"m 245 75 q 325 39 325 75 l 325 34 q 294 6 316 16 q 252 -7 272 -5 q 211 -8 230 -8 q 208 -55 208 -28 q 309 -195 309 -62 q 294 -242 309 -216 q 255 -287 279 -269 q 204 -304 231 -304 q 163 -294 182 -304 q 144 -267 144 -284 q 159 -253 144 -253 q 182 -260 168 -253 q 204 -267 197 -267 q 243 -238 228 -267 q 258 -170 258 -209 q 237 -109 258 -125 q 219 -111 231 -109 q 200 -113 208 -113 q 162 -85 180 -113 q 174 -8 174 -59 l 163 -8 q 137 -7 146 -8 q 117 -2 127 -6 q 94 37 94 6 l 94 844 q 84 915 94 866 q 75 986 75 964 l 75 991 q 109 1040 98 1029 q 161 1046 126 1040 q 212 1052 195 1052 q 255 1039 235 1052 q 276 1006 276 1025 q 213 965 276 965 q 193 966 202 965 q 173 966 184 966 q 158 966 161 966 q 163 851 158 932 q 169 736 169 770 q 165 656 169 715 q 162 578 162 596 q 182 583 161 578 q 227 590 209 590 q 256 578 243 590 q 268 551 268 567 q 257 521 268 534 q 231 509 247 509 q 216 509 223 509 q 197 510 208 510 q 168 500 176 510 l 168 71 l 245 75 z "},"Ê":{"ha":386,"x_min":75,"x_max":325,"o":"m 163 -8 q 137 -7 146 -8 q 117 -2 127 -6 q 94 37 94 6 l 94 844 q 84 915 94 866 q 75 986 75 964 l 75 991 q 109 1040 98 1029 q 161 1046 126 1040 q 212 1052 195 1052 q 255 1039 235 1052 q 276 1006 276 1025 q 213 965 276 965 q 193 966 202 965 q 173 966 184 966 q 158 966 161 966 q 163 851 158 932 q 169 736 169 770 q 165 656 169 715 q 162 578 162 596 q 182 583 161 578 q 227 590 209 590 q 256 578 243 590 q 268 551 268 567 q 257 521 268 534 q 231 509 247 509 q 216 509 223 509 q 197 510 208 510 q 168 500 176 510 l 168 71 l 245 75 q 325 39 325 75 l 325 34 q 294 6 316 16 q 252 -7 272 -5 q 206 -8 229 -8 l 163 -8 m 282 1095 q 264 1105 268 1095 l 210 1292 l 140 1114 q 121 1105 136 1105 q 96 1112 106 1105 q 85 1132 85 1120 q 88 1145 85 1139 q 125 1235 113 1203 l 138 1267 q 171 1341 160 1322 q 203 1374 187 1367 q 222 1377 212 1377 q 241 1364 232 1377 q 277 1270 257 1341 l 294 1203 q 312 1137 301 1176 q 314 1124 314 1130 q 304 1103 314 1111 q 282 1095 295 1095 z "},"Ế":{"ha":386,"x_min":51,"x_max":509,"o":"m 163 -8 q 137 -7 146 -8 q 117 -2 127 -6 q 94 37 94 6 l 94 844 q 84 915 94 866 q 75 986 75 964 l 75 991 q 109 1040 98 1029 q 161 1046 126 1040 q 212 1052 195 1052 q 255 1039 235 1052 q 276 1006 276 1025 q 213 965 276 965 q 193 966 202 965 q 173 966 184 966 q 158 966 161 966 q 163 851 158 932 q 169 736 169 770 q 165 656 169 715 q 162 578 162 596 q 182 583 161 578 q 227 590 209 590 q 256 578 243 590 q 268 551 268 567 q 257 521 268 534 q 231 509 247 509 q 216 509 223 509 q 197 510 208 510 q 168 500 176 510 l 168 71 l 245 75 q 325 39 325 75 l 325 34 q 294 6 316 16 q 252 -7 272 -5 q 206 -8 229 -8 l 163 -8 m 248 1088 q 230 1098 233 1088 l 176 1285 l 106 1107 q 86 1098 102 1098 q 61 1105 72 1098 q 51 1125 51 1113 q 54 1138 51 1133 q 90 1228 78 1196 l 103 1261 q 136 1334 125 1316 q 168 1367 153 1360 q 187 1371 177 1371 q 207 1357 197 1371 q 242 1263 222 1335 l 260 1196 q 277 1130 267 1169 q 279 1118 279 1123 q 270 1096 279 1104 q 248 1088 260 1088 m 286 1238 q 270 1244 277 1238 q 263 1257 263 1249 q 271 1271 263 1263 q 370 1358 302 1301 q 452 1430 435 1413 q 464 1432 460 1432 q 495 1415 480 1432 q 509 1380 509 1398 q 499 1358 509 1366 q 297 1241 444 1318 q 286 1238 292 1238 z "},"Ệ":{"ha":386,"x_min":75,"x_max":325,"o":"m 163 -8 q 137 -7 146 -8 q 117 -2 127 -6 q 94 37 94 6 l 94 844 q 84 915 94 866 q 75 986 75 964 l 75 991 q 109 1040 98 1029 q 161 1046 126 1040 q 212 1052 195 1052 q 255 1039 235 1052 q 276 1006 276 1025 q 213 965 276 965 q 193 966 202 965 q 173 966 184 966 q 158 966 161 966 q 163 851 158 932 q 169 736 169 770 q 165 656 169 715 q 162 578 162 596 q 182 583 161 578 q 227 590 209 590 q 256 578 243 590 q 268 551 268 567 q 257 521 268 534 q 231 509 247 509 q 216 509 223 509 q 197 510 208 510 q 168 500 176 510 l 168 71 l 245 75 q 325 39 325 75 l 325 34 q 294 6 316 16 q 252 -7 272 -5 q 206 -8 229 -8 l 163 -8 m 282 1095 q 264 1105 268 1095 l 210 1292 l 140 1114 q 121 1105 136 1105 q 96 1112 106 1105 q 85 1132 85 1120 q 88 1145 85 1139 q 125 1235 113 1203 l 138 1267 q 171 1341 160 1322 q 203 1374 187 1367 q 222 1377 212 1377 q 241 1364 232 1377 q 277 1270 257 1341 l 294 1203 q 312 1137 301 1176 q 314 1124 314 1130 q 304 1103 314 1111 q 282 1095 295 1095 m 189 -234 q 157 -219 171 -234 q 142 -184 142 -203 q 158 -147 142 -163 q 195 -131 174 -131 q 229 -147 214 -131 q 244 -183 244 -163 q 229 -220 244 -205 q 189 -234 214 -234 z "},"Ề":{"ha":386,"x_min":-158,"x_max":325,"o":"m 56 1212 q -13 1257 41 1217 q -113 1336 -68 1297 q -155 1382 -158 1375 q -134 1407 -151 1395 q -102 1419 -117 1419 q -94 1417 -99 1419 q -42 1367 -85 1414 q 37 1274 1 1320 q 68 1217 72 1228 q 56 1212 65 1208 m 250 1088 q 232 1098 235 1088 l 178 1285 l 108 1107 q 88 1098 104 1098 q 63 1105 74 1098 q 53 1125 53 1113 q 56 1138 53 1133 q 92 1228 80 1196 l 105 1261 q 138 1334 127 1316 q 170 1367 155 1360 q 189 1371 179 1371 q 209 1357 199 1371 q 244 1263 224 1335 l 262 1196 q 279 1130 269 1169 q 281 1118 281 1123 q 272 1096 281 1104 q 250 1088 262 1088 m 163 -8 q 137 -7 146 -8 q 117 -2 127 -6 q 94 37 94 6 l 94 844 q 84 915 94 866 q 75 986 75 964 l 75 991 q 109 1040 98 1029 q 161 1046 126 1040 q 212 1052 195 1052 q 255 1039 235 1052 q 276 1006 276 1025 q 213 965 276 965 q 193 966 202 965 q 173 966 184 966 q 158 966 161 966 q 163 851 158 932 q 169 736 169 770 q 165 656 169 715 q 162 578 162 596 q 182 583 161 578 q 227 590 209 590 q 256 578 243 590 q 268 551 268 567 q 257 521 268 534 q 231 509 247 509 q 216 509 223 509 q 197 510 208 510 q 168 500 176 510 l 168 71 l 245 75 q 325 39 325 75 l 325 34 q 294 6 316 16 q 252 -7 272 -5 q 206 -8 229 -8 l 163 -8 z "},"Ể":{"ha":386,"x_min":65,"x_max":544,"o":"m 163 -8 q 137 -7 146 -8 q 117 -2 127 -6 q 94 37 94 6 l 94 844 q 84 915 94 866 q 75 986 75 964 l 75 991 q 109 1040 98 1029 q 161 1046 126 1040 q 212 1052 195 1052 q 255 1039 235 1052 q 276 1006 276 1025 q 213 965 276 965 q 193 966 202 965 q 173 966 184 966 q 158 966 161 966 q 163 851 158 932 q 169 736 169 770 q 165 656 169 715 q 162 578 162 596 q 182 583 161 578 q 227 590 209 590 q 256 578 243 590 q 268 551 268 567 q 257 521 268 534 q 231 509 247 509 q 216 509 223 509 q 197 510 208 510 q 168 500 176 510 l 168 71 l 245 75 q 325 39 325 75 l 325 34 q 294 6 316 16 q 252 -7 272 -5 q 206 -8 229 -8 l 163 -8 m 262 1088 q 244 1098 248 1088 l 190 1285 l 120 1107 q 100 1098 116 1098 q 76 1105 86 1098 q 65 1125 65 1113 q 68 1138 65 1133 q 104 1228 92 1196 l 117 1261 q 151 1334 140 1316 q 182 1367 167 1360 q 201 1371 191 1371 q 221 1357 212 1371 q 256 1263 237 1335 l 274 1196 q 292 1130 281 1169 q 294 1118 294 1123 q 284 1096 294 1104 q 262 1088 275 1088 m 385 1227 q 353 1249 361 1227 q 364 1297 353 1280 q 392 1321 376 1314 q 432 1332 408 1327 q 462 1341 453 1337 q 471 1357 471 1345 q 452 1392 471 1377 q 397 1406 432 1406 q 346 1395 364 1406 q 328 1365 328 1383 q 337 1352 328 1364 q 330 1343 337 1351 q 315 1330 323 1336 q 299 1324 306 1324 q 270 1333 281 1324 q 260 1354 260 1343 l 260 1367 q 294 1439 260 1413 q 394 1466 328 1466 q 512 1433 481 1466 q 544 1357 544 1400 q 533 1316 544 1331 q 506 1296 522 1301 q 466 1284 490 1290 q 431 1274 441 1279 q 420 1255 420 1268 l 420 1232 q 392 1230 395 1232 q 385 1227 388 1227 z "},"Ễ":{"ha":386,"x_min":38,"x_max":361,"o":"m 163 -8 q 137 -7 146 -8 q 117 -2 127 -6 q 94 37 94 6 l 94 844 q 84 915 94 866 q 75 986 75 964 l 75 991 q 109 1040 98 1029 q 161 1046 126 1040 q 212 1052 195 1052 q 255 1039 235 1052 q 276 1006 276 1025 q 213 965 276 965 q 193 966 202 965 q 173 966 184 966 q 158 966 161 966 q 163 851 158 932 q 169 736 169 770 q 165 656 169 715 q 162 578 162 596 q 182 583 161 578 q 227 590 209 590 q 256 578 243 590 q 268 551 268 567 q 257 521 268 534 q 231 509 247 509 q 216 509 223 509 q 197 510 208 510 q 168 500 176 510 l 168 71 l 245 75 q 325 39 325 75 l 325 34 q 294 6 316 16 q 252 -7 272 -5 q 206 -8 229 -8 l 163 -8 m 282 1095 q 264 1105 268 1095 l 210 1292 l 140 1114 q 121 1105 136 1105 q 96 1112 106 1105 q 85 1132 85 1120 q 88 1145 85 1139 q 125 1235 113 1203 l 138 1267 q 171 1341 160 1322 q 203 1374 187 1367 q 222 1377 212 1377 q 241 1364 232 1377 q 277 1270 257 1341 l 294 1203 q 312 1137 301 1176 q 314 1124 314 1130 q 304 1103 314 1111 q 282 1095 295 1095 m 272 1406 q 213 1415 238 1406 q 178 1436 189 1423 q 124 1465 155 1465 q 110 1454 114 1461 q 108 1438 106 1447 q 104 1423 109 1430 q 88 1411 100 1415 q 52 1422 66 1411 q 38 1451 38 1432 q 65 1509 38 1485 q 138 1532 93 1532 q 199 1504 155 1532 q 256 1476 243 1476 q 276 1484 269 1476 q 286 1503 283 1492 q 295 1523 288 1515 q 316 1531 303 1531 q 350 1521 338 1531 q 361 1495 361 1510 q 349 1451 361 1472 q 316 1418 337 1430 q 272 1406 296 1406 z "},"Ȅ":{"ha":386,"x_min":-35,"x_max":367,"o":"m 163 -8 q 137 -7 146 -8 q 117 -2 127 -6 q 94 37 94 6 l 94 844 q 84 915 94 866 q 75 986 75 964 l 75 991 q 109 1040 98 1029 q 161 1046 126 1040 q 212 1052 195 1052 q 255 1039 235 1052 q 276 1006 276 1025 q 213 965 276 965 q 193 966 202 965 q 173 966 184 966 q 158 966 161 966 q 163 851 158 932 q 169 736 169 770 q 165 656 169 715 q 162 578 162 596 q 182 583 161 578 q 227 590 209 590 q 256 578 243 590 q 268 551 268 567 q 257 521 268 534 q 231 509 247 509 q 216 509 223 509 q 197 510 208 510 q 168 500 176 510 l 168 71 l 245 75 q 325 39 325 75 l 325 34 q 294 6 316 16 q 252 -7 272 -5 q 206 -8 229 -8 l 163 -8 m 192 1109 q -22 1310 -18 1305 l -35 1333 q -19 1358 -31 1348 q 6 1369 -7 1369 q 67 1314 17 1369 q 162 1199 118 1258 q 205 1126 205 1139 q 192 1109 205 1109 m 358 1099 q 222 1252 286 1166 q 181 1329 181 1305 q 193 1342 181 1336 q 216 1348 204 1348 q 262 1297 225 1348 q 332 1187 298 1245 q 367 1113 366 1130 l 358 1099 z "},"Ë":{"ha":386,"x_min":37,"x_max":363,"o":"m 163 -8 q 137 -7 146 -8 q 117 -2 127 -6 q 94 37 94 6 l 94 844 q 84 915 94 866 q 75 986 75 964 l 75 991 q 109 1040 98 1029 q 161 1046 126 1040 q 212 1052 195 1052 q 255 1039 235 1052 q 276 1006 276 1025 q 213 965 276 965 q 193 966 202 965 q 173 966 184 966 q 158 966 161 966 q 163 851 158 932 q 169 736 169 770 q 165 656 169 715 q 162 578 162 596 q 182 583 161 578 q 227 590 209 590 q 256 578 243 590 q 268 551 268 567 q 257 521 268 534 q 231 509 247 509 q 216 509 223 509 q 197 510 208 510 q 168 500 176 510 l 168 71 l 245 75 q 325 39 325 75 l 325 34 q 294 6 316 16 q 252 -7 272 -5 q 206 -8 229 -8 l 163 -8 m 84 1109 q 52 1124 66 1109 q 37 1158 37 1139 q 53 1196 37 1179 q 90 1212 68 1212 q 124 1196 109 1212 q 139 1160 139 1180 q 124 1123 139 1137 q 84 1109 109 1109 m 308 1102 q 275 1117 290 1102 q 261 1152 261 1133 q 277 1189 261 1173 q 313 1205 292 1205 q 348 1189 333 1205 q 363 1153 363 1173 q 348 1116 363 1131 q 308 1102 332 1102 z "},"Ė":{"ha":386,"x_min":75,"x_max":325,"o":"m 163 -8 q 137 -7 146 -8 q 117 -2 127 -6 q 94 37 94 6 l 94 844 q 84 915 94 866 q 75 986 75 964 l 75 991 q 109 1040 98 1029 q 161 1046 126 1040 q 212 1052 195 1052 q 255 1039 235 1052 q 276 1006 276 1025 q 213 965 276 965 q 193 966 202 965 q 173 966 184 966 q 158 966 161 966 q 163 851 158 932 q 169 736 169 770 q 165 656 169 715 q 162 578 162 596 q 182 583 161 578 q 227 590 209 590 q 256 578 243 590 q 268 551 268 567 q 257 521 268 534 q 231 509 247 509 q 216 509 223 509 q 197 510 208 510 q 168 500 176 510 l 168 71 l 245 75 q 325 39 325 75 l 325 34 q 294 6 316 16 q 252 -7 272 -5 q 206 -8 229 -8 l 163 -8 m 162 1130 q 130 1145 144 1130 q 115 1179 115 1160 q 131 1217 115 1200 q 168 1233 146 1233 q 202 1217 187 1233 q 217 1181 217 1201 q 202 1144 217 1158 q 162 1130 186 1130 z "},"Ẹ":{"ha":386,"x_min":75,"x_max":325,"o":"m 163 -8 q 137 -7 146 -8 q 117 -2 127 -6 q 94 37 94 6 l 94 844 q 84 915 94 866 q 75 986 75 964 l 75 991 q 109 1040 98 1029 q 161 1046 126 1040 q 212 1052 195 1052 q 255 1039 235 1052 q 276 1006 276 1025 q 213 965 276 965 q 193 966 202 965 q 173 966 184 966 q 158 966 161 966 q 163 851 158 932 q 169 736 169 770 q 165 656 169 715 q 162 578 162 596 q 182 583 161 578 q 227 590 209 590 q 256 578 243 590 q 268 551 268 567 q 257 521 268 534 q 231 509 247 509 q 216 509 223 509 q 197 510 208 510 q 168 500 176 510 l 168 71 l 245 75 q 325 39 325 75 l 325 34 q 294 6 316 16 q 252 -7 272 -5 q 206 -8 229 -8 l 163 -8 m 189 -234 q 157 -219 171 -234 q 142 -184 142 -203 q 158 -147 142 -163 q 195 -131 174 -131 q 229 -147 214 -131 q 244 -183 244 -163 q 229 -220 244 -205 q 189 -234 214 -234 z "},"È":{"ha":386,"x_min":-28,"x_max":325,"o":"m 163 -8 q 137 -7 146 -8 q 117 -2 127 -6 q 94 37 94 6 l 94 844 q 84 915 94 866 q 75 986 75 964 l 75 991 q 109 1040 98 1029 q 161 1046 126 1040 q 212 1052 195 1052 q 255 1039 235 1052 q 276 1006 276 1025 q 213 965 276 965 q 193 966 202 965 q 173 966 184 966 q 158 966 161 966 q 163 851 158 932 q 169 736 169 770 q 165 656 169 715 q 162 578 162 596 q 182 583 161 578 q 227 590 209 590 q 256 578 243 590 q 268 551 268 567 q 257 521 268 534 q 231 509 247 509 q 216 509 223 509 q 197 510 208 510 q 168 500 176 510 l 168 71 l 245 75 q 325 39 325 75 l 325 34 q 294 6 316 16 q 252 -7 272 -5 q 206 -8 229 -8 l 163 -8 m 228 1102 q 148 1121 213 1102 q 27 1161 83 1140 q -28 1190 -28 1182 q -21 1213 -28 1200 q -4 1235 -14 1226 q 18 1244 7 1244 q 83 1214 26 1244 q 189 1154 140 1185 q 238 1112 238 1122 q 228 1102 238 1102 z "},"Ẻ":{"ha":386,"x_min":44,"x_max":328,"o":"m 163 -8 q 137 -7 146 -8 q 117 -2 127 -6 q 94 37 94 6 l 94 844 q 84 915 94 866 q 75 986 75 964 l 75 991 q 109 1040 98 1029 q 161 1046 126 1040 q 212 1052 195 1052 q 255 1039 235 1052 q 276 1006 276 1025 q 213 965 276 965 q 193 966 202 965 q 173 966 184 966 q 158 966 161 966 q 163 851 158 932 q 169 736 169 770 q 165 656 169 715 q 162 578 162 596 q 182 583 161 578 q 227 590 209 590 q 256 578 243 590 q 268 551 268 567 q 257 521 268 534 q 231 509 247 509 q 216 509 223 509 q 197 510 208 510 q 168 500 176 510 l 168 71 l 245 75 q 325 39 325 75 l 325 34 q 294 6 316 16 q 252 -7 272 -5 q 206 -8 229 -8 l 163 -8 m 170 1104 q 137 1125 145 1104 q 149 1174 137 1156 q 176 1197 160 1191 q 216 1208 192 1204 q 247 1218 237 1213 q 256 1234 256 1222 q 236 1268 256 1254 q 181 1282 216 1282 q 130 1271 149 1282 q 112 1242 112 1260 q 121 1229 112 1240 q 115 1220 121 1227 q 99 1206 108 1213 q 83 1200 90 1200 q 55 1210 65 1200 q 44 1231 44 1219 l 44 1244 q 78 1316 44 1290 q 178 1342 113 1342 q 297 1310 265 1342 q 328 1234 328 1277 q 317 1193 328 1208 q 290 1172 306 1178 q 250 1161 275 1166 q 215 1150 226 1156 q 204 1132 204 1145 l 204 1108 q 176 1106 179 1108 q 170 1104 172 1104 z "},"Ȇ":{"ha":386,"x_min":47,"x_max":325,"o":"m 163 -8 q 137 -7 146 -8 q 117 -2 127 -6 q 94 37 94 6 l 94 844 q 84 915 94 866 q 75 986 75 964 l 75 991 q 109 1040 98 1029 q 161 1046 126 1040 q 212 1052 195 1052 q 255 1039 235 1052 q 276 1006 276 1025 q 213 965 276 965 q 193 966 202 965 q 173 966 184 966 q 158 966 161 966 q 163 851 158 932 q 169 736 169 770 q 165 656 169 715 q 162 578 162 596 q 182 583 161 578 q 227 590 209 590 q 256 578 243 590 q 268 551 268 567 q 257 521 268 534 q 231 509 247 509 q 216 509 223 509 q 197 510 208 510 q 168 500 176 510 l 168 71 l 245 75 q 325 39 325 75 l 325 34 q 294 6 316 16 q 252 -7 272 -5 q 206 -8 229 -8 l 163 -8 m 47 1116 q 72 1226 47 1178 q 109 1266 85 1251 q 165 1280 133 1280 q 209 1273 191 1280 q 239 1249 227 1266 q 258 1220 252 1232 q 277 1180 264 1208 l 279 1175 l 281 1169 l 279 1163 q 278 1158 278 1158 l 284 1135 q 273 1111 284 1121 q 248 1100 262 1100 q 216 1112 224 1100 q 208 1152 208 1124 q 198 1193 208 1169 q 176 1216 188 1216 l 147 1216 q 127 1188 136 1208 q 114 1145 119 1168 q 99 1108 109 1123 q 73 1094 89 1094 l 47 1116 z "},"Ē":{"ha":386,"x_min":-28,"x_max":360,"o":"m 163 -8 q 137 -7 146 -8 q 117 -2 127 -6 q 94 37 94 6 l 94 844 q 84 915 94 866 q 75 986 75 964 l 75 991 q 109 1040 98 1029 q 161 1046 126 1040 q 212 1052 195 1052 q 255 1039 235 1052 q 276 1006 276 1025 q 213 965 276 965 q 193 966 202 965 q 173 966 184 966 q 158 966 161 966 q 163 851 158 932 q 169 736 169 770 q 165 656 169 715 q 162 578 162 596 q 182 583 161 578 q 227 590 209 590 q 256 578 243 590 q 268 551 268 567 q 257 521 268 534 q 231 509 247 509 q 216 509 223 509 q 197 510 208 510 q 168 500 176 510 l 168 71 l 245 75 q 325 39 325 75 l 325 34 q 294 6 316 16 q 252 -7 272 -5 q 206 -8 229 -8 l 163 -8 m 28 1134 q -28 1178 -28 1134 q -19 1201 -28 1192 q 3 1209 -11 1209 l 208 1209 q 250 1212 225 1209 q 293 1214 279 1214 q 360 1173 360 1214 q 349 1149 360 1157 q 321 1141 338 1141 q 174 1137 283 1141 q 28 1134 64 1134 z "},"Ę":{"ha":386,"x_min":75,"x_max":347,"o":"m 251 -191 q 275 -185 263 -191 q 303 -168 286 -180 l 318 -209 q 284 -235 308 -222 q 241 -248 260 -248 q 185 -223 205 -248 q 165 -165 165 -197 q 195 -76 165 -118 q 273 -3 224 -34 q 252 -7 262 -5 q 206 -8 229 -8 l 163 -8 q 137 -7 146 -8 q 117 -2 127 -6 q 94 37 94 6 l 94 844 q 84 915 94 866 q 75 986 75 964 l 75 991 q 109 1040 98 1029 q 161 1046 126 1040 q 212 1052 195 1052 q 255 1039 235 1052 q 276 1006 276 1025 q 213 965 276 965 q 193 966 202 965 q 173 966 184 966 q 158 966 161 966 q 163 851 158 932 q 169 736 169 770 q 165 656 169 715 q 162 578 162 596 q 182 583 161 578 q 227 590 209 590 q 256 578 243 590 q 268 551 268 567 q 257 521 268 534 q 231 509 247 509 q 216 509 223 509 q 197 510 208 510 q 168 500 176 510 l 168 71 l 245 75 q 325 39 325 75 l 325 34 q 298 8 318 20 l 347 8 q 227 -156 227 -84 q 232 -182 227 -173 q 251 -191 238 -191 z "},"Ẽ":{"ha":386,"x_min":4,"x_max":328,"o":"m 163 -8 q 137 -7 146 -8 q 117 -2 127 -6 q 94 37 94 6 l 94 844 q 84 915 94 866 q 75 986 75 964 l 75 991 q 109 1040 98 1029 q 161 1046 126 1040 q 212 1052 195 1052 q 255 1039 235 1052 q 276 1006 276 1025 q 213 965 276 965 q 193 966 202 965 q 173 966 184 966 q 158 966 161 966 q 163 851 158 932 q 169 736 169 770 q 165 656 169 715 q 162 578 162 596 q 182 583 161 578 q 227 590 209 590 q 256 578 243 590 q 268 551 268 567 q 257 521 268 534 q 231 509 247 509 q 216 509 223 509 q 197 510 208 510 q 168 500 176 510 l 168 71 l 245 75 q 325 39 325 75 l 325 34 q 294 6 316 16 q 252 -7 272 -5 q 206 -8 229 -8 l 163 -8 m 238 1101 q 179 1110 204 1101 q 144 1131 155 1119 q 90 1160 121 1160 q 76 1149 80 1156 q 74 1134 73 1142 q 71 1118 75 1126 q 54 1107 66 1111 q 18 1117 33 1107 q 4 1147 4 1128 q 32 1204 4 1181 q 104 1227 59 1227 q 165 1200 121 1227 q 222 1171 209 1171 q 242 1179 235 1171 q 252 1199 250 1187 q 261 1219 254 1211 q 282 1227 269 1227 q 316 1216 304 1227 q 328 1191 328 1206 q 315 1146 328 1167 q 282 1114 303 1126 q 238 1101 262 1101 z "},"F":{"ha":368,"x_min":75,"x_max":293,"o":"m 157 -1 q 117 87 117 -1 q 110 397 117 182 q 93 788 103 612 q 75 977 83 963 q 83 1012 75 997 q 105 1036 92 1027 q 137 1048 117 1044 q 173 1053 157 1053 q 209 1054 182 1054 q 254 1044 240 1054 q 268 1006 268 1034 q 257 984 268 992 q 229 977 245 977 l 216 977 q 195 978 208 978 q 157 962 157 978 q 167 774 157 898 q 178 589 176 654 q 208 597 179 590 q 255 604 237 604 q 282 591 271 604 q 293 562 293 578 q 275 534 293 542 q 256 525 264 528 q 235 521 248 522 q 193 517 213 517 l 178 516 q 191 290 178 445 q 204 64 204 144 l 203 59 l 201 55 q 203 38 203 47 q 191 9 203 20 q 157 -1 178 -1 z "},"Ḟ":{"ha":368,"x_min":75,"x_max":293,"o":"m 157 -1 q 117 87 117 -1 q 110 397 117 182 q 93 788 103 612 q 75 977 83 963 q 83 1012 75 997 q 105 1036 92 1027 q 137 1048 117 1044 q 173 1053 157 1053 q 209 1054 182 1054 q 254 1044 240 1054 q 268 1006 268 1034 q 257 984 268 992 q 229 977 245 977 l 216 977 q 195 978 208 978 q 157 962 157 978 q 167 774 157 898 q 178 589 176 654 q 208 597 179 590 q 255 604 237 604 q 282 591 271 604 q 293 562 293 578 q 275 534 293 542 q 256 525 264 528 q 235 521 248 522 q 193 517 213 517 l 178 516 q 191 290 178 445 q 204 64 204 144 l 203 59 l 201 55 q 203 38 203 47 q 191 9 203 20 q 157 -1 178 -1 m 180 1109 q 147 1125 161 1109 q 133 1159 133 1140 q 149 1196 133 1180 q 185 1213 164 1213 q 220 1197 205 1213 q 235 1160 235 1181 q 219 1124 235 1138 q 180 1109 204 1109 z "},"G":{"ha":515,"x_min":61,"x_max":488,"o":"m 305 -37 q 236 -24 268 -37 q 179 9 203 -12 q 138 59 157 28 q 106 124 119 90 q 86 194 94 153 q 73 273 77 235 q 65 348 68 304 q 62 420 62 392 q 62 482 62 437 l 62 530 q 61 585 61 553 q 66 728 61 651 q 88 873 71 800 q 110 940 98 911 q 140 995 121 968 q 180 1040 158 1022 q 233 1069 203 1058 q 299 1079 262 1079 q 357 1040 357 1079 q 346 1016 357 1025 q 320 1007 335 1007 q 300 1010 315 1007 q 280 1014 286 1014 q 233 998 254 1014 q 198 951 212 982 q 172 883 182 918 q 155 805 161 848 q 143 714 147 749 q 138 636 140 679 q 136 505 136 573 l 136 467 q 135 418 135 448 q 136 347 135 376 q 141 279 137 317 q 152 204 145 237 q 172 140 159 172 q 201 84 184 106 q 245 49 219 62 q 302 35 271 35 q 405 93 364 35 q 398 186 404 139 q 382 252 393 234 l 361 249 q 328 246 342 246 q 281 286 281 246 q 295 308 281 298 q 332 323 309 318 q 401 332 373 332 q 444 311 429 332 q 460 258 460 290 q 474 134 460 216 q 488 10 488 49 q 478 -17 488 -6 q 454 -28 469 -28 q 408 1 418 -28 l 408 3 q 377 -13 401 1 q 338 -31 354 -26 q 305 -37 321 -37 z "},"Ǵ":{"ha":515,"x_min":61,"x_max":488,"o":"m 305 -37 q 236 -24 268 -37 q 179 9 203 -12 q 138 59 157 28 q 106 124 119 90 q 86 194 94 153 q 73 273 77 235 q 65 348 68 304 q 62 420 62 392 q 62 482 62 437 l 62 530 q 61 585 61 553 q 66 728 61 651 q 88 873 71 800 q 110 940 98 911 q 140 995 121 968 q 180 1040 158 1022 q 233 1069 203 1058 q 299 1079 262 1079 q 357 1040 357 1079 q 346 1016 357 1025 q 320 1007 335 1007 q 300 1010 315 1007 q 280 1014 286 1014 q 233 998 254 1014 q 198 951 212 982 q 172 883 182 918 q 155 805 161 848 q 143 714 147 749 q 138 636 140 679 q 136 505 136 573 l 136 467 q 135 418 135 448 q 136 347 135 376 q 141 279 137 317 q 152 204 145 237 q 172 140 159 172 q 201 84 184 106 q 245 49 219 62 q 302 35 271 35 q 405 93 364 35 q 398 186 404 139 q 382 252 393 234 l 361 249 q 328 246 342 246 q 281 286 281 246 q 295 308 281 298 q 332 323 309 318 q 401 332 373 332 q 444 311 429 332 q 460 258 460 290 q 474 134 460 216 q 488 10 488 49 q 478 -17 488 -6 q 454 -28 469 -28 q 408 1 418 -28 l 408 3 q 377 -13 401 1 q 338 -31 354 -26 q 305 -37 321 -37 m 206 1090 q 191 1095 197 1090 q 184 1108 184 1101 q 191 1122 184 1115 q 291 1210 222 1152 q 373 1281 355 1264 q 385 1284 380 1284 q 415 1267 401 1284 q 430 1232 430 1250 q 420 1210 430 1217 q 218 1093 364 1169 q 206 1090 213 1090 z "},"Ğ":{"ha":515,"x_min":61,"x_max":488,"o":"m 305 -37 q 236 -24 268 -37 q 179 9 203 -12 q 138 59 157 28 q 106 124 119 90 q 86 194 94 153 q 73 273 77 235 q 65 348 68 304 q 62 420 62 392 q 62 482 62 437 l 62 530 q 61 585 61 553 q 66 728 61 651 q 88 873 71 800 q 110 940 98 911 q 140 995 121 968 q 180 1040 158 1022 q 233 1069 203 1058 q 299 1079 262 1079 q 357 1040 357 1079 q 346 1016 357 1025 q 320 1007 335 1007 q 300 1010 315 1007 q 280 1014 286 1014 q 233 998 254 1014 q 198 951 212 982 q 172 883 182 918 q 155 805 161 848 q 143 714 147 749 q 138 636 140 679 q 136 505 136 573 l 136 467 q 135 418 135 448 q 136 347 135 376 q 141 279 137 317 q 152 204 145 237 q 172 140 159 172 q 201 84 184 106 q 245 49 219 62 q 302 35 271 35 q 405 93 364 35 q 398 186 404 139 q 382 252 393 234 l 361 249 q 328 246 342 246 q 281 286 281 246 q 295 308 281 298 q 332 323 309 318 q 401 332 373 332 q 444 311 429 332 q 460 258 460 290 q 474 134 460 216 q 488 10 488 49 q 478 -17 488 -6 q 454 -28 469 -28 q 408 1 418 -28 l 408 3 q 377 -13 401 1 q 338 -31 354 -26 q 305 -37 321 -37 m 256 1112 q 200 1127 224 1112 q 163 1167 176 1141 q 139 1277 139 1214 q 146 1292 139 1286 q 165 1299 153 1299 q 193 1281 180 1299 q 213 1238 205 1263 q 230 1194 220 1212 q 252 1177 241 1177 q 287 1197 275 1177 q 300 1240 300 1218 q 308 1280 300 1268 q 339 1293 316 1293 q 365 1282 353 1293 q 376 1257 376 1272 q 373 1223 376 1234 q 333 1143 362 1173 q 256 1112 304 1112 z "},"Ǧ":{"ha":515,"x_min":61,"x_max":488,"o":"m 305 -37 q 236 -24 268 -37 q 179 9 203 -12 q 138 59 157 28 q 106 124 119 90 q 86 194 94 153 q 73 273 77 235 q 65 348 68 304 q 62 420 62 392 q 62 482 62 437 l 62 530 q 61 585 61 553 q 66 728 61 651 q 88 873 71 800 q 110 940 98 911 q 140 995 121 968 q 180 1040 158 1022 q 233 1069 203 1058 q 299 1079 262 1079 q 357 1040 357 1079 q 346 1016 357 1025 q 320 1007 335 1007 q 300 1010 315 1007 q 280 1014 286 1014 q 233 998 254 1014 q 198 951 212 982 q 172 883 182 918 q 155 805 161 848 q 143 714 147 749 q 138 636 140 679 q 136 505 136 573 l 136 467 q 135 418 135 448 q 136 347 135 376 q 141 279 137 317 q 152 204 145 237 q 172 140 159 172 q 201 84 184 106 q 245 49 219 62 q 302 35 271 35 q 405 93 364 35 q 398 186 404 139 q 382 252 393 234 l 361 249 q 328 246 342 246 q 281 286 281 246 q 295 308 281 298 q 332 323 309 318 q 401 332 373 332 q 444 311 429 332 q 460 258 460 290 q 474 134 460 216 q 488 10 488 49 q 478 -17 488 -6 q 454 -28 469 -28 q 408 1 418 -28 l 408 3 q 377 -13 401 1 q 338 -31 354 -26 q 305 -37 321 -37 m 244 1100 q 197 1154 227 1100 q 143 1273 168 1207 q 119 1364 119 1338 q 129 1382 119 1375 q 152 1390 139 1390 q 186 1351 169 1390 q 221 1247 202 1314 l 239 1183 q 245 1230 241 1198 q 252 1288 248 1260 q 261 1339 256 1315 q 300 1395 273 1395 q 321 1387 313 1395 q 329 1366 329 1379 q 324 1355 329 1362 q 319 1345 320 1350 l 319 1320 l 299 1244 q 279 1145 279 1166 q 244 1100 279 1100 z "},"Ĝ":{"ha":515,"x_min":61,"x_max":488,"o":"m 305 -37 q 236 -24 268 -37 q 179 9 203 -12 q 138 59 157 28 q 106 124 119 90 q 86 194 94 153 q 73 273 77 235 q 65 348 68 304 q 62 420 62 392 q 62 482 62 437 l 62 530 q 61 585 61 553 q 66 728 61 651 q 88 873 71 800 q 110 940 98 911 q 140 995 121 968 q 180 1040 158 1022 q 233 1069 203 1058 q 299 1079 262 1079 q 357 1040 357 1079 q 346 1016 357 1025 q 320 1007 335 1007 q 300 1010 315 1007 q 280 1014 286 1014 q 233 998 254 1014 q 198 951 212 982 q 172 883 182 918 q 155 805 161 848 q 143 714 147 749 q 138 636 140 679 q 136 505 136 573 l 136 467 q 135 418 135 448 q 136 347 135 376 q 141 279 137 317 q 152 204 145 237 q 172 140 159 172 q 201 84 184 106 q 245 49 219 62 q 302 35 271 35 q 405 93 364 35 q 398 186 404 139 q 382 252 393 234 l 361 249 q 328 246 342 246 q 281 286 281 246 q 295 308 281 298 q 332 323 309 318 q 401 332 373 332 q 444 311 429 332 q 460 258 460 290 q 474 134 460 216 q 488 10 488 49 q 478 -17 488 -6 q 454 -28 469 -28 q 408 1 418 -28 l 408 3 q 377 -13 401 1 q 338 -31 354 -26 q 305 -37 321 -37 m 340 1088 q 322 1098 326 1088 l 268 1285 l 198 1107 q 178 1098 194 1098 q 154 1105 164 1098 q 143 1125 143 1113 q 146 1138 143 1133 q 182 1228 170 1196 l 195 1261 q 229 1334 218 1316 q 260 1367 245 1360 q 279 1371 269 1371 q 299 1357 290 1371 q 334 1263 315 1335 l 352 1196 q 370 1130 359 1169 q 372 1118 372 1123 q 362 1096 372 1104 q 340 1088 353 1088 z "},"Ģ":{"ha":515,"x_min":61,"x_max":488,"o":"m 305 -37 q 236 -24 268 -37 q 179 9 203 -12 q 138 59 157 28 q 106 124 119 90 q 86 194 94 153 q 73 273 77 235 q 65 348 68 304 q 62 420 62 392 q 62 482 62 437 l 62 530 q 61 585 61 553 q 66 728 61 651 q 88 873 71 800 q 110 940 98 911 q 140 995 121 968 q 180 1040 158 1022 q 233 1069 203 1058 q 299 1079 262 1079 q 357 1040 357 1079 q 346 1016 357 1025 q 320 1007 335 1007 q 300 1010 315 1007 q 280 1014 286 1014 q 233 998 254 1014 q 198 951 212 982 q 172 883 182 918 q 155 805 161 848 q 143 714 147 749 q 138 636 140 679 q 136 505 136 573 l 136 467 q 135 418 135 448 q 136 347 135 376 q 141 279 137 317 q 152 204 145 237 q 172 140 159 172 q 201 84 184 106 q 245 49 219 62 q 302 35 271 35 q 405 93 364 35 q 398 186 404 139 q 382 252 393 234 l 361 249 q 328 246 342 246 q 281 286 281 246 q 295 308 281 298 q 332 323 309 318 q 401 332 373 332 q 444 311 429 332 q 460 258 460 290 q 474 134 460 216 q 488 10 488 49 q 478 -17 488 -6 q 454 -28 469 -28 q 408 1 418 -28 l 408 3 q 377 -13 401 1 q 338 -31 354 -26 q 305 -37 321 -37 m 188 -368 q 176 -357 176 -368 q 222 -259 176 -347 q 300 -118 267 -172 q 307 -115 302 -115 q 328 -125 317 -115 q 338 -146 338 -134 q 313 -219 338 -174 q 255 -307 288 -264 q 199 -365 221 -349 q 191 -368 194 -368 l 188 -368 z "},"Ġ":{"ha":515,"x_min":61,"x_max":488,"o":"m 305 -37 q 236 -24 268 -37 q 179 9 203 -12 q 138 59 157 28 q 106 124 119 90 q 86 194 94 153 q 73 273 77 235 q 65 348 68 304 q 62 420 62 392 q 62 482 62 437 l 62 530 q 61 585 61 553 q 66 728 61 651 q 88 873 71 800 q 110 940 98 911 q 140 995 121 968 q 180 1040 158 1022 q 233 1069 203 1058 q 299 1079 262 1079 q 357 1040 357 1079 q 346 1016 357 1025 q 320 1007 335 1007 q 300 1010 315 1007 q 280 1014 286 1014 q 233 998 254 1014 q 198 951 212 982 q 172 883 182 918 q 155 805 161 848 q 143 714 147 749 q 138 636 140 679 q 136 505 136 573 l 136 467 q 135 418 135 448 q 136 347 135 376 q 141 279 137 317 q 152 204 145 237 q 172 140 159 172 q 201 84 184 106 q 245 49 219 62 q 302 35 271 35 q 405 93 364 35 q 398 186 404 139 q 382 252 393 234 l 361 249 q 328 246 342 246 q 281 286 281 246 q 295 308 281 298 q 332 323 309 318 q 401 332 373 332 q 444 311 429 332 q 460 258 460 290 q 474 134 460 216 q 488 10 488 49 q 478 -17 488 -6 q 454 -28 469 -28 q 408 1 418 -28 l 408 3 q 377 -13 401 1 q 338 -31 354 -26 q 305 -37 321 -37 m 220 1123 q 187 1138 201 1123 q 173 1173 173 1154 q 189 1210 173 1194 q 225 1226 204 1226 q 260 1210 245 1226 q 275 1174 275 1194 q 259 1137 275 1152 q 220 1123 244 1123 z "},"H":{"ha":458,"x_min":64,"x_max":367,"o":"m 326 -21 q 300 -8 309 -21 q 291 25 291 5 q 279 515 291 290 q 233 522 243 522 q 151 511 175 522 q 162 277 151 438 q 174 40 174 115 q 165 15 174 26 q 144 3 157 3 q 111 67 125 3 q 90 225 98 124 q 75 463 81 326 q 65 901 67 637 q 64 1024 64 944 q 88 1049 64 1049 q 116 1042 100 1049 q 137 1027 131 1035 q 132 922 132 980 q 137 780 132 868 q 142 637 142 690 q 141 611 142 623 q 140 585 140 600 q 143 549 140 563 q 210 554 176 550 q 278 559 248 557 q 275 781 278 645 q 273 1015 273 917 l 273 1051 q 304 1045 290 1051 q 326 1029 318 1038 q 335 1005 332 1021 q 340 976 339 989 q 340 945 340 968 q 354 487 340 800 q 367 29 367 189 q 355 -5 367 10 q 326 -21 343 -21 z "},"Ħ":{"ha":458,"x_min":58,"x_max":403,"o":"m 363 855 q 393 841 383 850 q 403 821 403 831 q 401 812 403 817 l 364 812 q 375 356 366 597 q 384 35 384 109 q 390 14 390 23 q 379 -18 390 -3 q 355 -33 368 -33 q 333 -22 340 -33 q 325 8 325 -12 q 326 25 325 18 q 326 40 326 32 q 313 505 326 233 q 286 509 308 505 q 261 512 269 512 q 173 499 199 512 q 185 266 173 420 q 197 25 197 107 q 190 2 197 10 q 172 -6 184 -6 q 151 -1 159 -6 q 141 16 144 4 l 141 15 q 132 115 134 32 q 128 288 130 171 q 125 405 127 374 q 103 808 111 594 l 111 808 q 72 818 86 808 q 58 842 58 827 q 67 851 58 848 q 102 854 75 853 q 100 1045 100 930 l 134 1062 l 161 1039 q 155 932 155 987 q 157 856 155 900 l 305 859 q 301 1031 301 972 q 306 1059 301 1043 q 313 1060 309 1060 q 341 1048 330 1060 q 357 1016 353 1037 q 363 937 363 985 l 363 855 m 241 562 q 314 567 282 566 q 307 812 314 617 q 159 808 194 810 q 166 650 166 681 q 165 621 166 634 q 165 595 165 610 q 168 556 165 576 q 241 562 186 557 z "},"Ȟ":{"ha":458,"x_min":64,"x_max":367,"o":"m 326 -21 q 300 -8 309 -21 q 291 25 291 5 q 279 515 291 290 q 233 522 243 522 q 151 511 175 522 q 162 277 151 438 q 174 40 174 115 q 165 15 174 26 q 144 3 157 3 q 111 67 125 3 q 90 225 98 124 q 75 463 81 326 q 65 901 67 637 q 64 1024 64 944 q 88 1049 64 1049 q 116 1042 100 1049 q 137 1027 131 1035 q 132 922 132 980 q 137 780 132 868 q 142 637 142 690 q 141 611 142 623 q 140 585 140 600 q 143 549 140 563 q 210 554 176 550 q 278 559 248 557 q 275 781 278 645 q 273 1015 273 917 l 273 1051 q 304 1045 290 1051 q 326 1029 318 1038 q 335 1005 332 1021 q 340 976 339 989 q 340 945 340 968 q 354 487 340 800 q 367 29 367 189 q 355 -5 367 10 q 326 -21 343 -21 m 222 1086 q 176 1140 205 1086 q 121 1259 146 1194 q 97 1350 97 1324 q 107 1369 97 1361 q 130 1377 117 1377 q 164 1337 147 1377 q 199 1234 180 1300 l 217 1170 q 223 1217 220 1185 q 230 1274 227 1246 q 239 1325 234 1301 q 278 1381 252 1381 q 299 1374 291 1381 q 307 1352 307 1366 q 302 1341 307 1348 q 297 1331 298 1336 l 297 1306 l 277 1230 q 258 1131 258 1153 q 222 1086 258 1086 z "},"Ĥ":{"ha":458,"x_min":64,"x_max":367,"o":"m 326 -21 q 300 -8 309 -21 q 291 25 291 5 q 279 515 291 290 q 233 522 243 522 q 151 511 175 522 q 162 277 151 438 q 174 40 174 115 q 165 15 174 26 q 144 3 157 3 q 111 67 125 3 q 90 225 98 124 q 75 463 81 326 q 65 901 67 637 q 64 1024 64 944 q 88 1049 64 1049 q 116 1042 100 1049 q 137 1027 131 1035 q 132 922 132 980 q 137 780 132 868 q 142 637 142 690 q 141 611 142 623 q 140 585 140 600 q 143 549 140 563 q 210 554 176 550 q 278 559 248 557 q 275 781 278 645 q 273 1015 273 917 l 273 1051 q 304 1045 290 1051 q 326 1029 318 1038 q 335 1005 332 1021 q 340 976 339 989 q 340 945 340 968 q 354 487 340 800 q 367 29 367 189 q 355 -5 367 10 q 326 -21 343 -21 m 318 1075 q 300 1084 304 1075 l 246 1272 l 176 1094 q 157 1084 172 1084 q 132 1092 142 1084 q 121 1112 121 1099 q 124 1124 121 1119 q 161 1215 149 1183 l 174 1247 q 207 1320 196 1302 q 239 1354 223 1347 q 258 1357 248 1357 q 277 1343 268 1357 q 313 1250 293 1321 l 330 1183 q 348 1116 337 1156 q 350 1104 350 1109 q 340 1083 350 1090 q 318 1075 331 1075 z "},"I":{"ha":357,"x_min":51,"x_max":300,"o":"m 171 2 q 51 43 51 2 q 93 77 51 77 q 109 76 102 77 l 122 75 q 138 82 133 75 q 142 107 142 89 q 130 429 142 220 q 117 749 117 637 l 118 821 l 119 891 q 116 968 119 932 q 83 962 98 962 q 51 996 51 962 q 71 1024 51 1012 q 124 1043 92 1037 q 222 1053 180 1053 q 251 1042 239 1053 q 263 1015 263 1031 q 254 989 263 1000 q 231 978 245 978 q 217 979 222 978 l 206 979 q 186 972 192 979 q 180 950 180 966 q 197 544 180 809 q 214 138 214 279 l 214 84 q 242 86 228 86 q 300 37 300 86 l 300 29 l 265 5 l 229 4 q 171 2 195 2 z "},"Ĳ":{"ha":729,"x_min":51,"x_max":631,"o":"m 171 2 q 51 43 51 2 q 93 77 51 77 q 109 76 102 77 l 122 75 q 138 82 133 75 q 142 107 142 89 q 130 429 142 220 q 117 749 117 637 l 118 821 l 119 891 q 116 968 119 932 q 83 962 98 962 q 51 996 51 962 q 71 1024 51 1012 q 124 1043 92 1037 q 222 1053 180 1053 q 251 1042 239 1053 q 263 1015 263 1031 q 254 989 263 1000 q 231 978 245 978 q 217 979 222 978 l 206 979 q 186 972 192 979 q 180 950 180 966 q 197 544 180 809 q 214 138 214 279 l 214 84 q 242 86 228 86 q 300 37 300 86 l 300 29 l 265 5 l 229 4 q 171 2 195 2 m 456 -132 q 420 -120 434 -132 q 406 -89 406 -109 q 422 -57 406 -73 q 460 -33 439 -41 q 499 50 481 -5 q 516 163 516 105 l 517 231 q 518 299 518 261 l 517 356 l 511 496 q 480 980 500 766 l 462 976 q 420 969 435 969 q 395 980 406 969 q 385 1004 385 990 q 551 1053 385 1053 l 568 1053 q 599 1051 588 1053 q 621 1040 610 1048 q 631 1015 631 1031 q 573 979 631 979 q 571 980 572 979 l 569 980 l 550 980 l 550 969 q 558 862 550 933 q 566 754 566 790 q 579 484 566 660 q 591 214 591 304 l 591 159 q 591 103 591 134 q 555 -45 591 19 q 456 -132 520 -109 z "},"Í":{"ha":357,"x_min":51,"x_max":338,"o":"m 171 2 q 51 43 51 2 q 93 77 51 77 q 109 76 102 77 l 122 75 q 138 82 133 75 q 142 107 142 89 q 130 429 142 220 q 117 749 117 637 l 118 821 l 119 891 q 116 968 119 932 q 83 962 98 962 q 51 996 51 962 q 71 1024 51 1012 q 124 1043 92 1037 q 222 1053 180 1053 q 251 1042 239 1053 q 263 1015 263 1031 q 254 989 263 1000 q 231 978 245 978 q 217 979 222 978 l 206 979 q 186 972 192 979 q 180 950 180 966 q 197 544 180 809 q 214 138 214 279 l 214 84 q 242 86 228 86 q 300 37 300 86 l 300 29 l 265 5 l 229 4 q 171 2 195 2 m 114 1090 q 98 1095 105 1090 q 92 1108 92 1101 q 99 1122 92 1115 q 199 1210 130 1152 q 281 1281 263 1264 q 292 1284 288 1284 q 323 1267 309 1284 q 338 1232 338 1250 q 328 1210 338 1217 q 125 1093 272 1169 q 114 1090 121 1090 z "},"Ĭ":{"ha":357,"x_min":47,"x_max":300,"o":"m 171 2 q 51 43 51 2 q 93 77 51 77 q 109 76 102 77 l 122 75 q 138 82 133 75 q 142 107 142 89 q 130 429 142 220 q 117 749 117 637 l 118 821 l 119 891 q 116 968 119 932 q 83 962 98 962 q 51 996 51 962 q 71 1024 51 1012 q 124 1043 92 1037 q 222 1053 180 1053 q 251 1042 239 1053 q 263 1015 263 1031 q 254 989 263 1000 q 231 978 245 978 q 217 979 222 978 l 206 979 q 186 972 192 979 q 180 950 180 966 q 197 544 180 809 q 214 138 214 279 l 214 84 q 242 86 228 86 q 300 37 300 86 l 300 29 l 265 5 l 229 4 q 171 2 195 2 m 164 1112 q 108 1127 132 1112 q 71 1167 84 1141 q 47 1277 47 1214 q 54 1292 47 1286 q 73 1299 61 1299 q 100 1281 87 1299 q 121 1238 113 1263 q 138 1194 127 1212 q 160 1177 149 1177 q 195 1197 182 1177 q 208 1240 208 1218 q 216 1280 208 1268 q 247 1293 224 1293 q 272 1282 261 1293 q 283 1257 283 1272 q 281 1223 283 1234 q 241 1143 270 1173 q 164 1112 212 1112 z "},"Ǐ":{"ha":357,"x_min":26,"x_max":300,"o":"m 171 2 q 51 43 51 2 q 93 77 51 77 q 109 76 102 77 l 122 75 q 138 82 133 75 q 142 107 142 89 q 130 429 142 220 q 117 749 117 637 l 118 821 l 119 891 q 116 968 119 932 q 83 962 98 962 q 51 996 51 962 q 71 1024 51 1012 q 124 1043 92 1037 q 222 1053 180 1053 q 251 1042 239 1053 q 263 1015 263 1031 q 254 989 263 1000 q 231 978 245 978 q 217 979 222 978 l 206 979 q 186 972 192 979 q 180 950 180 966 q 197 544 180 809 q 214 138 214 279 l 214 84 q 242 86 228 86 q 300 37 300 86 l 300 29 l 265 5 l 229 4 q 171 2 195 2 m 152 1100 q 105 1154 135 1100 q 51 1273 75 1207 q 26 1364 26 1338 q 37 1382 26 1375 q 60 1390 47 1390 q 94 1351 77 1390 q 129 1247 110 1314 l 146 1183 q 153 1230 149 1198 q 160 1288 156 1260 q 169 1339 163 1315 q 208 1395 181 1395 q 229 1387 220 1395 q 237 1366 237 1379 q 232 1355 237 1362 q 227 1345 228 1350 l 227 1320 l 207 1244 q 187 1145 187 1166 q 152 1100 187 1100 z "},"Î":{"ha":357,"x_min":51,"x_max":300,"o":"m 171 2 q 51 43 51 2 q 93 77 51 77 q 109 76 102 77 l 122 75 q 138 82 133 75 q 142 107 142 89 q 130 429 142 220 q 117 749 117 637 l 118 821 l 119 891 q 116 968 119 932 q 83 962 98 962 q 51 996 51 962 q 71 1024 51 1012 q 124 1043 92 1037 q 222 1053 180 1053 q 251 1042 239 1053 q 263 1015 263 1031 q 254 989 263 1000 q 231 978 245 978 q 217 979 222 978 l 206 979 q 186 972 192 979 q 180 950 180 966 q 197 544 180 809 q 214 138 214 279 l 214 84 q 242 86 228 86 q 300 37 300 86 l 300 29 l 265 5 l 229 4 q 171 2 195 2 m 248 1088 q 230 1098 233 1088 l 176 1285 l 106 1107 q 86 1098 102 1098 q 61 1105 72 1098 q 51 1125 51 1113 q 54 1138 51 1133 q 90 1228 78 1196 l 103 1261 q 136 1334 125 1316 q 168 1367 153 1360 q 187 1371 177 1371 q 207 1357 197 1371 q 242 1263 222 1335 l 260 1196 q 277 1130 267 1169 q 279 1118 279 1123 q 270 1096 279 1104 q 248 1088 260 1088 z "},"Ȉ":{"ha":357,"x_min":-69,"x_max":332,"o":"m 171 2 q 51 43 51 2 q 93 77 51 77 q 109 76 102 77 l 122 75 q 138 82 133 75 q 142 107 142 89 q 130 429 142 220 q 117 749 117 637 l 118 821 l 119 891 q 116 968 119 932 q 83 962 98 962 q 51 996 51 962 q 71 1024 51 1012 q 124 1043 92 1037 q 222 1053 180 1053 q 251 1042 239 1053 q 263 1015 263 1031 q 254 989 263 1000 q 231 978 245 978 q 217 979 222 978 l 206 979 q 186 972 192 979 q 180 950 180 966 q 197 544 180 809 q 214 138 214 279 l 214 84 q 242 86 228 86 q 300 37 300 86 l 300 29 l 265 5 l 229 4 q 171 2 195 2 m 157 1103 q -56 1303 -52 1298 l -69 1326 q -54 1352 -65 1341 q -28 1362 -42 1362 q 33 1308 -18 1362 q 127 1192 83 1251 q 171 1119 171 1133 q 157 1103 171 1103 m 323 1092 q 187 1245 252 1160 q 146 1322 146 1298 q 158 1335 146 1329 q 182 1341 170 1341 q 227 1290 191 1341 q 297 1181 264 1238 q 332 1106 331 1123 l 323 1092 z "},"Ï":{"ha":357,"x_min":3,"x_max":328,"o":"m 171 2 q 51 43 51 2 q 93 77 51 77 q 109 76 102 77 l 122 75 q 138 82 133 75 q 142 107 142 89 q 130 429 142 220 q 117 749 117 637 l 118 821 l 119 891 q 116 968 119 932 q 83 962 98 962 q 51 996 51 962 q 71 1024 51 1012 q 124 1043 92 1037 q 222 1053 180 1053 q 251 1042 239 1053 q 263 1015 263 1031 q 254 989 263 1000 q 231 978 245 978 q 217 979 222 978 l 206 979 q 186 972 192 979 q 180 950 180 966 q 197 544 180 809 q 214 138 214 279 l 214 84 q 242 86 228 86 q 300 37 300 86 l 300 29 l 265 5 l 229 4 q 171 2 195 2 m 50 1102 q 17 1117 31 1102 q 3 1152 3 1133 q 18 1189 3 1173 q 55 1205 34 1205 q 90 1189 75 1205 q 104 1153 104 1173 q 89 1116 104 1131 q 50 1102 74 1102 m 273 1095 q 241 1111 255 1095 q 227 1145 227 1126 q 242 1182 227 1166 q 279 1198 258 1198 q 313 1182 298 1198 q 328 1146 328 1166 q 313 1109 328 1124 q 273 1095 298 1095 z "},"İ":{"ha":357,"x_min":51,"x_max":300,"o":"m 171 2 q 51 43 51 2 q 93 77 51 77 q 109 76 102 77 l 122 75 q 138 82 133 75 q 142 107 142 89 q 130 429 142 220 q 117 749 117 637 l 118 821 l 119 891 q 116 968 119 932 q 83 962 98 962 q 51 996 51 962 q 71 1024 51 1012 q 124 1043 92 1037 q 222 1053 180 1053 q 251 1042 239 1053 q 263 1015 263 1031 q 254 989 263 1000 q 231 978 245 978 q 217 979 222 978 l 206 979 q 186 972 192 979 q 180 950 180 966 q 197 544 180 809 q 214 138 214 279 l 214 84 q 242 86 228 86 q 300 37 300 86 l 300 29 l 265 5 l 229 4 q 171 2 195 2 m 127 1123 q 95 1138 109 1123 q 81 1173 81 1154 q 96 1210 81 1194 q 133 1226 112 1226 q 168 1210 153 1226 q 182 1174 182 1194 q 167 1137 182 1152 q 127 1123 152 1123 z "},"Ị":{"ha":357,"x_min":51,"x_max":300,"o":"m 171 2 q 51 43 51 2 q 93 77 51 77 q 109 76 102 77 l 122 75 q 138 82 133 75 q 142 107 142 89 q 130 429 142 220 q 117 749 117 637 l 118 821 l 119 891 q 116 968 119 932 q 83 962 98 962 q 51 996 51 962 q 71 1024 51 1012 q 124 1043 92 1037 q 222 1053 180 1053 q 251 1042 239 1053 q 263 1015 263 1031 q 254 989 263 1000 q 231 978 245 978 q 217 979 222 978 l 206 979 q 186 972 192 979 q 180 950 180 966 q 197 544 180 809 q 214 138 214 279 l 214 84 q 242 86 228 86 q 300 37 300 86 l 300 29 l 265 5 l 229 4 q 171 2 195 2 m 175 -234 q 142 -219 157 -234 q 128 -184 128 -203 q 144 -147 128 -163 q 180 -131 159 -131 q 215 -147 200 -131 q 230 -183 230 -163 q 215 -220 230 -205 q 175 -234 199 -234 z "},"Ì":{"ha":357,"x_min":-63,"x_max":300,"o":"m 171 2 q 51 43 51 2 q 93 77 51 77 q 109 76 102 77 l 122 75 q 138 82 133 75 q 142 107 142 89 q 130 429 142 220 q 117 749 117 637 l 118 821 l 119 891 q 116 968 119 932 q 83 962 98 962 q 51 996 51 962 q 71 1024 51 1012 q 124 1043 92 1037 q 222 1053 180 1053 q 251 1042 239 1053 q 263 1015 263 1031 q 254 989 263 1000 q 231 978 245 978 q 217 979 222 978 l 206 979 q 186 972 192 979 q 180 950 180 966 q 197 544 180 809 q 214 138 214 279 l 214 84 q 242 86 228 86 q 300 37 300 86 l 300 29 l 265 5 l 229 4 q 171 2 195 2 m 193 1095 q 114 1114 178 1095 q -7 1154 49 1133 q -63 1183 -63 1175 q -56 1206 -63 1193 q -38 1228 -49 1219 q -17 1237 -28 1237 q 49 1207 -8 1237 q 155 1147 106 1178 q 203 1105 203 1116 q 193 1095 203 1095 z "},"Ỉ":{"ha":357,"x_min":9,"x_max":300,"o":"m 171 2 q 51 43 51 2 q 93 77 51 77 q 109 76 102 77 l 122 75 q 138 82 133 75 q 142 107 142 89 q 130 429 142 220 q 117 749 117 637 l 118 821 l 119 891 q 116 968 119 932 q 83 962 98 962 q 51 996 51 962 q 71 1024 51 1012 q 124 1043 92 1037 q 222 1053 180 1053 q 251 1042 239 1053 q 263 1015 263 1031 q 254 989 263 1000 q 231 978 245 978 q 217 979 222 978 l 206 979 q 186 972 192 979 q 180 950 180 966 q 197 544 180 809 q 214 138 214 279 l 214 84 q 242 86 228 86 q 300 37 300 86 l 300 29 l 265 5 l 229 4 q 171 2 195 2 m 135 1097 q 102 1118 111 1097 q 114 1167 102 1149 q 141 1191 125 1184 q 182 1202 157 1197 q 212 1211 203 1206 q 221 1227 221 1215 q 201 1261 221 1247 q 146 1276 182 1276 q 96 1264 114 1276 q 77 1235 77 1253 q 87 1222 77 1234 q 80 1213 87 1221 q 64 1200 73 1206 q 49 1194 56 1194 q 20 1203 31 1194 q 9 1224 9 1213 l 9 1237 q 44 1309 9 1283 q 144 1335 78 1335 q 262 1303 231 1335 q 294 1227 294 1270 q 282 1186 294 1201 q 256 1165 271 1171 q 216 1154 240 1160 q 180 1143 191 1149 q 170 1125 170 1138 l 170 1101 q 142 1099 144 1101 q 135 1097 138 1097 z "},"Ȋ":{"ha":357,"x_min":13,"x_max":300,"o":"m 171 2 q 51 43 51 2 q 93 77 51 77 q 109 76 102 77 l 122 75 q 138 82 133 75 q 142 107 142 89 q 130 429 142 220 q 117 749 117 637 l 118 821 l 119 891 q 116 968 119 932 q 83 962 98 962 q 51 996 51 962 q 71 1024 51 1012 q 124 1043 92 1037 q 222 1053 180 1053 q 251 1042 239 1053 q 263 1015 263 1031 q 254 989 263 1000 q 231 978 245 978 q 217 979 222 978 l 206 979 q 186 972 192 979 q 180 950 180 966 q 197 544 180 809 q 214 138 214 279 l 214 84 q 242 86 228 86 q 300 37 300 86 l 300 29 l 265 5 l 229 4 q 171 2 195 2 m 13 1109 q 37 1219 13 1171 q 74 1259 50 1244 q 130 1274 98 1274 q 174 1266 157 1274 q 205 1242 192 1259 q 224 1213 218 1225 q 242 1173 230 1202 l 245 1168 l 247 1162 l 245 1156 q 243 1151 243 1151 l 250 1128 q 238 1104 250 1114 q 213 1093 227 1093 q 182 1105 190 1093 q 174 1145 174 1118 q 163 1186 174 1162 q 142 1209 153 1209 l 113 1209 q 93 1181 101 1201 q 79 1138 84 1161 q 64 1102 75 1116 q 39 1087 54 1087 l 13 1109 z "},"Ī":{"ha":357,"x_min":-62,"x_max":326,"o":"m 171 2 q 51 43 51 2 q 93 77 51 77 q 109 76 102 77 l 122 75 q 138 82 133 75 q 142 107 142 89 q 130 429 142 220 q 117 749 117 637 l 118 821 l 119 891 q 116 968 119 932 q 83 962 98 962 q 51 996 51 962 q 71 1024 51 1012 q 124 1043 92 1037 q 222 1053 180 1053 q 251 1042 239 1053 q 263 1015 263 1031 q 254 989 263 1000 q 231 978 245 978 q 217 979 222 978 l 206 979 q 186 972 192 979 q 180 950 180 966 q 197 544 180 809 q 214 138 214 279 l 214 84 q 242 86 228 86 q 300 37 300 86 l 300 29 l 265 5 l 229 4 q 171 2 195 2 m -7 1127 q -62 1171 -62 1127 q -54 1194 -62 1185 q -31 1202 -45 1202 l 173 1202 q 216 1205 191 1202 q 258 1207 244 1207 q 326 1166 326 1207 q 315 1142 326 1150 q 286 1134 304 1134 q 140 1131 248 1134 q -7 1127 30 1127 z "},"Į":{"ha":357,"x_min":51,"x_max":300,"o":"m 242 86 q 300 37 300 86 l 300 29 l 265 5 l 264 5 q 146 -156 146 -85 q 152 -182 146 -173 q 171 -191 158 -191 q 195 -185 183 -191 q 223 -168 206 -180 l 238 -209 q 204 -235 228 -222 q 161 -248 180 -248 q 105 -223 125 -248 q 85 -165 85 -197 q 117 -72 85 -115 q 201 3 149 -28 q 171 2 190 2 q 51 43 51 2 q 93 77 51 77 q 109 76 102 77 l 122 75 q 138 82 133 75 q 142 107 142 89 q 130 429 142 220 q 117 749 117 637 l 118 821 l 119 891 q 116 968 119 932 q 83 962 98 962 q 51 996 51 962 q 71 1024 51 1012 q 124 1043 92 1037 q 222 1053 180 1053 q 251 1042 239 1053 q 263 1015 263 1031 q 254 989 263 1000 q 231 978 245 978 q 217 979 222 978 l 206 979 q 186 972 192 979 q 180 950 180 966 q 197 544 180 809 q 214 138 214 279 l 214 84 q 242 86 228 86 z "},"Ĩ":{"ha":357,"x_min":-31,"x_max":300,"o":"m 171 2 q 51 43 51 2 q 93 77 51 77 q 109 76 102 77 l 122 75 q 138 82 133 75 q 142 107 142 89 q 130 429 142 220 q 117 749 117 637 l 118 821 l 119 891 q 116 968 119 932 q 83 962 98 962 q 51 996 51 962 q 71 1024 51 1012 q 124 1043 92 1037 q 222 1053 180 1053 q 251 1042 239 1053 q 263 1015 263 1031 q 254 989 263 1000 q 231 978 245 978 q 217 979 222 978 l 206 979 q 186 972 192 979 q 180 950 180 966 q 197 544 180 809 q 214 138 214 279 l 214 84 q 242 86 228 86 q 300 37 300 86 l 300 29 l 265 5 l 229 4 q 171 2 195 2 m 203 1095 q 145 1103 170 1095 q 110 1124 120 1112 q 56 1154 86 1154 q 42 1142 45 1149 q 39 1127 38 1135 q 36 1112 41 1119 q 20 1100 31 1104 q -16 1111 -2 1100 q -31 1140 -31 1121 q -3 1197 -31 1174 q 70 1221 24 1221 q 130 1193 86 1221 q 187 1164 174 1164 q 208 1173 200 1164 q 217 1192 215 1181 q 227 1212 219 1204 q 248 1220 235 1220 q 281 1210 269 1220 q 293 1184 293 1199 q 281 1140 293 1160 q 248 1107 269 1119 q 203 1095 227 1095 z "},"J":{"ha":372,"x_min":27,"x_max":273,"o":"m 99 -132 q 63 -120 77 -132 q 49 -89 49 -109 q 65 -57 49 -73 q 103 -33 81 -41 q 141 50 124 -5 q 159 163 159 105 l 160 231 q 161 299 161 261 l 159 356 l 153 496 q 123 980 142 766 l 104 976 q 62 969 78 969 q 38 980 48 969 q 27 1004 27 990 q 193 1053 27 1053 l 211 1053 q 242 1051 231 1053 q 263 1040 253 1048 q 273 1015 273 1031 q 216 979 273 979 q 214 980 214 979 l 212 980 l 193 980 l 193 969 q 201 862 193 933 q 209 754 209 790 q 222 484 209 660 q 234 214 234 304 l 234 159 q 233 103 233 134 q 198 -45 233 19 q 99 -132 163 -109 z "},"Ĵ":{"ha":372,"x_min":27,"x_max":293,"o":"m 99 -132 q 63 -120 77 -132 q 49 -89 49 -109 q 65 -57 49 -73 q 103 -33 81 -41 q 141 50 124 -5 q 159 163 159 105 l 160 231 q 161 299 161 261 l 159 356 l 153 496 q 123 980 142 766 l 104 976 q 62 969 78 969 q 38 980 48 969 q 27 1004 27 990 q 193 1053 27 1053 l 211 1053 q 242 1051 231 1053 q 263 1040 253 1048 q 273 1015 273 1031 q 216 979 273 979 q 214 980 214 979 l 212 980 l 193 980 l 193 969 q 201 862 193 933 q 209 754 209 790 q 222 484 209 660 q 234 214 234 304 l 234 159 q 233 103 233 134 q 198 -45 233 19 q 99 -132 163 -109 m 261 1075 q 243 1084 247 1075 l 189 1272 l 119 1094 q 100 1084 115 1084 q 75 1092 85 1084 q 64 1112 64 1099 q 67 1124 64 1119 q 104 1215 92 1183 l 117 1247 q 150 1320 139 1302 q 182 1354 166 1347 q 201 1357 191 1357 q 220 1343 211 1357 q 256 1250 236 1321 l 273 1183 q 291 1116 280 1156 q 293 1104 293 1109 q 283 1083 293 1090 q 261 1075 274 1075 z "},"K":{"ha":495,"x_min":81,"x_max":454,"o":"m 410 -33 q 393 -30 404 -33 q 378 -27 383 -27 q 303 329 340 186 q 208 597 265 471 q 180 543 197 578 q 165 501 166 516 q 162 480 164 498 q 161 441 161 463 q 165 312 161 392 q 170 183 170 227 l 170 69 q 122 -5 170 -5 q 81 73 81 -5 q 91 260 81 131 q 100 448 100 381 l 101 567 q 102 711 102 628 q 92 871 102 781 q 81 1001 81 962 q 93 1032 81 1019 q 121 1045 104 1045 q 172 932 172 1045 l 166 647 q 193 715 170 654 q 288 946 237 829 q 338 1044 314 1006 q 374 1082 361 1082 q 402 1072 391 1082 q 414 1046 414 1061 q 338 873 414 1032 q 253 672 262 715 l 253 648 q 365 309 275 593 q 454 7 454 24 q 441 -21 454 -9 q 410 -33 427 -33 z "},"Ǩ":{"ha":495,"x_min":81,"x_max":454,"o":"m 410 -33 q 393 -30 404 -33 q 378 -27 383 -27 q 303 329 340 186 q 208 597 265 471 q 180 543 197 578 q 165 501 166 516 q 162 480 164 498 q 161 441 161 463 q 165 312 161 392 q 170 183 170 227 l 170 69 q 122 -5 170 -5 q 81 73 81 -5 q 91 260 81 131 q 100 448 100 381 l 101 567 q 102 711 102 628 q 92 871 102 781 q 81 1001 81 962 q 93 1032 81 1019 q 121 1045 104 1045 q 172 932 172 1045 l 166 647 q 193 715 170 654 q 288 946 237 829 q 338 1044 314 1006 q 374 1082 361 1082 q 402 1072 391 1082 q 414 1046 414 1061 q 338 873 414 1032 q 253 672 262 715 l 253 648 q 365 309 275 593 q 454 7 454 24 q 441 -21 454 -9 q 410 -33 427 -33 m 268 1086 q 221 1140 251 1086 q 167 1259 191 1194 q 142 1350 142 1324 q 153 1369 142 1361 q 176 1377 163 1377 q 210 1337 193 1377 q 245 1234 226 1300 l 262 1170 q 269 1217 265 1185 q 276 1274 272 1246 q 285 1325 279 1301 q 323 1381 297 1381 q 345 1374 336 1381 q 353 1352 353 1366 q 348 1341 353 1348 q 342 1331 344 1336 l 342 1306 l 323 1230 q 303 1131 303 1153 q 268 1086 303 1086 z "},"Ķ":{"ha":495,"x_min":81,"x_max":454,"o":"m 410 -33 q 393 -30 404 -33 q 378 -27 383 -27 q 303 329 340 186 q 208 597 265 471 q 180 543 197 578 q 165 501 166 516 q 162 480 164 498 q 161 441 161 463 q 165 312 161 392 q 170 183 170 227 l 170 69 q 122 -5 170 -5 q 81 73 81 -5 q 91 260 81 131 q 100 448 100 381 l 101 567 q 102 711 102 628 q 92 871 102 781 q 81 1001 81 962 q 93 1032 81 1019 q 121 1045 104 1045 q 172 932 172 1045 l 166 647 q 193 715 170 654 q 288 946 237 829 q 338 1044 314 1006 q 374 1082 361 1082 q 402 1072 391 1082 q 414 1046 414 1061 q 338 873 414 1032 q 253 672 262 715 l 253 648 q 365 309 275 593 q 454 7 454 24 q 441 -21 454 -9 q 410 -33 427 -33 m 178 -368 q 166 -357 166 -368 q 212 -259 166 -347 q 290 -118 257 -172 q 296 -115 292 -115 q 317 -125 307 -115 q 328 -146 328 -134 q 303 -219 328 -174 q 244 -307 278 -264 q 189 -365 211 -349 q 180 -368 184 -368 l 178 -368 z "},"L":{"ha":348,"x_min":81,"x_max":314,"o":"m 147 -16 q 115 -2 129 -16 q 100 28 100 11 q 105 60 100 41 q 109 90 109 79 q 96 564 109 239 q 81 1037 81 879 q 91 1057 81 1049 q 115 1065 101 1065 q 145 1054 132 1065 q 157 1025 157 1042 q 165 775 157 950 q 172 526 172 616 l 173 509 q 174 492 174 501 q 173 481 174 484 l 173 475 q 178 113 178 347 l 178 78 l 284 78 q 314 37 314 58 q 304 9 314 21 q 279 -3 294 -3 q 264 0 272 -3 l 258 2 q 231 -1 248 -1 l 209 1 q 186 1 199 1 q 147 -16 172 -16 z "},"Ǉ":{"ha":720,"x_min":81,"x_max":621,"o":"m 147 -16 q 115 -2 129 -16 q 100 28 100 11 q 105 60 100 41 q 109 90 109 79 q 96 564 109 239 q 81 1037 81 879 q 91 1057 81 1049 q 115 1065 101 1065 q 145 1054 132 1065 q 157 1025 157 1042 q 165 775 157 950 q 172 526 172 616 l 173 509 q 174 492 174 501 q 173 481 174 484 l 173 475 q 178 113 178 347 l 178 78 l 284 78 q 314 37 314 58 q 304 9 314 21 q 279 -3 294 -3 q 264 0 272 -3 l 258 2 q 231 -1 248 -1 l 209 1 q 186 1 199 1 q 147 -16 172 -16 m 447 -132 q 411 -120 425 -132 q 397 -89 397 -109 q 413 -57 397 -73 q 451 -33 429 -41 q 489 50 472 -5 q 507 163 507 105 l 508 231 q 509 299 509 261 l 507 356 l 501 496 q 471 980 490 766 l 452 976 q 410 969 426 969 q 386 980 396 969 q 375 1004 375 990 q 541 1053 375 1053 l 559 1053 q 590 1051 578 1053 q 611 1040 601 1048 q 621 1015 621 1031 q 564 979 621 979 q 562 980 562 979 l 559 980 l 541 980 l 541 969 q 549 862 541 933 q 557 754 557 790 q 570 484 557 660 q 582 214 582 304 l 582 159 q 581 103 581 134 q 546 -45 581 19 q 447 -132 511 -109 z "},"Ĺ":{"ha":348,"x_min":73,"x_max":319,"o":"m 147 -16 q 115 -2 129 -16 q 100 28 100 11 q 105 60 100 41 q 109 90 109 79 q 96 564 109 239 q 81 1037 81 879 q 91 1057 81 1049 q 115 1065 101 1065 q 145 1054 132 1065 q 157 1025 157 1042 q 165 775 157 950 q 172 526 172 616 l 173 509 q 174 492 174 501 q 173 481 174 484 l 173 475 q 178 113 178 347 l 178 78 l 284 78 q 314 37 314 58 q 304 9 314 21 q 279 -3 294 -3 q 264 0 272 -3 l 258 2 q 231 -1 248 -1 l 209 1 q 186 1 199 1 q 147 -16 172 -16 m 96 1076 q 80 1082 87 1076 q 73 1095 73 1087 q 81 1109 73 1101 q 180 1196 112 1139 q 262 1267 245 1251 q 274 1270 270 1270 q 305 1253 290 1270 q 319 1218 319 1236 q 309 1196 319 1204 q 107 1079 254 1156 q 96 1076 102 1076 z "},"Ľ":{"ha":348,"x_min":8,"x_max":314,"o":"m 147 -16 q 115 -2 129 -16 q 100 28 100 11 q 105 60 100 41 q 109 90 109 79 q 96 564 109 239 q 81 1037 81 879 q 91 1057 81 1049 q 115 1065 101 1065 q 145 1054 132 1065 q 157 1025 157 1042 q 165 775 157 950 q 172 526 172 616 l 173 509 q 174 492 174 501 q 173 481 174 484 l 173 475 q 178 113 178 347 l 178 78 l 284 78 q 314 37 314 58 q 304 9 314 21 q 279 -3 294 -3 q 264 0 272 -3 l 258 2 q 231 -1 248 -1 l 209 1 q 186 1 199 1 q 147 -16 172 -16 m 134 1086 q 87 1140 117 1086 q 33 1259 57 1194 q 8 1350 8 1324 q 18 1369 8 1361 q 41 1377 28 1377 q 75 1337 58 1377 q 111 1234 92 1300 l 128 1170 q 134 1217 131 1185 q 141 1274 138 1246 q 151 1325 145 1301 q 189 1381 163 1381 q 210 1374 202 1381 q 218 1352 218 1366 q 214 1341 218 1348 q 208 1331 210 1336 l 208 1306 l 189 1230 q 169 1131 169 1153 q 134 1086 169 1086 z "},"Ļ":{"ha":348,"x_min":81,"x_max":314,"o":"m 147 -16 q 115 -2 129 -16 q 100 28 100 11 q 105 60 100 41 q 109 90 109 79 q 96 564 109 239 q 81 1037 81 879 q 91 1057 81 1049 q 115 1065 101 1065 q 145 1054 132 1065 q 157 1025 157 1042 q 165 775 157 950 q 172 526 172 616 l 173 509 q 174 492 174 501 q 173 481 174 484 l 173 475 q 178 113 178 347 l 178 78 l 284 78 q 314 37 314 58 q 304 9 314 21 q 279 -3 294 -3 q 264 0 272 -3 l 258 2 q 231 -1 248 -1 l 209 1 q 186 1 199 1 q 147 -16 172 -16 m 104 -368 q 93 -357 93 -368 q 138 -259 93 -347 q 217 -118 184 -172 q 223 -115 219 -115 q 244 -125 233 -115 q 255 -146 255 -134 q 230 -219 255 -174 q 171 -307 205 -264 q 116 -365 138 -349 q 107 -368 111 -368 l 104 -368 z "},"Ŀ":{"ha":456,"x_min":81,"x_max":450,"o":"m 147 -16 q 115 -2 129 -16 q 100 28 100 11 q 105 60 100 41 q 109 90 109 79 q 96 564 109 239 q 81 1037 81 879 q 91 1057 81 1049 q 115 1065 101 1065 q 145 1054 132 1065 q 157 1025 157 1042 q 165 775 157 950 q 172 526 172 616 l 173 509 q 174 492 174 501 q 173 481 174 484 l 173 475 q 178 113 178 347 l 178 78 l 284 78 q 314 37 314 58 q 304 9 314 21 q 279 -3 294 -3 q 264 0 272 -3 l 258 2 q 231 -1 248 -1 l 209 1 q 186 1 199 1 q 147 -16 172 -16 m 395 429 q 362 445 376 429 q 348 479 348 460 q 363 516 348 500 q 400 532 379 532 q 435 516 420 532 q 450 480 450 500 q 434 444 450 458 q 395 429 419 429 z "},"ǈ":{"ha":701,"x_min":81,"x_max":667,"o":"m 147 -16 q 115 -2 129 -16 q 100 28 100 11 q 105 60 100 41 q 109 90 109 79 q 96 564 109 239 q 81 1037 81 879 q 91 1057 81 1049 q 115 1065 101 1065 q 145 1054 132 1065 q 157 1025 157 1042 q 165 775 157 950 q 172 526 172 616 l 173 509 q 174 492 174 501 q 173 481 174 484 l 173 475 q 178 113 178 347 l 178 78 l 284 78 q 314 37 314 58 q 304 9 314 21 q 279 -3 294 -3 q 264 0 272 -3 l 258 2 q 231 -1 248 -1 l 209 1 q 186 1 199 1 q 147 -16 172 -16 m 361 -131 q 345 -114 345 -131 q 345 -102 345 -108 q 346 -91 346 -98 q 366 -77 346 -84 q 419 -56 396 -66 q 456 -31 443 -45 q 496 127 496 13 q 488 481 496 234 q 480 836 480 713 l 480 842 l 463 844 l 446 845 q 406 852 423 846 q 378 865 385 857 q 374 876 374 871 q 389 899 374 889 q 419 908 404 908 q 577 899 488 908 q 667 877 667 890 q 656 853 667 863 q 629 844 645 844 l 557 844 q 565 552 557 758 q 572 259 572 364 l 572 111 q 570 70 572 87 q 564 28 569 52 q 550 -18 559 2 q 526 -60 542 -39 q 488 -97 510 -83 q 434 -121 466 -112 q 361 -131 399 -131 z "},"Ł":{"ha":388,"x_min":31,"x_max":330,"o":"m 293 -3 q 279 0 286 -3 l 272 2 q 245 -1 262 -1 l 223 1 q 201 1 213 1 l 180 3 q 155 3 169 3 q 127 11 140 3 q 115 28 115 18 q 119 60 115 41 q 123 90 123 79 q 111 521 123 233 q 76 511 89 511 q 44 521 58 511 q 31 545 31 530 q 108 592 31 576 q 96 1037 96 889 q 105 1057 96 1049 q 130 1065 115 1065 q 159 1054 146 1065 q 172 1025 172 1042 q 178 803 172 947 l 178 783 q 185 613 184 669 q 304 644 255 644 q 322 633 315 644 q 330 608 330 623 q 186 541 330 562 l 186 539 l 187 517 q 188 495 188 507 q 187 481 188 485 l 187 475 q 193 113 193 347 l 193 78 l 298 78 q 328 37 328 58 q 318 9 328 21 q 293 -3 308 -3 z "},"M":{"ha":629,"x_min":75,"x_max":538,"o":"m 483 -37 q 461 -22 469 -37 q 452 18 452 -7 q 450 311 452 137 q 447 603 447 484 l 447 673 q 404 486 437 619 q 361 281 371 352 l 361 272 l 357 246 q 352 213 355 226 q 342 184 349 199 q 300 151 330 151 q 250 280 250 151 q 236 435 250 352 q 189 639 221 517 q 148 795 156 757 q 145 627 145 696 q 151 342 145 532 q 157 56 157 139 q 136 4 157 26 q 88 26 102 4 q 75 90 75 47 q 78 203 75 119 q 81 315 81 286 q 79 584 81 405 q 77 852 77 743 q 79 1032 77 943 l 117 1054 q 163 992 138 1053 q 254 647 201 900 q 290 465 273 553 q 310 358 307 370 q 330 450 315 386 q 338 486 334 469 q 345 518 342 503 q 385 705 373 644 q 412 856 397 766 q 431 1029 425 947 l 431 1037 q 447 1065 433 1055 q 480 1076 461 1076 q 503 1065 492 1076 q 513 1041 513 1054 q 526 543 513 866 q 538 45 538 212 q 530 5 538 24 q 509 -25 522 -14 q 483 -37 496 -37 z "},"Ṁ":{"ha":629,"x_min":75,"x_max":538,"o":"m 483 -37 q 461 -22 469 -37 q 452 18 452 -7 q 450 311 452 137 q 447 603 447 484 l 447 673 q 404 486 437 619 q 361 281 371 352 l 361 272 l 357 246 q 352 213 355 226 q 342 184 349 199 q 300 151 330 151 q 250 280 250 151 q 236 435 250 352 q 189 639 221 517 q 148 795 156 757 q 145 627 145 696 q 151 342 145 532 q 157 56 157 139 q 136 4 157 26 q 88 26 102 4 q 75 90 75 47 q 78 203 75 119 q 81 315 81 286 q 79 584 81 405 q 77 852 77 743 q 79 1032 77 943 l 117 1054 q 163 992 138 1053 q 254 647 201 900 q 290 465 273 553 q 310 358 307 370 q 330 450 315 386 q 338 486 334 469 q 345 518 342 503 q 385 705 373 644 q 412 856 397 766 q 431 1029 425 947 l 431 1037 q 447 1065 433 1055 q 480 1076 461 1076 q 503 1065 492 1076 q 513 1041 513 1054 q 526 543 513 866 q 538 45 538 212 q 530 5 538 24 q 509 -25 522 -14 q 483 -37 496 -37 m 311 1109 q 278 1125 292 1109 q 264 1159 264 1140 q 279 1196 264 1180 q 316 1213 295 1213 q 351 1197 336 1213 q 366 1160 366 1181 q 350 1124 366 1138 q 311 1109 335 1109 z "},"N":{"ha":572,"x_min":75,"x_max":484,"o":"m 427 -20 q 313 266 397 -20 q 145 880 224 567 l 145 425 q 155 227 145 358 q 165 28 165 90 q 150 7 165 16 q 116 -1 134 -1 q 85 20 85 -1 q 89 62 85 26 q 92 120 92 98 q 83 353 92 197 q 75 551 75 509 l 75 728 q 79 855 75 777 q 84 983 84 934 l 84 991 q 115 1061 84 1061 q 161 1000 134 1061 q 277 642 208 900 q 372 256 317 495 l 394 159 l 395 153 q 398 395 395 251 q 401 637 401 538 l 401 1048 q 446 1082 409 1082 q 484 1028 484 1082 l 484 1020 q 475 979 475 1003 q 471 723 475 895 q 467 466 467 562 l 467 41 q 455 0 467 20 q 427 -20 443 -20 z "},"Ǌ":{"ha":943,"x_min":75,"x_max":845,"o":"m 427 -20 q 313 266 397 -20 q 145 880 224 567 l 145 425 q 155 227 145 358 q 165 28 165 90 q 150 7 165 16 q 116 -1 134 -1 q 85 20 85 -1 q 89 62 85 26 q 92 120 92 98 q 83 353 92 197 q 75 551 75 509 l 75 728 q 79 855 75 777 q 84 983 84 934 l 84 991 q 115 1061 84 1061 q 161 1000 134 1061 q 277 642 208 900 q 372 256 317 495 l 394 159 l 395 153 q 398 395 395 251 q 401 637 401 538 l 401 1048 q 446 1082 409 1082 q 484 1028 484 1082 l 484 1020 q 475 979 475 1003 q 471 723 475 895 q 467 466 467 562 l 467 41 q 455 0 467 20 q 427 -20 443 -20 m 671 -132 q 634 -120 648 -132 q 621 -89 621 -109 q 637 -57 621 -73 q 675 -33 653 -41 q 713 50 696 -5 q 730 163 730 105 l 732 231 q 732 299 732 261 l 731 356 l 725 496 q 694 980 714 766 l 676 976 q 634 969 650 969 q 609 980 620 969 q 599 1004 599 990 q 765 1053 599 1053 l 783 1053 q 813 1051 802 1053 q 835 1040 825 1048 q 845 1015 845 1031 q 787 979 845 979 q 785 980 786 979 l 783 980 l 764 980 l 764 969 q 772 862 764 933 q 781 754 781 790 q 793 484 781 660 q 806 214 806 304 l 806 159 q 805 103 805 134 q 770 -45 805 19 q 671 -132 734 -109 z "},"Ń":{"ha":572,"x_min":75,"x_max":492,"o":"m 427 -20 q 313 266 397 -20 q 145 880 224 567 l 145 425 q 155 227 145 358 q 165 28 165 90 q 150 7 165 16 q 116 -1 134 -1 q 85 20 85 -1 q 89 62 85 26 q 92 120 92 98 q 83 353 92 197 q 75 551 75 509 l 75 728 q 79 855 75 777 q 84 983 84 934 l 84 991 q 115 1061 84 1061 q 161 1000 134 1061 q 277 642 208 900 q 372 256 317 495 l 394 159 l 395 153 q 398 395 395 251 q 401 637 401 538 l 401 1048 q 446 1082 409 1082 q 484 1028 484 1082 l 484 1020 q 475 979 475 1003 q 471 723 475 895 q 467 466 467 562 l 467 41 q 455 0 467 20 q 427 -20 443 -20 m 269 1076 q 253 1082 260 1076 q 246 1095 246 1087 q 254 1109 246 1101 q 353 1196 285 1139 q 435 1267 418 1251 q 447 1270 443 1270 q 478 1253 463 1270 q 492 1218 492 1236 q 482 1196 492 1204 q 280 1079 427 1156 q 269 1076 275 1076 z "},"Ň":{"ha":572,"x_min":75,"x_max":484,"o":"m 427 -20 q 313 266 397 -20 q 145 880 224 567 l 145 425 q 155 227 145 358 q 165 28 165 90 q 150 7 165 16 q 116 -1 134 -1 q 85 20 85 -1 q 89 62 85 26 q 92 120 92 98 q 83 353 92 197 q 75 551 75 509 l 75 728 q 79 855 75 777 q 84 983 84 934 l 84 991 q 115 1061 84 1061 q 161 1000 134 1061 q 277 642 208 900 q 372 256 317 495 l 394 159 l 395 153 q 398 395 395 251 q 401 637 401 538 l 401 1048 q 446 1082 409 1082 q 484 1028 484 1082 l 484 1020 q 475 979 475 1003 q 471 723 475 895 q 467 466 467 562 l 467 41 q 455 0 467 20 q 427 -20 443 -20 m 307 1086 q 260 1140 290 1086 q 205 1259 230 1194 q 181 1350 181 1324 q 191 1369 181 1361 q 214 1377 201 1377 q 248 1337 231 1377 q 283 1234 264 1300 l 301 1170 q 307 1217 304 1185 q 314 1274 311 1246 q 323 1325 318 1301 q 362 1381 336 1381 q 383 1374 375 1381 q 391 1352 391 1366 q 387 1341 391 1348 q 381 1331 382 1336 l 381 1306 l 361 1230 q 342 1131 342 1153 q 307 1086 342 1086 z "},"Ņ":{"ha":572,"x_min":75,"x_max":484,"o":"m 427 -20 q 313 266 397 -20 q 145 880 224 567 l 145 425 q 155 227 145 358 q 165 28 165 90 q 150 7 165 16 q 116 -1 134 -1 q 85 20 85 -1 q 89 62 85 26 q 92 120 92 98 q 83 353 92 197 q 75 551 75 509 l 75 728 q 79 855 75 777 q 84 983 84 934 l 84 991 q 115 1061 84 1061 q 161 1000 134 1061 q 277 642 208 900 q 372 256 317 495 l 394 159 l 395 153 q 398 395 395 251 q 401 637 401 538 l 401 1048 q 446 1082 409 1082 q 484 1028 484 1082 l 484 1020 q 475 979 475 1003 q 471 723 475 895 q 467 466 467 562 l 467 41 q 455 0 467 20 q 427 -20 443 -20 m 216 -368 q 205 -357 205 -368 q 250 -259 205 -347 q 329 -118 296 -172 q 335 -115 331 -115 q 356 -125 345 -115 q 367 -146 367 -134 q 342 -219 367 -174 q 283 -307 317 -264 q 228 -365 250 -349 q 219 -368 222 -368 l 216 -368 z "},"Ṇ":{"ha":572,"x_min":75,"x_max":484,"o":"m 427 -20 q 313 266 397 -20 q 145 880 224 567 l 145 425 q 155 227 145 358 q 165 28 165 90 q 150 7 165 16 q 116 -1 134 -1 q 85 20 85 -1 q 89 62 85 26 q 92 120 92 98 q 83 353 92 197 q 75 551 75 509 l 75 728 q 79 855 75 777 q 84 983 84 934 l 84 991 q 115 1061 84 1061 q 161 1000 134 1061 q 277 642 208 900 q 372 256 317 495 l 394 159 l 395 153 q 398 395 395 251 q 401 637 401 538 l 401 1048 q 446 1082 409 1082 q 484 1028 484 1082 l 484 1020 q 475 979 475 1003 q 471 723 475 895 q 467 466 467 562 l 467 41 q 455 0 467 20 q 427 -20 443 -20 m 282 -234 q 250 -219 264 -234 q 235 -184 235 -203 q 251 -147 235 -163 q 288 -131 267 -131 q 322 -147 307 -131 q 337 -183 337 -163 q 322 -220 337 -205 q 282 -234 307 -234 z "},"Ǹ":{"ha":572,"x_min":75,"x_max":484,"o":"m 427 -20 q 313 266 397 -20 q 145 880 224 567 l 145 425 q 155 227 145 358 q 165 28 165 90 q 150 7 165 16 q 116 -1 134 -1 q 85 20 85 -1 q 89 62 85 26 q 92 120 92 98 q 83 353 92 197 q 75 551 75 509 l 75 728 q 79 855 75 777 q 84 983 84 934 l 84 991 q 115 1061 84 1061 q 161 1000 134 1061 q 277 642 208 900 q 372 256 317 495 l 394 159 l 395 153 q 398 395 395 251 q 401 637 401 538 l 401 1048 q 446 1082 409 1082 q 484 1028 484 1082 l 484 1020 q 475 979 475 1003 q 471 723 475 895 q 467 466 467 562 l 467 41 q 455 0 467 20 q 427 -20 443 -20 m 348 1082 q 268 1101 333 1082 q 148 1141 203 1120 q 92 1169 92 1162 q 99 1193 92 1179 q 116 1215 106 1206 q 138 1223 127 1223 q 203 1194 146 1223 q 309 1133 260 1164 q 358 1091 358 1102 q 348 1082 358 1082 z "},"Ŋ":{"ha":646,"x_min":117,"x_max":526,"o":"m 366 -263 q 329 -252 343 -263 q 315 -220 315 -241 q 327 -189 315 -203 q 359 -165 339 -174 q 401 -142 386 -151 q 427 -117 416 -132 q 439 -77 439 -100 q 439 -28 439 -50 l 439 22 q 329 353 399 109 q 187 880 258 596 l 187 425 q 197 227 187 358 q 207 28 207 90 q 192 7 207 16 q 158 -1 176 -1 q 127 20 127 -1 q 131 62 127 26 q 134 120 134 98 q 125 353 134 197 q 117 551 117 509 l 117 728 q 121 855 117 777 q 126 983 126 934 l 126 991 q 157 1061 126 1061 q 203 1000 176 1061 q 319 642 250 900 q 414 256 359 495 l 436 159 l 437 153 q 440 395 437 251 q 443 637 443 538 l 443 1048 q 488 1082 451 1082 q 526 1028 526 1082 l 526 1020 l 519 1008 q 509 979 509 989 l 509 28 l 509 -5 q 505 -82 509 -59 q 503 -103 505 -87 q 498 -127 500 -118 q 490 -146 495 -137 q 477 -170 482 -163 q 458 -189 471 -177 q 435 -209 446 -201 q 366 -263 400 -235 z "},"Ɲ":{"ha":572,"x_min":-28,"x_max":484,"o":"m 22 -263 q -15 -252 -1 -263 q -28 -220 -28 -241 q -17 -189 -28 -203 q 15 -165 -5 -174 q 57 -142 43 -151 q 83 -117 72 -132 q 95 -77 95 -100 l 96 -28 l 96 22 l 92 120 q 83 353 92 197 q 75 551 75 509 l 75 728 q 79 855 75 777 q 84 983 84 934 l 84 991 q 115 1061 84 1061 q 161 1000 134 1061 q 277 642 208 900 q 372 256 317 495 l 394 159 l 395 153 q 398 395 395 251 q 401 637 401 538 l 401 1048 q 446 1082 409 1082 q 484 1028 484 1082 l 484 1020 q 475 979 475 1003 q 471 723 475 895 q 467 466 467 562 l 467 41 q 455 0 467 20 q 427 -20 443 -20 q 313 266 397 -20 q 145 880 224 567 l 145 425 q 155 227 145 358 q 165 28 165 90 l 165 -5 q 161 -82 165 -59 q 159 -103 161 -87 q 154 -127 157 -118 q 146 -146 151 -137 q 133 -170 138 -163 q 115 -189 127 -177 q 91 -209 102 -201 q 22 -263 71 -222 z "},"ǋ":{"ha":924,"x_min":75,"x_max":890,"o":"m 427 -20 q 313 266 397 -20 q 145 880 224 567 l 145 425 q 155 227 145 358 q 165 28 165 90 q 150 7 165 16 q 116 -1 134 -1 q 85 20 85 -1 q 89 62 85 26 q 92 120 92 98 q 83 353 92 197 q 75 551 75 509 l 75 728 q 79 855 75 777 q 84 983 84 934 l 84 991 q 115 1061 84 1061 q 161 1000 134 1061 q 277 642 208 900 q 372 256 317 495 l 394 159 l 395 153 q 398 395 395 251 q 401 637 401 538 l 401 1048 q 446 1082 409 1082 q 484 1028 484 1082 l 484 1020 q 475 979 475 1003 q 471 723 475 895 q 467 466 467 562 l 467 41 q 455 0 467 20 q 427 -20 443 -20 m 585 -131 q 568 -114 568 -131 q 569 -102 568 -108 q 570 -91 570 -98 q 589 -77 570 -84 q 643 -56 620 -66 q 680 -31 667 -45 q 720 127 720 13 q 712 481 720 234 q 704 836 704 713 l 704 842 l 686 844 l 670 845 q 630 852 647 846 q 602 865 609 857 q 597 876 597 871 q 612 899 597 889 q 643 908 627 908 q 801 899 712 908 q 890 877 890 890 q 880 853 890 863 q 852 844 869 844 l 781 844 q 789 552 781 758 q 795 259 795 364 l 795 111 q 794 70 795 87 q 788 28 793 52 q 774 -18 783 2 q 750 -60 766 -39 q 712 -97 734 -83 q 658 -121 690 -112 q 585 -131 623 -131 z "},"Ñ":{"ha":572,"x_min":75,"x_max":484,"o":"m 427 -20 q 313 266 397 -20 q 145 880 224 567 l 145 425 q 155 227 145 358 q 165 28 165 90 q 150 7 165 16 q 116 -1 134 -1 q 85 20 85 -1 q 89 62 85 26 q 92 120 92 98 q 83 353 92 197 q 75 551 75 509 l 75 728 q 79 855 75 777 q 84 983 84 934 l 84 991 q 115 1061 84 1061 q 161 1000 134 1061 q 277 642 208 900 q 372 256 317 495 l 394 159 l 395 153 q 398 395 395 251 q 401 637 401 538 l 401 1048 q 446 1082 409 1082 q 484 1028 484 1082 l 484 1020 q 475 979 475 1003 q 471 723 475 895 q 467 466 467 562 l 467 41 q 455 0 467 20 q 427 -20 443 -20 m 358 1081 q 299 1090 324 1081 q 264 1111 275 1099 q 210 1140 241 1140 q 196 1129 200 1136 q 194 1114 193 1122 q 191 1098 195 1105 q 174 1086 186 1090 q 138 1097 153 1086 q 124 1126 124 1107 q 152 1184 124 1160 q 224 1207 179 1207 q 285 1179 241 1207 q 342 1151 329 1151 q 362 1159 355 1151 q 372 1179 370 1167 q 381 1198 374 1190 q 402 1206 389 1206 q 436 1196 424 1206 q 448 1171 448 1185 q 435 1126 448 1147 q 402 1093 423 1105 q 358 1081 382 1081 z "},"O":{"ha":494,"x_min":61,"x_max":419,"o":"m 265 -39 q 197 -14 229 -39 q 144 54 165 12 q 109 148 125 92 q 85 259 94 203 q 72 366 77 308 q 64 469 66 424 q 63 542 63 520 q 62 616 63 580 l 61 704 q 68 852 61 787 q 96 983 75 925 q 123 1032 108 1013 q 160 1063 138 1051 q 210 1075 183 1075 q 275 1060 245 1075 q 326 1017 305 1045 q 364 951 349 985 q 389 871 380 916 q 406 777 400 818 q 414 684 412 735 q 419 499 419 582 l 419 419 q 413 330 419 389 q 407 243 407 273 l 407 237 q 398 146 398 200 q 382 66 398 107 q 335 -6 366 24 q 265 -39 304 -39 m 268 37 q 315 90 296 37 q 340 204 332 136 q 353 351 349 272 q 356 443 356 399 q 354 571 356 505 q 338 758 351 645 q 296 928 326 851 q 261 983 282 964 q 216 1002 241 1002 q 165 947 184 1002 q 138 823 144 886 q 127 682 129 739 l 127 656 q 125 584 125 591 l 125 578 q 144 349 125 486 q 171 195 155 260 q 210 85 186 130 q 268 37 236 37 z "},"Ó":{"ha":494,"x_min":61,"x_max":419,"o":"m 265 -39 q 197 -14 229 -39 q 144 54 165 12 q 109 148 125 92 q 85 259 94 203 q 72 366 77 308 q 64 469 66 424 q 63 542 63 520 q 62 616 63 580 l 61 704 q 68 852 61 787 q 96 983 75 925 q 123 1032 108 1013 q 160 1063 138 1051 q 210 1075 183 1075 q 275 1060 245 1075 q 326 1017 305 1045 q 364 951 349 985 q 389 871 380 916 q 406 777 400 818 q 414 684 412 735 q 419 499 419 582 l 419 419 q 413 330 419 389 q 407 243 407 273 l 407 237 q 398 146 398 200 q 382 66 398 107 q 335 -6 366 24 q 265 -39 304 -39 m 268 37 q 315 90 296 37 q 340 204 332 136 q 353 351 349 272 q 356 443 356 399 q 354 571 356 505 q 338 758 351 645 q 296 928 326 851 q 261 983 282 964 q 216 1002 241 1002 q 165 947 184 1002 q 138 823 144 886 q 127 682 129 739 l 127 656 q 125 584 125 591 l 125 578 q 144 349 125 486 q 171 195 155 260 q 210 85 186 130 q 268 37 236 37 m 195 1097 q 180 1102 186 1097 q 173 1115 173 1107 q 180 1129 173 1122 q 280 1217 212 1159 q 362 1288 345 1271 q 374 1291 370 1291 q 405 1274 390 1291 q 419 1238 419 1257 q 409 1217 419 1224 q 207 1099 353 1176 q 195 1097 202 1097 z "},"Ŏ":{"ha":494,"x_min":61,"x_max":419,"o":"m 265 -39 q 197 -14 229 -39 q 144 54 165 12 q 109 148 125 92 q 85 259 94 203 q 72 366 77 308 q 64 469 66 424 q 63 542 63 520 q 62 616 63 580 l 61 704 q 68 852 61 787 q 96 983 75 925 q 123 1032 108 1013 q 160 1063 138 1051 q 210 1075 183 1075 q 275 1060 245 1075 q 326 1017 305 1045 q 364 951 349 985 q 389 871 380 916 q 406 777 400 818 q 414 684 412 735 q 419 499 419 582 l 419 419 q 413 330 419 389 q 407 243 407 273 l 407 237 q 398 146 398 200 q 382 66 398 107 q 335 -6 366 24 q 265 -39 304 -39 m 268 37 q 315 90 296 37 q 340 204 332 136 q 353 351 349 272 q 356 443 356 399 q 354 571 356 505 q 338 758 351 645 q 296 928 326 851 q 261 983 282 964 q 216 1002 241 1002 q 165 947 184 1002 q 138 823 144 886 q 127 682 129 739 l 127 656 q 125 584 125 591 l 125 578 q 144 349 125 486 q 171 195 155 260 q 210 85 186 130 q 268 37 236 37 m 245 1119 q 190 1134 214 1119 q 153 1174 165 1148 q 128 1284 128 1221 q 135 1299 128 1293 q 154 1305 142 1305 q 182 1288 169 1305 q 202 1244 195 1270 q 219 1201 209 1219 q 241 1183 230 1183 q 276 1204 264 1183 q 289 1247 289 1225 q 297 1287 289 1275 q 328 1299 305 1299 q 354 1289 342 1299 q 365 1264 365 1278 q 362 1230 365 1241 q 322 1149 351 1180 q 245 1119 293 1119 z "},"Ǒ":{"ha":494,"x_min":61,"x_max":419,"o":"m 265 -39 q 197 -14 229 -39 q 144 54 165 12 q 109 148 125 92 q 85 259 94 203 q 72 366 77 308 q 64 469 66 424 q 63 542 63 520 q 62 616 63 580 l 61 704 q 68 852 61 787 q 96 983 75 925 q 123 1032 108 1013 q 160 1063 138 1051 q 210 1075 183 1075 q 275 1060 245 1075 q 326 1017 305 1045 q 364 951 349 985 q 389 871 380 916 q 406 777 400 818 q 414 684 412 735 q 419 499 419 582 l 419 419 q 413 330 419 389 q 407 243 407 273 l 407 237 q 398 146 398 200 q 382 66 398 107 q 335 -6 366 24 q 265 -39 304 -39 m 268 37 q 315 90 296 37 q 340 204 332 136 q 353 351 349 272 q 356 443 356 399 q 354 571 356 505 q 338 758 351 645 q 296 928 326 851 q 261 983 282 964 q 216 1002 241 1002 q 165 947 184 1002 q 138 823 144 886 q 127 682 129 739 l 127 656 q 125 584 125 591 l 125 578 q 144 349 125 486 q 171 195 155 260 q 210 85 186 130 q 268 37 236 37 m 233 1107 q 186 1160 216 1107 q 132 1279 157 1214 q 108 1371 108 1345 q 118 1389 108 1381 q 141 1397 128 1397 q 175 1358 158 1397 q 210 1254 191 1320 l 228 1190 q 234 1237 231 1205 q 241 1294 237 1267 q 250 1345 245 1322 q 289 1402 262 1402 q 310 1394 302 1402 q 318 1373 318 1386 q 313 1362 318 1369 q 308 1352 309 1356 l 308 1326 l 288 1251 q 269 1152 269 1173 q 233 1107 269 1107 z "},"Ô":{"ha":494,"x_min":61,"x_max":419,"o":"m 265 -39 q 197 -14 229 -39 q 144 54 165 12 q 109 148 125 92 q 85 259 94 203 q 72 366 77 308 q 64 469 66 424 q 63 542 63 520 q 62 616 63 580 l 61 704 q 68 852 61 787 q 96 983 75 925 q 123 1032 108 1013 q 160 1063 138 1051 q 210 1075 183 1075 q 275 1060 245 1075 q 326 1017 305 1045 q 364 951 349 985 q 389 871 380 916 q 406 777 400 818 q 414 684 412 735 q 419 499 419 582 l 419 419 q 413 330 419 389 q 407 243 407 273 l 407 237 q 398 146 398 200 q 382 66 398 107 q 335 -6 366 24 q 265 -39 304 -39 m 268 37 q 315 90 296 37 q 340 204 332 136 q 353 351 349 272 q 356 443 356 399 q 354 571 356 505 q 338 758 351 645 q 296 928 326 851 q 261 983 282 964 q 216 1002 241 1002 q 165 947 184 1002 q 138 823 144 886 q 127 682 129 739 l 127 656 q 125 584 125 591 l 125 578 q 144 349 125 486 q 171 195 155 260 q 210 85 186 130 q 268 37 236 37 m 329 1095 q 311 1105 315 1095 l 257 1292 l 187 1114 q 168 1105 183 1105 q 143 1112 153 1105 q 132 1132 132 1120 q 135 1145 132 1139 q 172 1235 159 1203 l 184 1267 q 218 1341 207 1322 q 250 1374 234 1367 q 269 1377 258 1377 q 288 1364 279 1377 q 323 1270 304 1341 l 341 1203 q 359 1137 348 1176 q 361 1124 361 1130 q 351 1103 361 1111 q 329 1095 342 1095 z "},"Ố":{"ha":494,"x_min":61,"x_max":556,"o":"m 265 -39 q 197 -14 229 -39 q 144 54 165 12 q 109 148 125 92 q 85 259 94 203 q 72 366 77 308 q 64 469 66 424 q 63 542 63 520 q 62 616 63 580 l 61 704 q 68 852 61 787 q 96 983 75 925 q 123 1032 108 1013 q 160 1063 138 1051 q 210 1075 183 1075 q 275 1060 245 1075 q 326 1017 305 1045 q 364 951 349 985 q 389 871 380 916 q 406 777 400 818 q 414 684 412 735 q 419 499 419 582 l 419 419 q 413 330 419 389 q 407 243 407 273 l 407 237 q 398 146 398 200 q 382 66 398 107 q 335 -6 366 24 q 265 -39 304 -39 m 268 37 q 315 90 296 37 q 340 204 332 136 q 353 351 349 272 q 356 443 356 399 q 354 571 356 505 q 338 758 351 645 q 296 928 326 851 q 261 983 282 964 q 216 1002 241 1002 q 165 947 184 1002 q 138 823 144 886 q 127 682 129 739 l 127 656 q 125 584 125 591 l 125 578 q 144 349 125 486 q 171 195 155 260 q 210 85 186 130 q 268 37 236 37 m 294 1088 q 277 1098 280 1088 l 222 1285 l 153 1107 q 133 1098 149 1098 q 108 1105 119 1098 q 98 1125 98 1113 q 100 1138 98 1133 q 137 1228 125 1196 l 150 1261 q 183 1334 172 1316 q 215 1367 199 1360 q 234 1371 224 1371 q 254 1357 244 1371 q 289 1263 269 1335 l 307 1196 q 324 1130 313 1169 q 326 1118 326 1123 q 317 1096 326 1104 q 294 1088 307 1088 m 332 1238 q 317 1244 323 1238 q 310 1257 310 1249 q 317 1271 310 1263 q 417 1358 349 1301 q 499 1430 481 1413 q 511 1432 507 1432 q 542 1415 527 1432 q 556 1380 556 1398 q 546 1358 556 1366 q 344 1241 490 1318 q 332 1238 339 1238 z "},"Ộ":{"ha":494,"x_min":61,"x_max":419,"o":"m 265 -39 q 197 -14 229 -39 q 144 54 165 12 q 109 148 125 92 q 85 259 94 203 q 72 366 77 308 q 64 469 66 424 q 63 542 63 520 q 62 616 63 580 l 61 704 q 68 852 61 787 q 96 983 75 925 q 123 1032 108 1013 q 160 1063 138 1051 q 210 1075 183 1075 q 275 1060 245 1075 q 326 1017 305 1045 q 364 951 349 985 q 389 871 380 916 q 406 777 400 818 q 414 684 412 735 q 419 499 419 582 l 419 419 q 413 330 419 389 q 407 243 407 273 l 407 237 q 398 146 398 200 q 382 66 398 107 q 335 -6 366 24 q 265 -39 304 -39 m 268 37 q 315 90 296 37 q 340 204 332 136 q 353 351 349 272 q 356 443 356 399 q 354 571 356 505 q 338 758 351 645 q 296 928 326 851 q 261 983 282 964 q 216 1002 241 1002 q 165 947 184 1002 q 138 823 144 886 q 127 682 129 739 l 127 656 q 125 584 125 591 l 125 578 q 144 349 125 486 q 171 195 155 260 q 210 85 186 130 q 268 37 236 37 m 329 1095 q 311 1105 315 1095 l 257 1292 l 187 1114 q 168 1105 183 1105 q 143 1112 153 1105 q 132 1132 132 1120 q 135 1145 132 1139 q 172 1235 159 1203 l 184 1267 q 218 1341 207 1322 q 250 1374 234 1367 q 269 1377 258 1377 q 288 1364 279 1377 q 323 1270 304 1341 l 341 1203 q 359 1137 348 1176 q 361 1124 361 1130 q 351 1103 361 1111 q 329 1095 342 1095 m 243 -234 q 210 -219 224 -234 q 196 -184 196 -203 q 212 -147 196 -163 q 248 -131 227 -131 q 283 -147 268 -131 q 298 -183 298 -163 q 282 -220 298 -205 q 243 -234 267 -234 z "},"Ồ":{"ha":494,"x_min":-111,"x_max":419,"o":"m 102 1212 q 34 1257 88 1217 q -66 1336 -21 1297 q -109 1382 -111 1375 q -87 1407 -104 1395 q -56 1419 -71 1419 q -47 1417 -52 1419 q 5 1367 -39 1414 q 83 1274 48 1320 q 115 1217 119 1228 q 102 1212 112 1208 m 296 1088 q 279 1098 282 1088 l 224 1285 l 155 1107 q 135 1098 151 1098 q 110 1105 121 1098 q 100 1125 100 1113 q 102 1138 100 1133 q 139 1228 127 1196 l 152 1261 q 185 1334 174 1316 q 217 1367 201 1360 q 236 1371 226 1371 q 256 1357 246 1371 q 291 1263 271 1335 l 309 1196 q 326 1130 315 1169 q 328 1118 328 1123 q 319 1096 328 1104 q 296 1088 309 1088 m 265 -39 q 197 -14 229 -39 q 144 54 165 12 q 109 148 125 92 q 85 259 94 203 q 72 366 77 308 q 64 469 66 424 q 63 542 63 520 q 62 616 63 580 l 61 704 q 68 852 61 787 q 96 983 75 925 q 123 1032 108 1013 q 160 1063 138 1051 q 210 1075 183 1075 q 275 1060 245 1075 q 326 1017 305 1045 q 364 951 349 985 q 389 871 380 916 q 406 777 400 818 q 414 684 412 735 q 419 499 419 582 l 419 419 q 413 330 419 389 q 407 243 407 273 l 407 237 q 398 146 398 200 q 382 66 398 107 q 335 -6 366 24 q 265 -39 304 -39 m 268 37 q 315 90 296 37 q 340 204 332 136 q 353 351 349 272 q 356 443 356 399 q 354 571 356 505 q 338 758 351 645 q 296 928 326 851 q 261 983 282 964 q 216 1002 241 1002 q 165 947 184 1002 q 138 823 144 886 q 127 682 129 739 l 127 656 q 125 584 125 591 l 125 578 q 144 349 125 486 q 171 195 155 260 q 210 85 186 130 q 268 37 236 37 z "},"Ổ":{"ha":494,"x_min":61,"x_max":591,"o":"m 265 -39 q 197 -14 229 -39 q 144 54 165 12 q 109 148 125 92 q 85 259 94 203 q 72 366 77 308 q 64 469 66 424 q 63 542 63 520 q 62 616 63 580 l 61 704 q 68 852 61 787 q 96 983 75 925 q 123 1032 108 1013 q 160 1063 138 1051 q 210 1075 183 1075 q 275 1060 245 1075 q 326 1017 305 1045 q 364 951 349 985 q 389 871 380 916 q 406 777 400 818 q 414 684 412 735 q 419 499 419 582 l 419 419 q 413 330 419 389 q 407 243 407 273 l 407 237 q 398 146 398 200 q 382 66 398 107 q 335 -6 366 24 q 265 -39 304 -39 m 268 37 q 315 90 296 37 q 340 204 332 136 q 353 351 349 272 q 356 443 356 399 q 354 571 356 505 q 338 758 351 645 q 296 928 326 851 q 261 983 282 964 q 216 1002 241 1002 q 165 947 184 1002 q 138 823 144 886 q 127 682 129 739 l 127 656 q 125 584 125 591 l 125 578 q 144 349 125 486 q 171 195 155 260 q 210 85 186 130 q 268 37 236 37 m 309 1088 q 291 1098 294 1088 l 237 1285 l 167 1107 q 147 1098 163 1098 q 122 1105 133 1098 q 112 1125 112 1113 q 115 1138 112 1133 q 151 1228 139 1196 l 164 1261 q 197 1334 186 1316 q 229 1367 214 1360 q 248 1371 238 1371 q 268 1357 258 1371 q 303 1263 283 1335 l 321 1196 q 338 1130 328 1169 q 340 1118 340 1123 q 331 1096 340 1104 q 309 1088 321 1088 m 432 1227 q 399 1249 408 1227 q 411 1297 399 1280 q 438 1321 422 1314 q 479 1332 454 1327 q 509 1341 500 1337 q 518 1357 518 1345 q 498 1392 518 1377 q 444 1406 479 1406 q 393 1395 411 1406 q 374 1365 374 1383 q 384 1352 374 1364 q 377 1343 384 1351 q 361 1330 370 1336 q 346 1324 353 1324 q 317 1333 328 1324 q 307 1354 307 1343 l 307 1367 q 341 1439 307 1413 q 441 1466 375 1466 q 559 1433 528 1466 q 591 1357 591 1400 q 579 1316 591 1331 q 553 1296 568 1301 q 513 1284 537 1290 q 477 1274 488 1279 q 467 1255 467 1268 l 467 1232 q 439 1230 441 1232 q 432 1227 435 1227 z "},"Ỗ":{"ha":494,"x_min":61,"x_max":419,"o":"m 265 -39 q 197 -14 229 -39 q 144 54 165 12 q 109 148 125 92 q 85 259 94 203 q 72 366 77 308 q 64 469 66 424 q 63 542 63 520 q 62 616 63 580 l 61 704 q 68 852 61 787 q 96 983 75 925 q 123 1032 108 1013 q 160 1063 138 1051 q 210 1075 183 1075 q 275 1060 245 1075 q 326 1017 305 1045 q 364 951 349 985 q 389 871 380 916 q 406 777 400 818 q 414 684 412 735 q 419 499 419 582 l 419 419 q 413 330 419 389 q 407 243 407 273 l 407 237 q 398 146 398 200 q 382 66 398 107 q 335 -6 366 24 q 265 -39 304 -39 m 268 37 q 315 90 296 37 q 340 204 332 136 q 353 351 349 272 q 356 443 356 399 q 354 571 356 505 q 338 758 351 645 q 296 928 326 851 q 261 983 282 964 q 216 1002 241 1002 q 165 947 184 1002 q 138 823 144 886 q 127 682 129 739 l 127 656 q 125 584 125 591 l 125 578 q 144 349 125 486 q 171 195 155 260 q 210 85 186 130 q 268 37 236 37 m 329 1095 q 311 1105 315 1095 l 257 1292 l 187 1114 q 168 1105 183 1105 q 143 1112 153 1105 q 132 1132 132 1120 q 135 1145 132 1139 q 172 1235 159 1203 l 184 1267 q 218 1341 207 1322 q 250 1374 234 1367 q 269 1377 258 1377 q 288 1364 279 1377 q 323 1270 304 1341 l 341 1203 q 359 1137 348 1176 q 361 1124 361 1130 q 351 1103 361 1111 q 329 1095 342 1095 m 319 1406 q 260 1415 285 1406 q 225 1436 235 1423 q 171 1465 201 1465 q 157 1454 161 1461 q 155 1438 153 1447 q 151 1423 156 1430 q 135 1411 146 1415 q 99 1422 113 1411 q 85 1451 85 1432 q 112 1509 85 1485 q 185 1532 140 1532 q 245 1504 201 1532 q 302 1476 290 1476 q 323 1484 315 1476 q 332 1503 330 1492 q 342 1523 334 1515 q 363 1531 350 1531 q 396 1521 385 1531 q 408 1495 408 1510 q 396 1451 408 1472 q 363 1418 384 1430 q 319 1406 342 1406 z "},"Ȍ":{"ha":494,"x_min":12,"x_max":419,"o":"m 265 -39 q 197 -14 229 -39 q 144 54 165 12 q 109 148 125 92 q 85 259 94 203 q 72 366 77 308 q 64 469 66 424 q 63 542 63 520 q 62 616 63 580 l 61 704 q 68 852 61 787 q 96 983 75 925 q 123 1032 108 1013 q 160 1063 138 1051 q 210 1075 183 1075 q 275 1060 245 1075 q 326 1017 305 1045 q 364 951 349 985 q 389 871 380 916 q 406 777 400 818 q 414 684 412 735 q 419 499 419 582 l 419 419 q 413 330 419 389 q 407 243 407 273 l 407 237 q 398 146 398 200 q 382 66 398 107 q 335 -6 366 24 q 265 -39 304 -39 m 268 37 q 315 90 296 37 q 340 204 332 136 q 353 351 349 272 q 356 443 356 399 q 354 571 356 505 q 338 758 351 645 q 296 928 326 851 q 261 983 282 964 q 216 1002 241 1002 q 165 947 184 1002 q 138 823 144 886 q 127 682 129 739 l 127 656 q 125 584 125 591 l 125 578 q 144 349 125 486 q 171 195 155 260 q 210 85 186 130 q 268 37 236 37 m 239 1109 q 25 1310 29 1305 l 12 1333 q 28 1358 16 1348 q 53 1369 39 1369 q 114 1314 64 1369 q 209 1199 165 1258 q 252 1126 252 1139 q 239 1109 252 1109 m 405 1099 q 269 1252 333 1166 q 228 1329 228 1305 q 239 1342 228 1336 q 263 1348 251 1348 q 309 1297 272 1348 q 379 1187 345 1245 q 414 1113 412 1130 l 405 1099 z "},"Ö":{"ha":494,"x_min":61,"x_max":419,"o":"m 265 -39 q 197 -14 229 -39 q 144 54 165 12 q 109 148 125 92 q 85 259 94 203 q 72 366 77 308 q 64 469 66 424 q 63 542 63 520 q 62 616 63 580 l 61 704 q 68 852 61 787 q 96 983 75 925 q 123 1032 108 1013 q 160 1063 138 1051 q 210 1075 183 1075 q 275 1060 245 1075 q 326 1017 305 1045 q 364 951 349 985 q 389 871 380 916 q 406 777 400 818 q 414 684 412 735 q 419 499 419 582 l 419 419 q 413 330 419 389 q 407 243 407 273 l 407 237 q 398 146 398 200 q 382 66 398 107 q 335 -6 366 24 q 265 -39 304 -39 m 268 37 q 315 90 296 37 q 340 204 332 136 q 353 351 349 272 q 356 443 356 399 q 354 571 356 505 q 338 758 351 645 q 296 928 326 851 q 261 983 282 964 q 216 1002 241 1002 q 165 947 184 1002 q 138 823 144 886 q 127 682 129 739 l 127 656 q 125 584 125 591 l 125 578 q 144 349 125 486 q 171 195 155 260 q 210 85 186 130 q 268 37 236 37 m 131 1109 q 98 1124 113 1109 q 84 1158 84 1139 q 100 1196 84 1179 q 136 1212 115 1212 q 171 1196 156 1212 q 186 1160 186 1180 q 171 1123 186 1137 q 131 1109 155 1109 m 355 1102 q 322 1117 336 1102 q 308 1152 308 1133 q 323 1189 308 1173 q 360 1205 339 1205 q 395 1189 380 1205 q 410 1153 410 1173 q 394 1116 410 1131 q 355 1102 379 1102 z "},"Ȫ":{"ha":494,"x_min":53,"x_max":441,"o":"m 265 -39 q 197 -14 229 -39 q 144 54 165 12 q 109 148 125 92 q 85 259 94 203 q 72 366 77 308 q 64 469 66 424 q 63 542 63 520 q 62 616 63 580 l 61 704 q 68 852 61 787 q 96 983 75 925 q 123 1032 108 1013 q 160 1063 138 1051 q 210 1075 183 1075 q 275 1060 245 1075 q 326 1017 305 1045 q 364 951 349 985 q 389 871 380 916 q 406 777 400 818 q 414 684 412 735 q 419 499 419 582 l 419 419 q 413 330 419 389 q 407 243 407 273 l 407 237 q 398 146 398 200 q 382 66 398 107 q 335 -6 366 24 q 265 -39 304 -39 m 268 37 q 315 90 296 37 q 340 204 332 136 q 353 351 349 272 q 356 443 356 399 q 354 571 356 505 q 338 758 351 645 q 296 928 326 851 q 261 983 282 964 q 216 1002 241 1002 q 165 947 184 1002 q 138 823 144 886 q 127 682 129 739 l 127 656 q 125 584 125 591 l 125 578 q 144 349 125 486 q 171 195 155 260 q 210 85 186 130 q 268 37 236 37 m 131 1109 q 98 1124 113 1109 q 84 1158 84 1139 q 100 1196 84 1179 q 136 1212 115 1212 q 171 1196 156 1212 q 186 1160 186 1180 q 171 1123 186 1137 q 131 1109 155 1109 m 355 1102 q 322 1117 336 1102 q 308 1152 308 1133 q 323 1189 308 1173 q 360 1205 339 1205 q 395 1189 380 1205 q 410 1153 410 1173 q 394 1116 410 1131 q 355 1102 379 1102 m 109 1289 q 53 1333 53 1289 q 61 1355 53 1347 q 84 1364 70 1364 l 288 1364 q 331 1367 306 1364 q 374 1369 359 1369 q 441 1327 441 1369 q 430 1303 441 1312 q 401 1295 419 1295 q 255 1292 363 1295 q 109 1289 145 1289 z "},"Ȯ":{"ha":494,"x_min":61,"x_max":419,"o":"m 265 -39 q 197 -14 229 -39 q 144 54 165 12 q 109 148 125 92 q 85 259 94 203 q 72 366 77 308 q 64 469 66 424 q 63 542 63 520 q 62 616 63 580 l 61 704 q 68 852 61 787 q 96 983 75 925 q 123 1032 108 1013 q 160 1063 138 1051 q 210 1075 183 1075 q 275 1060 245 1075 q 326 1017 305 1045 q 364 951 349 985 q 389 871 380 916 q 406 777 400 818 q 414 684 412 735 q 419 499 419 582 l 419 419 q 413 330 419 389 q 407 243 407 273 l 407 237 q 398 146 398 200 q 382 66 398 107 q 335 -6 366 24 q 265 -39 304 -39 m 268 37 q 315 90 296 37 q 340 204 332 136 q 353 351 349 272 q 356 443 356 399 q 354 571 356 505 q 338 758 351 645 q 296 928 326 851 q 261 983 282 964 q 216 1002 241 1002 q 165 947 184 1002 q 138 823 144 886 q 127 682 129 739 l 127 656 q 125 584 125 591 l 125 578 q 144 349 125 486 q 171 195 155 260 q 210 85 186 130 q 268 37 236 37 m 209 1130 q 176 1145 191 1130 q 162 1179 162 1160 q 178 1217 162 1200 q 214 1233 193 1233 q 249 1217 234 1233 q 264 1181 264 1201 q 249 1144 264 1158 q 209 1130 233 1130 z "},"Ȱ":{"ha":494,"x_min":20,"x_max":419,"o":"m 265 -39 q 197 -14 229 -39 q 144 54 165 12 q 109 148 125 92 q 85 259 94 203 q 72 366 77 308 q 64 469 66 424 q 63 542 63 520 q 62 616 63 580 l 61 704 q 68 852 61 787 q 96 983 75 925 q 123 1032 108 1013 q 160 1063 138 1051 q 210 1075 183 1075 q 275 1060 245 1075 q 326 1017 305 1045 q 364 951 349 985 q 389 871 380 916 q 406 777 400 818 q 414 684 412 735 q 419 499 419 582 l 419 419 q 413 330 419 389 q 407 243 407 273 l 407 237 q 398 146 398 200 q 382 66 398 107 q 335 -6 366 24 q 265 -39 304 -39 m 268 37 q 315 90 296 37 q 340 204 332 136 q 353 351 349 272 q 356 443 356 399 q 354 571 356 505 q 338 758 351 645 q 296 928 326 851 q 261 983 282 964 q 216 1002 241 1002 q 165 947 184 1002 q 138 823 144 886 q 127 682 129 739 l 127 656 q 125 584 125 591 l 125 578 q 144 349 125 486 q 171 195 155 260 q 210 85 186 130 q 268 37 236 37 m 209 1130 q 176 1145 191 1130 q 162 1179 162 1160 q 178 1217 162 1200 q 214 1233 193 1233 q 249 1217 234 1233 q 264 1181 264 1201 q 249 1144 264 1158 q 209 1130 233 1130 m 76 1294 q 20 1338 20 1294 q 29 1361 20 1352 q 52 1369 37 1369 l 256 1369 q 298 1372 273 1369 q 341 1374 327 1374 q 408 1333 408 1374 q 397 1309 408 1317 q 369 1301 387 1301 q 222 1297 331 1301 q 76 1294 113 1294 z "},"Ọ":{"ha":494,"x_min":61,"x_max":419,"o":"m 265 -39 q 197 -14 229 -39 q 144 54 165 12 q 109 148 125 92 q 85 259 94 203 q 72 366 77 308 q 64 469 66 424 q 63 542 63 520 q 62 616 63 580 l 61 704 q 68 852 61 787 q 96 983 75 925 q 123 1032 108 1013 q 160 1063 138 1051 q 210 1075 183 1075 q 275 1060 245 1075 q 326 1017 305 1045 q 364 951 349 985 q 389 871 380 916 q 406 777 400 818 q 414 684 412 735 q 419 499 419 582 l 419 419 q 413 330 419 389 q 407 243 407 273 l 407 237 q 398 146 398 200 q 382 66 398 107 q 335 -6 366 24 q 265 -39 304 -39 m 268 37 q 315 90 296 37 q 340 204 332 136 q 353 351 349 272 q 356 443 356 399 q 354 571 356 505 q 338 758 351 645 q 296 928 326 851 q 261 983 282 964 q 216 1002 241 1002 q 165 947 184 1002 q 138 823 144 886 q 127 682 129 739 l 127 656 q 125 584 125 591 l 125 578 q 144 349 125 486 q 171 195 155 260 q 210 85 186 130 q 268 37 236 37 m 243 -234 q 210 -219 224 -234 q 196 -184 196 -203 q 212 -147 196 -163 q 248 -131 227 -131 q 283 -147 268 -131 q 298 -183 298 -163 q 282 -220 298 -205 q 243 -234 267 -234 z "},"Ò":{"ha":494,"x_min":18,"x_max":419,"o":"m 265 -39 q 197 -14 229 -39 q 144 54 165 12 q 109 148 125 92 q 85 259 94 203 q 72 366 77 308 q 64 469 66 424 q 63 542 63 520 q 62 616 63 580 l 61 704 q 68 852 61 787 q 96 983 75 925 q 123 1032 108 1013 q 160 1063 138 1051 q 210 1075 183 1075 q 275 1060 245 1075 q 326 1017 305 1045 q 364 951 349 985 q 389 871 380 916 q 406 777 400 818 q 414 684 412 735 q 419 499 419 582 l 419 419 q 413 330 419 389 q 407 243 407 273 l 407 237 q 398 146 398 200 q 382 66 398 107 q 335 -6 366 24 q 265 -39 304 -39 m 268 37 q 315 90 296 37 q 340 204 332 136 q 353 351 349 272 q 356 443 356 399 q 354 571 356 505 q 338 758 351 645 q 296 928 326 851 q 261 983 282 964 q 216 1002 241 1002 q 165 947 184 1002 q 138 823 144 886 q 127 682 129 739 l 127 656 q 125 584 125 591 l 125 578 q 144 349 125 486 q 171 195 155 260 q 210 85 186 130 q 268 37 236 37 m 275 1102 q 195 1121 260 1102 q 74 1161 130 1140 q 18 1190 18 1182 q 25 1213 18 1200 q 43 1235 33 1226 q 64 1244 54 1244 q 130 1214 73 1244 q 236 1154 187 1185 q 285 1112 285 1122 q 275 1102 285 1102 z "},"Ỏ":{"ha":494,"x_min":61,"x_max":419,"o":"m 265 -39 q 197 -14 229 -39 q 144 54 165 12 q 109 148 125 92 q 85 259 94 203 q 72 366 77 308 q 64 469 66 424 q 63 542 63 520 q 62 616 63 580 l 61 704 q 68 852 61 787 q 96 983 75 925 q 123 1032 108 1013 q 160 1063 138 1051 q 210 1075 183 1075 q 275 1060 245 1075 q 326 1017 305 1045 q 364 951 349 985 q 389 871 380 916 q 406 777 400 818 q 414 684 412 735 q 419 499 419 582 l 419 419 q 413 330 419 389 q 407 243 407 273 l 407 237 q 398 146 398 200 q 382 66 398 107 q 335 -6 366 24 q 265 -39 304 -39 m 268 37 q 315 90 296 37 q 340 204 332 136 q 353 351 349 272 q 356 443 356 399 q 354 571 356 505 q 338 758 351 645 q 296 928 326 851 q 261 983 282 964 q 216 1002 241 1002 q 165 947 184 1002 q 138 823 144 886 q 127 682 129 739 l 127 656 q 125 584 125 591 l 125 578 q 144 349 125 486 q 171 195 155 260 q 210 85 186 130 q 268 37 236 37 m 216 1104 q 184 1125 192 1104 q 195 1174 184 1156 q 223 1197 207 1191 q 263 1208 239 1204 q 293 1218 284 1213 q 302 1234 302 1222 q 283 1268 302 1254 q 228 1282 263 1282 q 177 1271 195 1282 q 159 1242 159 1260 q 168 1229 159 1240 q 161 1220 168 1227 q 146 1206 155 1213 q 130 1200 137 1200 q 101 1210 112 1200 q 91 1231 91 1219 l 91 1244 q 125 1316 91 1290 q 225 1342 159 1342 q 343 1310 312 1342 q 375 1234 375 1277 q 364 1193 375 1208 q 337 1172 353 1178 q 297 1161 321 1166 q 262 1150 273 1156 q 251 1132 251 1145 l 251 1108 q 223 1106 226 1108 q 216 1104 219 1104 z "},"Ơ":{"ha":516,"x_min":61,"x_max":489,"o":"m 489 1128 q 468 1061 489 1090 q 415 1018 448 1033 q 349 1003 383 1003 q 335 1004 340 1003 q 389 871 373 946 q 406 777 400 818 q 414 684 412 735 q 419 499 419 582 l 419 419 q 413 330 419 389 q 407 243 407 273 l 407 237 q 398 146 398 200 q 382 66 398 107 q 335 -6 366 24 q 265 -39 304 -39 q 197 -14 229 -39 q 144 54 165 12 q 109 148 125 92 q 85 259 94 203 q 72 366 77 308 q 64 469 66 424 q 63 542 63 520 q 62 616 63 580 l 61 704 q 68 852 61 787 q 96 983 75 925 q 123 1032 108 1013 q 160 1063 138 1051 q 210 1075 183 1075 q 250 1069 229 1075 l 250 1071 q 294 1065 262 1068 q 336 1062 325 1062 q 386 1074 373 1062 q 399 1107 399 1085 q 392 1140 399 1121 q 387 1160 387 1153 q 400 1178 387 1172 q 435 1184 414 1184 q 476 1170 463 1184 q 489 1128 489 1156 m 354 571 q 338 758 351 645 q 296 928 326 851 q 261 983 282 964 q 216 1002 241 1002 q 165 947 184 1002 q 138 823 144 886 q 127 682 129 739 l 127 656 q 125 584 125 591 l 125 578 q 144 349 125 486 q 171 195 155 260 q 210 85 186 130 q 268 37 236 37 q 315 90 296 37 q 340 204 332 136 q 353 351 349 272 q 356 443 356 399 q 354 571 356 505 z "},"Ớ":{"ha":516,"x_min":61,"x_max":489,"o":"m 489 1128 q 468 1061 489 1090 q 415 1018 448 1033 q 349 1003 383 1003 q 335 1004 340 1003 q 389 871 373 946 q 406 777 400 818 q 414 684 412 735 q 419 499 419 582 l 419 419 q 413 330 419 389 q 407 243 407 273 l 407 237 q 398 146 398 200 q 382 66 398 107 q 335 -6 366 24 q 265 -39 304 -39 q 197 -14 229 -39 q 144 54 165 12 q 109 148 125 92 q 85 259 94 203 q 72 366 77 308 q 64 469 66 424 q 63 542 63 520 q 62 616 63 580 l 61 704 q 68 852 61 787 q 96 983 75 925 q 123 1032 108 1013 q 160 1063 138 1051 q 210 1075 183 1075 q 250 1069 229 1075 l 250 1071 q 294 1065 262 1068 q 336 1062 325 1062 q 386 1074 373 1062 q 399 1107 399 1085 q 392 1140 399 1121 q 387 1160 387 1153 q 400 1178 387 1172 q 435 1184 414 1184 q 476 1170 463 1184 q 489 1128 489 1156 m 354 571 q 338 758 351 645 q 296 928 326 851 q 261 983 282 964 q 216 1002 241 1002 q 165 947 184 1002 q 138 823 144 886 q 127 682 129 739 l 127 656 q 125 584 125 591 l 125 578 q 144 349 125 486 q 171 195 155 260 q 210 85 186 130 q 268 37 236 37 q 315 90 296 37 q 340 204 332 136 q 353 351 349 272 q 356 443 356 399 q 354 571 356 505 m 193 1124 q 178 1129 184 1124 q 171 1142 171 1135 q 178 1156 171 1149 q 278 1244 210 1186 q 360 1315 342 1298 q 372 1318 368 1318 q 402 1301 388 1318 q 417 1265 417 1284 q 407 1244 417 1251 q 205 1126 351 1203 q 193 1124 200 1124 z "},"Ợ":{"ha":516,"x_min":61,"x_max":489,"o":"m 489 1128 q 468 1061 489 1090 q 415 1018 448 1033 q 349 1003 383 1003 q 335 1004 340 1003 q 389 871 373 946 q 406 777 400 818 q 414 684 412 735 q 419 499 419 582 l 419 419 q 413 330 419 389 q 407 243 407 273 l 407 237 q 398 146 398 200 q 382 66 398 107 q 335 -6 366 24 q 265 -39 304 -39 q 197 -14 229 -39 q 144 54 165 12 q 109 148 125 92 q 85 259 94 203 q 72 366 77 308 q 64 469 66 424 q 63 542 63 520 q 62 616 63 580 l 61 704 q 68 852 61 787 q 96 983 75 925 q 123 1032 108 1013 q 160 1063 138 1051 q 210 1075 183 1075 q 250 1069 229 1075 l 250 1071 q 294 1065 262 1068 q 336 1062 325 1062 q 386 1074 373 1062 q 399 1107 399 1085 q 392 1140 399 1121 q 387 1160 387 1153 q 400 1178 387 1172 q 435 1184 414 1184 q 476 1170 463 1184 q 489 1128 489 1156 m 354 571 q 338 758 351 645 q 296 928 326 851 q 261 983 282 964 q 216 1002 241 1002 q 165 947 184 1002 q 138 823 144 886 q 127 682 129 739 l 127 656 q 125 584 125 591 l 125 578 q 144 349 125 486 q 171 195 155 260 q 210 85 186 130 q 268 37 236 37 q 315 90 296 37 q 340 204 332 136 q 353 351 349 272 q 356 443 356 399 q 354 571 356 505 m 254 -234 q 222 -219 236 -234 q 208 -184 208 -203 q 223 -147 208 -163 q 260 -131 239 -131 q 294 -147 279 -131 q 309 -183 309 -163 q 294 -220 309 -205 q 254 -234 279 -234 z "},"Ờ":{"ha":516,"x_min":16,"x_max":489,"o":"m 489 1128 q 468 1061 489 1090 q 415 1018 448 1033 q 349 1003 383 1003 q 335 1004 340 1003 q 389 871 373 946 q 406 777 400 818 q 414 684 412 735 q 419 499 419 582 l 419 419 q 413 330 419 389 q 407 243 407 273 l 407 237 q 398 146 398 200 q 382 66 398 107 q 335 -6 366 24 q 265 -39 304 -39 q 197 -14 229 -39 q 144 54 165 12 q 109 148 125 92 q 85 259 94 203 q 72 366 77 308 q 64 469 66 424 q 63 542 63 520 q 62 616 63 580 l 61 704 q 68 852 61 787 q 96 983 75 925 q 123 1032 108 1013 q 160 1063 138 1051 q 210 1075 183 1075 q 250 1069 229 1075 l 250 1071 q 294 1065 262 1068 q 336 1062 325 1062 q 386 1074 373 1062 q 399 1107 399 1085 q 392 1140 399 1121 q 387 1160 387 1153 q 400 1178 387 1172 q 435 1184 414 1184 q 476 1170 463 1184 q 489 1128 489 1156 m 354 571 q 338 758 351 645 q 296 928 326 851 q 261 983 282 964 q 216 1002 241 1002 q 165 947 184 1002 q 138 823 144 886 q 127 682 129 739 l 127 656 q 125 584 125 591 l 125 578 q 144 349 125 486 q 171 195 155 260 q 210 85 186 130 q 268 37 236 37 q 315 90 296 37 q 340 204 332 136 q 353 351 349 272 q 356 443 356 399 q 354 571 356 505 m 273 1129 q 193 1148 258 1129 q 72 1188 128 1167 q 16 1217 16 1209 q 23 1240 16 1227 q 41 1262 31 1253 q 62 1271 52 1271 q 128 1241 71 1271 q 234 1181 185 1212 q 283 1139 283 1149 q 273 1129 283 1129 z "},"Ở":{"ha":516,"x_min":61,"x_max":489,"o":"m 489 1128 q 468 1061 489 1090 q 415 1018 448 1033 q 349 1003 383 1003 q 335 1004 340 1003 q 389 871 373 946 q 406 777 400 818 q 414 684 412 735 q 419 499 419 582 l 419 419 q 413 330 419 389 q 407 243 407 273 l 407 237 q 398 146 398 200 q 382 66 398 107 q 335 -6 366 24 q 265 -39 304 -39 q 197 -14 229 -39 q 144 54 165 12 q 109 148 125 92 q 85 259 94 203 q 72 366 77 308 q 64 469 66 424 q 63 542 63 520 q 62 616 63 580 l 61 704 q 68 852 61 787 q 96 983 75 925 q 123 1032 108 1013 q 160 1063 138 1051 q 210 1075 183 1075 q 250 1069 229 1075 l 250 1071 q 294 1065 262 1068 q 336 1062 325 1062 q 386 1074 373 1062 q 399 1107 399 1085 q 392 1140 399 1121 q 387 1160 387 1153 q 400 1178 387 1172 q 435 1184 414 1184 q 476 1170 463 1184 q 489 1128 489 1156 m 354 571 q 338 758 351 645 q 296 928 326 851 q 261 983 282 964 q 216 1002 241 1002 q 165 947 184 1002 q 138 823 144 886 q 127 682 129 739 l 127 656 q 125 584 125 591 l 125 578 q 144 349 125 486 q 171 195 155 260 q 210 85 186 130 q 268 37 236 37 q 315 90 296 37 q 340 204 332 136 q 353 351 349 272 q 356 443 356 399 q 354 571 356 505 m 214 1131 q 182 1152 190 1131 q 193 1201 182 1183 q 221 1224 205 1218 q 261 1236 237 1231 q 291 1245 282 1240 q 300 1261 300 1249 q 281 1295 300 1281 q 226 1310 261 1310 q 175 1298 193 1310 q 157 1269 157 1287 q 166 1256 157 1267 q 159 1247 166 1255 q 144 1234 153 1240 q 128 1227 135 1227 q 99 1237 110 1227 q 89 1258 89 1246 l 89 1271 q 123 1343 89 1317 q 223 1369 157 1369 q 341 1337 310 1369 q 373 1261 373 1304 q 362 1220 373 1235 q 335 1199 351 1205 q 295 1188 319 1194 q 260 1177 271 1183 q 249 1159 249 1172 l 249 1135 q 221 1133 224 1135 q 214 1131 217 1131 z "},"Ỡ":{"ha":516,"x_min":49,"x_max":489,"o":"m 489 1128 q 468 1061 489 1090 q 415 1018 448 1033 q 349 1003 383 1003 q 335 1004 340 1003 q 389 871 373 946 q 406 777 400 818 q 414 684 412 735 q 419 499 419 582 l 419 419 q 413 330 419 389 q 407 243 407 273 l 407 237 q 398 146 398 200 q 382 66 398 107 q 335 -6 366 24 q 265 -39 304 -39 q 197 -14 229 -39 q 144 54 165 12 q 109 148 125 92 q 85 259 94 203 q 72 366 77 308 q 64 469 66 424 q 63 542 63 520 q 62 616 63 580 l 61 704 q 68 852 61 787 q 96 983 75 925 q 123 1032 108 1013 q 160 1063 138 1051 q 210 1075 183 1075 q 250 1069 229 1075 l 250 1071 q 294 1065 262 1068 q 336 1062 325 1062 q 386 1074 373 1062 q 399 1107 399 1085 q 392 1140 399 1121 q 387 1160 387 1153 q 400 1178 387 1172 q 435 1184 414 1184 q 476 1170 463 1184 q 489 1128 489 1156 m 354 571 q 338 758 351 645 q 296 928 326 851 q 261 983 282 964 q 216 1002 241 1002 q 165 947 184 1002 q 138 823 144 886 q 127 682 129 739 l 127 656 q 125 584 125 591 l 125 578 q 144 349 125 486 q 171 195 155 260 q 210 85 186 130 q 268 37 236 37 q 315 90 296 37 q 340 204 332 136 q 353 351 349 272 q 356 443 356 399 q 354 571 356 505 m 283 1128 q 224 1137 249 1128 q 189 1158 199 1146 q 135 1187 165 1187 q 121 1176 125 1183 q 119 1161 117 1169 q 115 1145 120 1153 q 99 1134 111 1138 q 63 1144 77 1134 q 49 1174 49 1155 q 76 1231 49 1208 q 149 1255 104 1255 q 210 1227 165 1255 q 267 1198 254 1198 q 287 1206 279 1198 q 296 1226 294 1215 q 306 1246 298 1238 q 327 1254 314 1254 q 360 1243 349 1254 q 372 1218 372 1233 q 360 1174 372 1194 q 327 1141 348 1153 q 283 1128 307 1128 z "},"Ő":{"ha":494,"x_min":61,"x_max":592,"o":"m 265 -39 q 197 -14 229 -39 q 144 54 165 12 q 109 148 125 92 q 85 259 94 203 q 72 366 77 308 q 64 469 66 424 q 63 542 63 520 q 62 616 63 580 l 61 704 q 68 852 61 787 q 96 983 75 925 q 123 1032 108 1013 q 160 1063 138 1051 q 210 1075 183 1075 q 275 1060 245 1075 q 326 1017 305 1045 q 364 951 349 985 q 389 871 380 916 q 406 777 400 818 q 414 684 412 735 q 419 499 419 582 l 419 419 q 413 330 419 389 q 407 243 407 273 l 407 237 q 398 146 398 200 q 382 66 398 107 q 335 -6 366 24 q 265 -39 304 -39 m 268 37 q 315 90 296 37 q 340 204 332 136 q 353 351 349 272 q 356 443 356 399 q 354 571 356 505 q 338 758 351 645 q 296 928 326 851 q 261 983 282 964 q 216 1002 241 1002 q 165 947 184 1002 q 138 823 144 886 q 127 682 129 739 l 127 656 q 125 584 125 591 l 125 578 q 144 349 125 486 q 171 195 155 260 q 210 85 186 130 q 268 37 236 37 m 115 1103 q 161 1194 116 1123 q 258 1330 206 1265 q 319 1392 308 1392 q 342 1385 332 1392 q 352 1367 352 1377 q 303 1274 352 1337 q 193 1153 254 1210 q 115 1094 135 1100 l 115 1103 m 303 1103 q 290 1121 290 1103 q 348 1204 290 1137 q 471 1332 404 1269 q 550 1392 535 1392 q 576 1383 564 1392 q 592 1360 588 1373 q 526 1283 584 1339 q 399 1173 467 1228 q 303 1103 331 1118 z "},"Ȏ":{"ha":494,"x_min":61,"x_max":419,"o":"m 265 -39 q 197 -14 229 -39 q 144 54 165 12 q 109 148 125 92 q 85 259 94 203 q 72 366 77 308 q 64 469 66 424 q 63 542 63 520 q 62 616 63 580 l 61 704 q 68 852 61 787 q 96 983 75 925 q 123 1032 108 1013 q 160 1063 138 1051 q 210 1075 183 1075 q 275 1060 245 1075 q 326 1017 305 1045 q 364 951 349 985 q 389 871 380 916 q 406 777 400 818 q 414 684 412 735 q 419 499 419 582 l 419 419 q 413 330 419 389 q 407 243 407 273 l 407 237 q 398 146 398 200 q 382 66 398 107 q 335 -6 366 24 q 265 -39 304 -39 m 268 37 q 315 90 296 37 q 340 204 332 136 q 353 351 349 272 q 356 443 356 399 q 354 571 356 505 q 338 758 351 645 q 296 928 326 851 q 261 983 282 964 q 216 1002 241 1002 q 165 947 184 1002 q 138 823 144 886 q 127 682 129 739 l 127 656 q 125 584 125 591 l 125 578 q 144 349 125 486 q 171 195 155 260 q 210 85 186 130 q 268 37 236 37 m 94 1116 q 119 1226 94 1178 q 156 1266 132 1251 q 212 1280 180 1280 q 256 1273 238 1280 q 286 1249 273 1266 q 305 1220 299 1232 q 323 1180 311 1208 l 326 1175 l 328 1169 l 326 1163 q 325 1158 325 1158 l 331 1135 q 320 1111 331 1121 q 294 1100 309 1100 q 263 1112 271 1100 q 255 1152 255 1124 q 245 1193 255 1169 q 223 1216 235 1216 l 194 1216 q 174 1188 182 1208 q 161 1145 165 1168 q 146 1108 156 1123 q 120 1094 136 1094 l 94 1116 z "},"Ō":{"ha":494,"x_min":19,"x_max":419,"o":"m 265 -39 q 197 -14 229 -39 q 144 54 165 12 q 109 148 125 92 q 85 259 94 203 q 72 366 77 308 q 64 469 66 424 q 63 542 63 520 q 62 616 63 580 l 61 704 q 68 852 61 787 q 96 983 75 925 q 123 1032 108 1013 q 160 1063 138 1051 q 210 1075 183 1075 q 275 1060 245 1075 q 326 1017 305 1045 q 364 951 349 985 q 389 871 380 916 q 406 777 400 818 q 414 684 412 735 q 419 499 419 582 l 419 419 q 413 330 419 389 q 407 243 407 273 l 407 237 q 398 146 398 200 q 382 66 398 107 q 335 -6 366 24 q 265 -39 304 -39 m 268 37 q 315 90 296 37 q 340 204 332 136 q 353 351 349 272 q 356 443 356 399 q 354 571 356 505 q 338 758 351 645 q 296 928 326 851 q 261 983 282 964 q 216 1002 241 1002 q 165 947 184 1002 q 138 823 144 886 q 127 682 129 739 l 127 656 q 125 584 125 591 l 125 578 q 144 349 125 486 q 171 195 155 260 q 210 85 186 130 q 268 37 236 37 m 75 1134 q 19 1178 19 1134 q 27 1201 19 1192 q 50 1209 36 1209 l 254 1209 q 297 1212 272 1209 q 340 1214 326 1214 q 407 1173 407 1214 q 396 1149 407 1157 q 368 1141 385 1141 q 221 1137 330 1141 q 75 1134 111 1134 z "},"Ǫ":{"ha":494,"x_min":61,"x_max":419,"o":"m 414 684 q 419 499 419 582 l 419 419 q 413 330 419 389 q 407 243 407 273 l 407 237 q 398 146 398 200 q 385 75 398 112 q 348 8 372 38 l 349 8 l 345 5 q 335 -6 342 1 q 304 -29 321 -21 q 229 -156 229 -99 q 234 -182 229 -173 q 253 -191 240 -191 q 277 -185 265 -191 q 305 -168 288 -180 l 320 -209 q 286 -235 310 -222 q 243 -248 262 -248 q 187 -223 207 -248 q 168 -165 168 -197 q 185 -95 168 -128 q 234 -34 203 -62 q 184 -2 207 -25 q 144 54 161 20 q 109 148 125 92 q 85 259 94 203 q 72 366 77 308 q 64 469 66 424 q 63 542 63 520 q 62 616 63 580 l 61 704 q 68 852 61 787 q 96 983 75 925 q 123 1032 108 1013 q 160 1063 138 1051 q 210 1075 183 1075 q 275 1060 245 1075 q 326 1017 305 1045 q 364 951 349 985 q 389 871 380 916 q 406 777 400 818 q 414 684 412 735 m 353 351 q 356 443 356 399 q 354 571 356 505 q 338 758 351 645 q 296 928 326 851 q 261 983 282 964 q 216 1002 241 1002 q 165 947 184 1002 q 138 823 144 886 q 127 682 129 739 l 127 656 q 125 584 125 591 l 125 578 q 144 349 125 486 q 171 195 155 260 q 210 85 186 130 q 268 37 236 37 q 315 90 296 37 q 340 204 332 136 q 353 351 349 272 z "},"Ø":{"ha":494,"x_min":61,"x_max":420,"o":"m 83 -152 l 125 97 q 78 304 92 182 q 63 542 63 425 q 62 616 63 580 q 62 638 62 631 l 61 705 q 68 852 61 787 q 96 983 75 926 q 123 1032 108 1013 q 160 1063 138 1051 q 210 1075 183 1075 q 295 1048 259 1075 l 326 1220 l 379 1220 l 336 1004 q 408 767 391 924 q 417 637 415 695 q 420 498 420 578 l 420 457 q 419 419 419 439 q 413 330 419 389 q 407 243 407 273 l 407 237 q 398 146 398 200 q 382 66 398 107 q 335 -6 366 24 q 265 -39 304 -39 q 210 -22 233 -39 q 163 32 186 -5 l 114 -190 l 83 -152 m 279 960 q 216 1002 252 1002 q 165 947 184 1002 q 138 823 144 886 q 127 682 129 739 l 127 656 q 125 584 125 591 l 125 578 q 134 437 125 528 q 156 269 142 347 l 279 960 m 268 37 q 315 90 296 37 q 340 204 332 136 q 353 351 349 272 q 356 443 356 399 q 313 881 356 734 l 180 162 q 268 37 216 37 z "},"Ǿ":{"ha":494,"x_min":18,"x_max":420,"o":"m 83 -152 l 125 97 q 78 304 92 182 q 63 542 63 425 q 62 616 63 580 q 62 638 62 631 l 61 705 q 68 852 61 787 q 96 983 75 926 q 123 1032 108 1013 q 160 1063 138 1051 q 210 1075 183 1075 q 295 1048 259 1075 l 326 1220 l 379 1220 l 336 1004 q 408 767 391 924 q 417 637 415 695 q 420 498 420 578 l 420 457 q 419 419 419 439 q 413 330 419 389 q 407 243 407 273 l 407 237 q 398 146 398 200 q 382 66 398 107 q 335 -6 366 24 q 265 -39 304 -39 q 210 -22 233 -39 q 163 32 186 -5 l 114 -190 l 83 -152 m 279 960 q 216 1002 252 1002 q 165 947 184 1002 q 138 823 144 886 q 127 682 129 739 l 127 656 q 125 584 125 591 l 125 578 q 134 437 125 528 q 156 269 142 347 l 279 960 m 268 37 q 315 90 296 37 q 340 204 332 136 q 353 351 349 272 q 356 443 356 399 q 313 881 356 734 l 180 162 q 268 37 216 37 m 41 1090 q 25 1095 32 1090 q 18 1108 18 1101 q 26 1122 18 1115 q 125 1210 57 1152 q 208 1281 190 1264 q 219 1284 215 1284 q 250 1267 235 1284 q 264 1232 264 1250 q 254 1210 264 1217 q 52 1093 199 1169 q 41 1090 47 1090 z "},"Õ":{"ha":494,"x_min":51,"x_max":419,"o":"m 265 -39 q 197 -14 229 -39 q 144 54 165 12 q 109 148 125 92 q 85 259 94 203 q 72 366 77 308 q 64 469 66 424 q 63 542 63 520 q 62 616 63 580 l 61 704 q 68 852 61 787 q 96 983 75 925 q 123 1032 108 1013 q 160 1063 138 1051 q 210 1075 183 1075 q 275 1060 245 1075 q 326 1017 305 1045 q 364 951 349 985 q 389 871 380 916 q 406 777 400 818 q 414 684 412 735 q 419 499 419 582 l 419 419 q 413 330 419 389 q 407 243 407 273 l 407 237 q 398 146 398 200 q 382 66 398 107 q 335 -6 366 24 q 265 -39 304 -39 m 268 37 q 315 90 296 37 q 340 204 332 136 q 353 351 349 272 q 356 443 356 399 q 354 571 356 505 q 338 758 351 645 q 296 928 326 851 q 261 983 282 964 q 216 1002 241 1002 q 165 947 184 1002 q 138 823 144 886 q 127 682 129 739 l 127 656 q 125 584 125 591 l 125 578 q 144 349 125 486 q 171 195 155 260 q 210 85 186 130 q 268 37 236 37 m 285 1101 q 226 1110 251 1101 q 191 1131 201 1119 q 137 1160 168 1160 q 123 1149 127 1156 q 121 1134 119 1142 q 117 1118 122 1126 q 101 1107 113 1111 q 65 1117 79 1107 q 51 1147 51 1128 q 78 1204 51 1181 q 151 1227 106 1227 q 212 1200 168 1227 q 269 1171 256 1171 q 289 1179 281 1171 q 298 1199 296 1187 q 308 1219 300 1211 q 329 1227 316 1227 q 362 1216 351 1227 q 374 1191 374 1206 q 362 1146 374 1167 q 329 1114 350 1126 q 285 1101 309 1101 z "},"Ȭ":{"ha":494,"x_min":19,"x_max":419,"o":"m 265 -39 q 197 -14 229 -39 q 144 54 165 12 q 109 148 125 92 q 85 259 94 203 q 72 366 77 308 q 64 469 66 424 q 63 542 63 520 q 62 616 63 580 l 61 704 q 68 852 61 787 q 96 983 75 925 q 123 1032 108 1013 q 160 1063 138 1051 q 210 1075 183 1075 q 275 1060 245 1075 q 326 1017 305 1045 q 364 951 349 985 q 389 871 380 916 q 406 777 400 818 q 414 684 412 735 q 419 499 419 582 l 419 419 q 413 330 419 389 q 407 243 407 273 l 407 237 q 398 146 398 200 q 382 66 398 107 q 335 -6 366 24 q 265 -39 304 -39 m 268 37 q 315 90 296 37 q 340 204 332 136 q 353 351 349 272 q 356 443 356 399 q 354 571 356 505 q 338 758 351 645 q 296 928 326 851 q 261 983 282 964 q 216 1002 241 1002 q 165 947 184 1002 q 138 823 144 886 q 127 682 129 739 l 127 656 q 125 584 125 591 l 125 578 q 144 349 125 486 q 171 195 155 260 q 210 85 186 130 q 268 37 236 37 m 285 1101 q 226 1110 251 1101 q 191 1131 201 1119 q 137 1160 168 1160 q 123 1149 127 1156 q 121 1134 119 1142 q 117 1118 122 1126 q 101 1107 113 1111 q 65 1117 79 1107 q 51 1147 51 1128 q 78 1204 51 1181 q 151 1227 106 1227 q 212 1200 168 1227 q 269 1171 256 1171 q 289 1179 281 1171 q 298 1199 296 1187 q 308 1219 300 1211 q 329 1227 316 1227 q 362 1216 351 1227 q 374 1191 374 1206 q 362 1146 374 1167 q 329 1114 350 1126 q 285 1101 309 1101 m 75 1326 q 19 1370 19 1326 q 27 1393 19 1384 q 50 1401 36 1401 l 254 1401 q 297 1404 272 1401 q 340 1406 326 1406 q 407 1364 407 1406 q 396 1341 407 1349 q 368 1333 385 1333 q 221 1329 330 1333 q 75 1326 111 1326 z "},"Œ":{"ha":791,"x_min":61,"x_max":766,"o":"m 530 -15 q 496 -5 513 -15 q 480 18 480 4 l 481 22 q 407 6 429 6 q 311 17 355 6 q 233 45 267 27 q 175 90 201 62 q 130 149 149 117 q 100 216 113 177 q 79 296 87 255 q 68 376 72 330 q 62 464 64 423 q 61 549 61 513 q 64 673 61 614 q 69 746 66 715 q 81 821 73 777 q 98 891 88 861 q 126 955 109 921 q 163 1006 142 986 q 214 1039 184 1026 q 279 1052 243 1052 q 388 1044 344 1052 q 467 1013 432 1036 l 487 1042 q 518 1038 498 1042 q 549 1034 538 1034 l 652 1034 l 671 1036 l 687 1037 q 719 997 719 1019 q 707 975 719 983 q 678 967 695 967 q 602 970 646 967 q 530 972 552 972 q 540 831 530 928 q 549 690 549 734 l 548 654 l 547 619 q 550 581 547 599 l 592 579 l 598 579 q 614 580 608 579 l 629 580 q 676 555 657 580 q 638 511 676 511 l 604 513 l 570 514 q 551 513 555 514 q 556 281 551 424 q 561 54 561 138 q 651 59 627 59 l 654 58 l 673 58 q 766 17 766 58 l 766 12 l 750 -11 q 640 -13 713 -11 q 530 -15 567 -15 m 371 76 q 466 91 421 76 q 493 114 493 100 q 480 535 493 267 q 465 930 467 799 q 300 983 417 983 q 234 967 263 983 q 185 922 204 951 q 136 787 146 861 q 125 649 125 714 q 125 602 125 623 l 125 556 q 125 509 125 519 q 135 452 131 498 q 145 319 139 406 q 163 210 149 260 q 201 157 178 159 q 278 97 233 119 q 371 76 322 76 z "},"P":{"ha":400,"x_min":68,"x_max":339,"o":"m 130 -7 q 106 6 115 -7 q 97 39 97 20 q 100 272 97 83 q 104 535 104 460 q 68 1031 104 861 q 121 1062 89 1062 q 214 1039 172 1062 q 284 978 257 1017 q 325 892 311 939 q 339 797 339 846 q 294 611 339 694 q 165 483 250 528 q 171 269 165 422 q 176 50 176 115 q 165 8 176 24 q 130 -7 153 -7 m 162 550 q 242 657 217 601 q 268 785 268 714 l 268 786 q 260 867 268 823 q 247 900 258 884 q 234 919 235 917 q 182 963 224 931 l 146 989 q 154 770 146 916 q 162 550 161 623 z "},"Ṗ":{"ha":400,"x_min":68,"x_max":339,"o":"m 130 -7 q 106 6 115 -7 q 97 39 97 20 q 100 272 97 83 q 104 535 104 460 q 68 1031 104 861 q 121 1062 89 1062 q 214 1039 172 1062 q 284 978 257 1017 q 325 892 311 939 q 339 797 339 846 q 294 611 339 694 q 165 483 250 528 q 171 269 165 422 q 176 50 176 115 q 165 8 176 24 q 130 -7 153 -7 m 162 550 q 242 657 217 601 q 268 785 268 714 l 268 786 q 260 867 268 823 q 247 900 258 884 q 234 919 235 917 q 182 963 224 931 l 146 989 q 154 770 146 916 q 162 550 161 623 m 196 1109 q 163 1125 178 1109 q 149 1159 149 1140 q 165 1196 149 1180 q 201 1213 180 1213 q 236 1197 221 1213 q 251 1160 251 1181 q 236 1124 251 1138 q 196 1109 220 1109 z "},"Þ":{"ha":363,"x_min":64,"x_max":323,"o":"m 114 -7 q 90 6 98 -7 q 81 39 81 20 q 73 459 81 166 q 66 880 66 752 l 64 1008 q 99 1050 64 1050 q 146 966 146 1050 q 146 939 146 950 l 145 918 q 243 868 201 910 q 305 768 286 826 q 323 654 323 711 q 278 469 323 551 q 149 340 233 386 q 155 197 149 300 q 160 50 160 94 q 114 -7 160 -7 m 146 408 q 225 515 200 459 q 251 643 251 572 q 242 732 251 700 q 214 787 234 764 q 147 847 193 811 l 143 847 l 144 627 l 146 408 z "},"Q":{"ha":553,"x_min":61,"x_max":464,"o":"m 402 -191 q 345 -172 378 -191 l 345 -171 q 292 -109 307 -153 q 281 -70 286 -87 q 274 -25 277 -52 q 267 14 269 5 l 210 14 q 146 71 174 37 q 101 141 118 104 q 76 217 85 174 q 64 302 66 261 q 61 389 61 336 q 64 503 61 419 q 68 616 68 586 l 67 659 q 66 713 66 681 q 73 847 66 791 q 83 916 77 886 q 102 974 90 945 q 130 1024 114 1004 q 168 1057 145 1044 q 220 1069 191 1069 q 290 1054 258 1069 q 344 1012 321 1038 q 380 950 364 988 q 405 869 395 911 q 418 780 413 831 q 425 684 424 729 q 427 589 427 627 q 426 514 427 546 q 425 447 425 482 l 425 385 q 419 246 425 300 q 395 145 413 192 q 340 47 376 98 l 345 20 q 363 -65 353 -31 q 379 -101 370 -88 q 399 -115 389 -115 l 404 -115 q 424 -115 415 -115 q 443 -119 433 -116 q 464 -149 464 -125 q 402 -191 464 -191 m 259 56 q 297 73 269 73 l 297 73 q 349 222 349 121 l 349 595 q 349 668 349 633 q 345 744 348 703 q 336 822 341 789 q 320 890 330 855 q 295 948 309 926 q 258 985 280 970 q 208 1000 236 1000 q 166 928 184 1000 q 143 766 151 865 q 132 569 135 667 q 130 443 130 505 q 136 306 130 384 q 172 141 143 223 q 209 80 186 103 q 259 54 231 57 l 259 56 z "},"R":{"ha":401,"x_min":78,"x_max":374,"o":"m 340 -14 q 290 23 314 -14 l 290 28 q 264 191 286 100 q 203 410 243 281 q 152 583 166 526 l 152 35 q 144 2 152 13 q 113 -9 136 -9 q 88 2 98 -9 q 78 30 78 14 l 78 41 q 81 448 78 207 q 83 855 83 690 l 83 1026 q 91 1049 83 1043 q 120 1056 98 1056 q 183 1042 154 1056 q 234 1005 213 1029 q 268 952 254 982 q 289 889 282 922 q 295 825 295 858 q 286 747 295 795 q 261 670 281 723 l 245 630 l 231 594 q 247 467 231 544 q 283 326 263 391 q 333 174 302 267 l 374 52 l 374 48 q 373 28 374 37 q 370 9 372 19 q 340 -14 365 -14 m 149 645 q 195 699 173 668 l 217 819 q 218 837 218 831 q 202 930 218 878 q 181 972 194 956 q 155 992 169 989 q 151 853 155 958 q 147 709 147 759 q 149 645 147 673 z "},"Ŕ":{"ha":401,"x_min":78,"x_max":374,"o":"m 340 -14 q 290 23 314 -14 l 290 28 q 264 191 286 100 q 203 410 243 281 q 152 583 166 526 l 152 35 q 144 2 152 13 q 113 -9 136 -9 q 88 2 98 -9 q 78 30 78 14 l 78 41 q 81 448 78 207 q 83 855 83 690 l 83 1026 q 91 1049 83 1043 q 120 1056 98 1056 q 183 1042 154 1056 q 234 1005 213 1029 q 268 952 254 982 q 289 889 282 922 q 295 825 295 858 q 286 747 295 795 q 261 670 281 723 l 245 630 l 231 594 q 247 467 231 544 q 283 326 263 391 q 333 174 302 267 l 374 52 l 374 48 q 373 28 374 37 q 370 9 372 19 q 340 -14 365 -14 m 149 645 q 195 699 173 668 l 217 819 q 218 837 218 831 q 202 930 218 878 q 181 972 194 956 q 155 992 169 989 q 151 853 155 958 q 147 709 147 759 q 149 645 147 673 m 109 1076 q 93 1082 100 1076 q 86 1095 86 1087 q 94 1109 86 1101 q 193 1196 125 1139 q 275 1267 258 1251 q 287 1270 283 1270 q 318 1253 303 1270 q 332 1218 332 1236 q 322 1196 332 1204 q 120 1079 267 1156 q 109 1076 115 1076 z "},"Ř":{"ha":401,"x_min":21,"x_max":374,"o":"m 340 -14 q 290 23 314 -14 l 290 28 q 264 191 286 100 q 203 410 243 281 q 152 583 166 526 l 152 35 q 144 2 152 13 q 113 -9 136 -9 q 88 2 98 -9 q 78 30 78 14 l 78 41 q 81 448 78 207 q 83 855 83 690 l 83 1026 q 91 1049 83 1043 q 120 1056 98 1056 q 183 1042 154 1056 q 234 1005 213 1029 q 268 952 254 982 q 289 889 282 922 q 295 825 295 858 q 286 747 295 795 q 261 670 281 723 l 245 630 l 231 594 q 247 467 231 544 q 283 326 263 391 q 333 174 302 267 l 374 52 l 374 48 q 373 28 374 37 q 370 9 372 19 q 340 -14 365 -14 m 149 645 q 195 699 173 668 l 217 819 q 218 837 218 831 q 202 930 218 878 q 181 972 194 956 q 155 992 169 989 q 151 853 155 958 q 147 709 147 759 q 149 645 147 673 m 146 1086 q 100 1140 130 1086 q 45 1259 70 1194 q 21 1350 21 1324 q 31 1369 21 1361 q 54 1377 41 1377 q 88 1337 71 1377 q 123 1234 104 1300 l 141 1170 q 147 1217 144 1185 q 154 1274 151 1246 q 163 1325 158 1301 q 202 1381 176 1381 q 223 1374 215 1381 q 231 1352 231 1366 q 227 1341 231 1348 q 221 1331 222 1336 l 221 1306 l 201 1230 q 182 1131 182 1153 q 146 1086 182 1086 z "},"Ŗ":{"ha":401,"x_min":78,"x_max":374,"o":"m 340 -14 q 290 23 314 -14 l 290 28 q 264 191 286 100 q 203 410 243 281 q 152 583 166 526 l 152 35 q 144 2 152 13 q 113 -9 136 -9 q 88 2 98 -9 q 78 30 78 14 l 78 41 q 81 448 78 207 q 83 855 83 690 l 83 1026 q 91 1049 83 1043 q 120 1056 98 1056 q 183 1042 154 1056 q 234 1005 213 1029 q 268 952 254 982 q 289 889 282 922 q 295 825 295 858 q 286 747 295 795 q 261 670 281 723 l 245 630 l 231 594 q 247 467 231 544 q 283 326 263 391 q 333 174 302 267 l 374 52 l 374 48 q 373 28 374 37 q 370 9 372 19 q 340 -14 365 -14 m 149 645 q 195 699 173 668 l 217 819 q 218 837 218 831 q 202 930 218 878 q 181 972 194 956 q 155 992 169 989 q 151 853 155 958 q 147 709 147 759 q 149 645 147 673 m 131 -368 q 119 -357 119 -368 q 165 -259 119 -347 q 243 -118 210 -172 q 250 -115 245 -115 q 271 -125 260 -115 q 281 -146 281 -134 q 256 -219 281 -174 q 198 -307 231 -264 q 142 -365 164 -349 q 134 -368 137 -368 l 131 -368 z "},"Ȑ":{"ha":401,"x_min":-75,"x_max":374,"o":"m 340 -14 q 290 23 314 -14 l 290 28 q 264 191 286 100 q 203 410 243 281 q 152 583 166 526 l 152 35 q 144 2 152 13 q 113 -9 136 -9 q 88 2 98 -9 q 78 30 78 14 l 78 41 q 81 448 78 207 q 83 855 83 690 l 83 1026 q 91 1049 83 1043 q 120 1056 98 1056 q 183 1042 154 1056 q 234 1005 213 1029 q 268 952 254 982 q 289 889 282 922 q 295 825 295 858 q 286 747 295 795 q 261 670 281 723 l 245 630 l 231 594 q 247 467 231 544 q 283 326 263 391 q 333 174 302 267 l 374 52 l 374 48 q 373 28 374 37 q 370 9 372 19 q 340 -14 365 -14 m 149 645 q 195 699 173 668 l 217 819 q 218 837 218 831 q 202 930 218 878 q 181 972 194 956 q 155 992 169 989 q 151 853 155 958 q 147 709 147 759 q 149 645 147 673 m 152 1089 q -62 1290 -58 1284 l -75 1313 q -59 1338 -71 1328 q -34 1348 -47 1348 q 27 1294 -23 1348 q 122 1178 78 1238 q 165 1105 165 1119 q 152 1089 165 1089 m 318 1078 q 182 1232 246 1146 q 141 1308 141 1284 q 153 1322 141 1316 q 176 1328 164 1328 q 222 1276 185 1328 q 292 1167 258 1225 q 327 1093 326 1109 l 318 1078 z "},"Ȓ":{"ha":401,"x_min":7,"x_max":374,"o":"m 340 -14 q 290 23 314 -14 l 290 28 q 264 191 286 100 q 203 410 243 281 q 152 583 166 526 l 152 35 q 144 2 152 13 q 113 -9 136 -9 q 88 2 98 -9 q 78 30 78 14 l 78 41 q 81 448 78 207 q 83 855 83 690 l 83 1026 q 91 1049 83 1043 q 120 1056 98 1056 q 183 1042 154 1056 q 234 1005 213 1029 q 268 952 254 982 q 289 889 282 922 q 295 825 295 858 q 286 747 295 795 q 261 670 281 723 l 245 630 l 231 594 q 247 467 231 544 q 283 326 263 391 q 333 174 302 267 l 374 52 l 374 48 q 373 28 374 37 q 370 9 372 19 q 340 -14 365 -14 m 149 645 q 195 699 173 668 l 217 819 q 218 837 218 831 q 202 930 218 878 q 181 972 194 956 q 155 992 169 989 q 151 853 155 958 q 147 709 147 759 q 149 645 147 673 m 7 1095 q 32 1206 7 1158 q 69 1245 45 1231 q 125 1260 93 1260 q 169 1253 151 1260 q 199 1229 186 1246 q 218 1200 212 1211 q 237 1160 224 1188 l 239 1154 l 241 1149 l 239 1143 q 238 1137 238 1137 l 244 1115 q 233 1090 244 1101 q 208 1080 222 1080 q 176 1092 184 1080 q 168 1132 168 1104 q 158 1172 168 1149 q 136 1196 148 1196 l 107 1196 q 87 1167 96 1187 q 74 1124 79 1147 q 59 1088 69 1103 q 33 1074 49 1074 l 7 1095 z "},"S":{"ha":427,"x_min":54,"x_max":352,"o":"m 162 -31 q 77 -12 112 -31 q 54 16 54 -1 q 62 43 54 33 q 85 54 71 54 q 127 43 102 54 q 162 33 151 33 q 210 56 188 33 q 245 115 232 79 q 263 182 257 149 q 270 241 270 216 q 251 366 270 300 q 200 494 232 431 l 180 533 q 127 642 147 597 q 92 736 106 686 q 71 865 71 802 q 88 959 71 915 q 140 1035 105 1004 q 226 1067 176 1067 q 275 1053 251 1067 q 308 1017 298 1039 l 284 987 q 230 1001 250 987 q 186 977 205 998 q 159 928 167 956 q 151 875 151 901 q 165 766 151 821 q 203 664 179 711 l 213 644 q 300 469 278 515 q 338 357 323 420 q 352 232 352 294 q 340 144 352 189 q 307 60 328 99 q 245 -6 283 18 q 162 -31 208 -31 z "},"Ś":{"ha":427,"x_min":54,"x_max":406,"o":"m 162 -31 q 77 -12 112 -31 q 54 16 54 -1 q 62 43 54 33 q 85 54 71 54 q 127 43 102 54 q 162 33 151 33 q 210 56 188 33 q 245 115 232 79 q 263 182 257 149 q 270 241 270 216 q 251 366 270 300 q 200 494 232 431 l 180 533 q 127 642 147 597 q 92 736 106 686 q 71 865 71 802 q 88 959 71 915 q 140 1035 105 1004 q 226 1067 176 1067 q 275 1053 251 1067 q 308 1017 298 1039 l 284 987 q 230 1001 250 987 q 186 977 205 998 q 159 928 167 956 q 151 875 151 901 q 165 766 151 821 q 203 664 179 711 l 213 644 q 300 469 278 515 q 338 357 323 420 q 352 232 352 294 q 340 144 352 189 q 307 60 328 99 q 245 -6 283 18 q 162 -31 208 -31 m 182 1103 q 167 1109 174 1103 q 160 1122 160 1114 q 168 1136 160 1128 q 267 1223 199 1166 q 349 1295 332 1278 q 361 1297 357 1297 q 392 1280 377 1297 q 406 1245 406 1263 q 396 1223 406 1231 q 194 1106 340 1183 q 182 1103 189 1103 z "},"Š":{"ha":427,"x_min":54,"x_max":352,"o":"m 162 -31 q 77 -12 112 -31 q 54 16 54 -1 q 62 43 54 33 q 85 54 71 54 q 127 43 102 54 q 162 33 151 33 q 210 56 188 33 q 245 115 232 79 q 263 182 257 149 q 270 241 270 216 q 251 366 270 300 q 200 494 232 431 l 180 533 q 127 642 147 597 q 92 736 106 686 q 71 865 71 802 q 88 959 71 915 q 140 1035 105 1004 q 226 1067 176 1067 q 275 1053 251 1067 q 308 1017 298 1039 l 284 987 q 230 1001 250 987 q 186 977 205 998 q 159 928 167 956 q 151 875 151 901 q 165 766 151 821 q 203 664 179 711 l 213 644 q 300 469 278 515 q 338 357 323 420 q 352 232 352 294 q 340 144 352 189 q 307 60 328 99 q 245 -6 283 18 q 162 -31 208 -31 m 220 1114 q 174 1167 203 1114 q 119 1286 144 1221 q 95 1377 95 1352 q 105 1396 95 1388 q 128 1404 115 1404 q 162 1364 145 1404 q 197 1261 178 1327 l 215 1197 q 221 1244 218 1212 q 228 1301 224 1274 q 237 1352 232 1329 q 276 1409 250 1409 q 297 1401 289 1409 q 305 1379 305 1393 q 300 1369 305 1375 q 295 1358 296 1363 l 295 1333 l 275 1257 q 256 1158 256 1180 q 220 1114 256 1114 z "},"Ş":{"ha":427,"x_min":54,"x_max":352,"o":"m 300 469 q 338 357 323 420 q 352 232 352 294 q 340 144 352 189 q 307 60 328 99 q 248 -4 284 20 q 168 -31 212 -28 q 168 -55 168 -39 q 269 -195 269 -62 q 254 -242 269 -216 q 214 -287 239 -269 q 163 -304 190 -304 q 123 -294 142 -304 q 104 -267 104 -284 q 119 -253 104 -253 q 141 -260 127 -253 q 163 -267 156 -267 q 202 -238 187 -267 q 218 -170 218 -209 q 197 -109 218 -125 q 178 -111 191 -109 q 159 -113 167 -113 q 121 -85 139 -113 q 132 -29 130 -63 q 77 -12 101 -24 q 54 16 54 -1 q 62 43 54 33 q 85 54 71 54 q 127 43 102 54 q 162 33 151 33 q 210 56 188 33 q 245 115 232 79 q 263 182 257 149 q 270 241 270 216 q 251 366 270 300 q 200 494 232 431 l 180 533 q 127 642 147 597 q 92 736 106 686 q 71 865 71 802 q 88 959 71 915 q 140 1035 105 1004 q 226 1067 176 1067 q 275 1053 251 1067 q 308 1017 298 1039 l 284 987 q 230 1001 250 987 q 186 977 205 998 q 159 928 167 956 q 151 875 151 901 q 165 766 151 821 q 203 664 179 711 l 213 644 q 300 469 278 515 z "},"Ŝ":{"ha":427,"x_min":54,"x_max":352,"o":"m 162 -31 q 77 -12 112 -31 q 54 16 54 -1 q 62 43 54 33 q 85 54 71 54 q 127 43 102 54 q 162 33 151 33 q 210 56 188 33 q 245 115 232 79 q 263 182 257 149 q 270 241 270 216 q 251 366 270 300 q 200 494 232 431 l 180 533 q 127 642 147 597 q 92 736 106 686 q 71 865 71 802 q 88 959 71 915 q 140 1035 105 1004 q 226 1067 176 1067 q 275 1053 251 1067 q 308 1017 298 1039 l 284 987 q 230 1001 250 987 q 186 977 205 998 q 159 928 167 956 q 151 875 151 901 q 165 766 151 821 q 203 664 179 711 l 213 644 q 300 469 278 515 q 338 357 323 420 q 352 232 352 294 q 340 144 352 189 q 307 60 328 99 q 245 -6 283 18 q 162 -31 208 -31 m 316 1102 q 298 1112 302 1102 l 244 1299 l 174 1121 q 155 1112 170 1112 q 130 1119 140 1112 q 119 1139 119 1126 q 122 1152 119 1146 q 159 1242 146 1210 l 172 1274 q 205 1348 194 1329 q 237 1381 221 1374 q 256 1384 245 1384 q 275 1371 266 1384 q 311 1277 291 1348 l 328 1210 q 346 1143 335 1183 q 348 1131 348 1137 q 338 1110 348 1118 q 316 1102 329 1102 z "},"Ș":{"ha":427,"x_min":54,"x_max":352,"o":"m 162 -31 q 77 -12 112 -31 q 54 16 54 -1 q 62 43 54 33 q 85 54 71 54 q 127 43 102 54 q 162 33 151 33 q 210 56 188 33 q 245 115 232 79 q 263 182 257 149 q 270 241 270 216 q 251 366 270 300 q 200 494 232 431 l 180 533 q 127 642 147 597 q 92 736 106 686 q 71 865 71 802 q 88 959 71 915 q 140 1035 105 1004 q 226 1067 176 1067 q 275 1053 251 1067 q 308 1017 298 1039 l 284 987 q 230 1001 250 987 q 186 977 205 998 q 159 928 167 956 q 151 875 151 901 q 165 766 151 821 q 203 664 179 711 l 213 644 q 300 469 278 515 q 338 357 323 420 q 352 232 352 294 q 340 144 352 189 q 307 60 328 99 q 245 -6 283 18 q 162 -31 208 -31 m 83 -368 q 71 -357 71 -368 q 117 -259 71 -347 q 195 -118 162 -172 q 201 -115 197 -115 q 222 -125 212 -115 q 233 -146 233 -134 q 208 -219 233 -174 q 150 -307 183 -264 q 94 -365 116 -349 q 85 -368 89 -368 l 83 -368 z "},"Ṡ":{"ha":427,"x_min":54,"x_max":352,"o":"m 162 -31 q 77 -12 112 -31 q 54 16 54 -1 q 62 43 54 33 q 85 54 71 54 q 127 43 102 54 q 162 33 151 33 q 210 56 188 33 q 245 115 232 79 q 263 182 257 149 q 270 241 270 216 q 251 366 270 300 q 200 494 232 431 l 180 533 q 127 642 147 597 q 92 736 106 686 q 71 865 71 802 q 88 959 71 915 q 140 1035 105 1004 q 226 1067 176 1067 q 275 1053 251 1067 q 308 1017 298 1039 l 284 987 q 230 1001 250 987 q 186 977 205 998 q 159 928 167 956 q 151 875 151 901 q 165 766 151 821 q 203 664 179 711 l 213 644 q 300 469 278 515 q 338 357 323 420 q 352 232 352 294 q 340 144 352 189 q 307 60 328 99 q 245 -6 283 18 q 162 -31 208 -31 m 196 1137 q 163 1152 178 1137 q 149 1186 149 1167 q 165 1223 149 1207 q 201 1240 180 1240 q 236 1224 221 1240 q 251 1187 251 1208 q 236 1151 251 1165 q 196 1137 220 1137 z "},"ẞ":{"ha":449,"x_min":64,"x_max":368,"o":"m 109 -32 q 68 3 68 -32 q 71 184 68 50 q 75 365 75 318 q 70 606 75 456 q 64 847 64 777 q 79 964 64 908 q 103 1021 88 998 q 142 1059 117 1044 q 199 1075 168 1075 q 263 1052 235 1075 q 304 990 290 1029 q 328 847 328 922 q 242 583 328 723 q 319 506 292 545 q 357 420 346 468 q 368 301 368 372 q 335 151 368 222 q 244 33 302 79 l 241 33 q 234 31 237 31 q 211 38 222 31 q 201 55 201 45 q 251 136 201 71 q 286 202 271 163 q 300 277 300 241 q 289 399 300 346 q 258 481 277 453 q 222 524 242 504 q 204 540 218 528 q 185 561 191 552 q 180 579 180 570 q 200 637 180 590 q 242 758 224 697 q 260 864 260 819 q 248 943 260 897 q 228 983 241 968 q 199 999 214 999 q 167 986 181 999 q 146 952 153 973 q 132 878 132 913 q 143 455 132 728 q 153 31 153 174 q 143 -16 153 0 q 109 -32 134 -32 z "},"Ə":{"ha":620,"x_min":33,"x_max":523,"o":"m 264 -14 q 89 65 144 -14 q 33 307 33 144 l 33 351 q 85 539 33 470 q 233 608 136 608 l 243 608 l 433 600 q 435 658 433 623 l 435 715 q 416 870 435 801 q 359 979 396 939 q 271 1019 321 1019 q 91 923 192 1019 q 77 918 85 918 q 58 929 65 918 q 52 956 52 941 l 52 959 q 62 976 54 967 q 283 1071 181 1071 q 413 1020 357 1071 q 496 882 469 969 q 523 691 523 799 l 523 435 q 491 192 523 293 q 400 38 458 91 q 264 -14 342 -14 m 244 40 q 285 46 262 40 q 393 152 357 65 q 429 401 429 239 l 429 407 q 431 547 429 485 l 237 547 q 197 544 210 547 q 168 528 184 541 q 143 484 152 515 q 127 399 134 454 q 121 280 121 351 q 244 40 121 40 z "},"T":{"ha":364,"x_min":3,"x_max":303,"o":"m 188 -9 q 155 11 166 -9 q 143 60 143 32 q 149 172 143 92 q 154 282 154 251 q 144 498 154 349 q 135 715 135 648 l 136 768 q 137 836 137 795 q 124 966 137 937 l 88 962 q 49 958 60 958 q 17 969 31 958 q 3 996 3 980 q 37 1025 3 1013 q 201 1049 87 1042 q 258 1051 237 1051 q 290 1040 276 1051 q 303 1012 303 1028 q 291 985 303 996 q 261 975 279 975 l 236 977 l 212 978 q 197 977 201 978 q 207 806 207 894 l 205 718 l 204 627 q 210 468 204 573 q 216 308 216 363 q 222 183 216 266 q 228 58 228 95 q 188 -9 228 -9 z "},"Ŧ":{"ha":475,"x_min":76,"x_max":464,"o":"m 397 623 q 464 582 464 623 q 453 558 464 566 q 425 550 442 550 q 335 548 391 550 q 294 547 309 548 q 298 468 296 512 q 304 308 304 363 q 311 183 304 266 q 316 58 316 95 q 276 -9 316 -9 q 243 11 254 -9 q 231 60 231 32 q 237 172 231 92 q 242 282 242 251 q 233 498 242 349 q 230 545 231 514 q 132 543 167 543 q 76 587 76 543 q 84 610 76 602 q 107 618 93 618 l 226 618 q 223 715 223 670 l 224 768 q 225 836 225 795 q 212 966 225 937 l 176 962 q 137 958 148 958 q 105 969 119 958 q 92 996 92 980 q 125 1025 92 1013 q 289 1049 175 1042 q 347 1051 325 1051 q 378 1040 364 1051 q 391 1012 391 1028 q 379 985 391 996 q 349 975 368 975 l 324 977 l 300 978 q 286 977 289 978 q 295 806 295 894 l 294 718 l 292 627 l 292 618 l 311 618 q 354 621 329 618 q 397 623 382 623 z "},"Ť":{"ha":364,"x_min":3,"x_max":303,"o":"m 188 -9 q 155 11 166 -9 q 143 60 143 32 q 149 172 143 92 q 154 282 154 251 q 144 498 154 349 q 135 715 135 648 l 136 768 q 137 836 137 795 q 124 966 137 937 l 88 962 q 49 958 60 958 q 17 969 31 958 q 3 996 3 980 q 37 1025 3 1013 q 201 1049 87 1042 q 258 1051 237 1051 q 290 1040 276 1051 q 303 1012 303 1028 q 291 985 303 996 q 261 975 279 975 l 236 977 l 212 978 q 197 977 201 978 q 207 806 207 894 l 205 718 l 204 627 q 210 468 204 573 q 216 308 216 363 q 222 183 216 266 q 228 58 228 95 q 188 -9 228 -9 m 203 1086 q 156 1140 186 1086 q 102 1259 126 1194 q 77 1350 77 1324 q 87 1369 77 1361 q 111 1377 98 1377 q 144 1337 127 1377 q 180 1234 161 1300 l 197 1170 q 203 1217 200 1185 q 211 1274 207 1246 q 220 1325 214 1301 q 258 1381 232 1381 q 279 1374 271 1381 q 288 1352 288 1366 q 283 1341 288 1348 q 277 1331 279 1336 l 277 1306 l 258 1230 q 238 1131 238 1153 q 203 1086 238 1086 z "},"Ţ":{"ha":364,"x_min":3,"x_max":303,"o":"m 197 -55 q 298 -195 298 -62 q 283 -242 298 -216 q 244 -287 269 -269 q 193 -304 220 -304 q 153 -294 172 -304 q 134 -267 134 -284 q 149 -253 134 -253 q 171 -260 157 -253 q 193 -267 186 -267 q 232 -238 217 -267 q 248 -170 248 -209 q 227 -109 248 -125 q 208 -111 220 -109 q 189 -113 197 -113 q 151 -85 169 -113 q 163 -6 163 -58 l 163 1 q 148 26 153 10 q 143 60 143 41 q 149 172 143 92 q 154 282 154 251 q 144 498 154 349 q 135 715 135 648 l 136 768 q 137 836 137 795 q 124 966 137 937 l 88 962 q 49 958 60 958 q 17 969 31 958 q 3 996 3 980 q 37 1025 3 1013 q 201 1049 87 1042 q 258 1051 237 1051 q 290 1040 276 1051 q 303 1012 303 1028 q 291 985 303 996 q 261 975 279 975 l 236 977 l 212 978 q 197 977 201 978 q 207 806 207 894 l 205 718 l 204 627 q 210 468 204 573 q 216 308 216 363 q 222 183 216 266 q 228 58 228 95 q 200 -7 228 2 q 197 -55 197 -27 z "},"Ț":{"ha":364,"x_min":3,"x_max":303,"o":"m 188 -9 q 155 11 166 -9 q 143 60 143 32 q 149 172 143 92 q 154 282 154 251 q 144 498 154 349 q 135 715 135 648 l 136 768 q 137 836 137 795 q 124 966 137 937 l 88 962 q 49 958 60 958 q 17 969 31 958 q 3 996 3 980 q 37 1025 3 1013 q 201 1049 87 1042 q 258 1051 237 1051 q 290 1040 276 1051 q 303 1012 303 1028 q 291 985 303 996 q 261 975 279 975 l 236 977 l 212 978 q 197 977 201 978 q 207 806 207 894 l 205 718 l 204 627 q 210 468 204 573 q 216 308 216 363 q 222 183 216 266 q 228 58 228 95 q 188 -9 228 -9 m 113 -368 q 101 -357 101 -368 q 146 -259 101 -347 q 225 -118 192 -172 q 231 -115 227 -115 q 252 -125 241 -115 q 263 -146 263 -134 q 238 -219 263 -174 q 179 -307 213 -264 q 124 -365 146 -349 q 115 -368 119 -368 l 113 -368 z "},"Ṫ":{"ha":364,"x_min":3,"x_max":303,"o":"m 188 -9 q 155 11 166 -9 q 143 60 143 32 q 149 172 143 92 q 154 282 154 251 q 144 498 154 349 q 135 715 135 648 l 136 768 q 137 836 137 795 q 124 966 137 937 l 88 962 q 49 958 60 958 q 17 969 31 958 q 3 996 3 980 q 37 1025 3 1013 q 201 1049 87 1042 q 258 1051 237 1051 q 290 1040 276 1051 q 303 1012 303 1028 q 291 985 303 996 q 261 975 279 975 l 236 977 l 212 978 q 197 977 201 978 q 207 806 207 894 l 205 718 l 204 627 q 210 468 204 573 q 216 308 216 363 q 222 183 216 266 q 228 58 228 95 q 188 -9 228 -9 m 178 1109 q 146 1125 160 1109 q 132 1159 132 1140 q 147 1196 132 1180 q 184 1213 163 1213 q 218 1197 203 1213 q 233 1160 233 1181 q 218 1124 233 1138 q 178 1109 203 1109 z "},"U":{"ha":557,"x_min":64,"x_max":462,"o":"m 325 -25 q 248 -6 283 -25 q 189 50 214 13 q 143 133 162 87 q 113 237 124 178 q 92 361 100 302 q 80 490 84 420 q 73 756 73 612 q 74 871 73 822 q 75 973 75 920 q 64 1002 64 985 q 76 1031 64 1019 q 104 1044 88 1044 q 155 945 155 1044 q 161 705 155 858 q 168 463 168 543 q 181 391 175 446 q 187 301 187 337 q 197 226 187 271 q 224 135 208 181 q 272 55 243 87 q 334 24 302 24 q 366 36 353 24 q 384 73 379 49 q 390 111 389 96 q 391 149 391 126 l 391 420 q 382 551 391 467 q 374 682 374 634 l 374 691 l 372 732 l 371 772 q 366 890 371 817 q 361 1010 361 975 q 377 1037 361 1026 q 413 1048 393 1048 l 447 1015 l 447 992 q 442 951 447 977 q 437 907 437 920 q 450 558 437 785 q 462 195 462 326 q 459 130 462 157 q 449 74 456 103 q 426 22 441 42 q 387 -12 412 2 q 325 -25 359 -25 z "},"Ú":{"ha":557,"x_min":64,"x_max":462,"o":"m 325 -25 q 248 -6 283 -25 q 189 50 214 13 q 143 133 162 87 q 113 237 124 178 q 92 361 100 302 q 80 490 84 420 q 73 756 73 612 q 74 871 73 822 q 75 973 75 920 q 64 1002 64 985 q 76 1031 64 1019 q 104 1044 88 1044 q 155 945 155 1044 q 161 705 155 858 q 168 463 168 543 q 181 391 175 446 q 187 301 187 337 q 197 226 187 271 q 224 135 208 181 q 272 55 243 87 q 334 24 302 24 q 366 36 353 24 q 384 73 379 49 q 390 111 389 96 q 391 149 391 126 l 391 420 q 382 551 391 467 q 374 682 374 634 l 374 691 l 372 732 l 371 772 q 366 890 371 817 q 361 1010 361 975 q 377 1037 361 1026 q 413 1048 393 1048 l 447 1015 l 447 992 q 442 951 447 977 q 437 907 437 920 q 450 558 437 785 q 462 195 462 326 q 459 130 462 157 q 449 74 456 103 q 426 22 441 42 q 387 -12 412 2 q 325 -25 359 -25 m 234 1076 q 218 1082 225 1076 q 212 1095 212 1087 q 219 1109 212 1101 q 319 1196 250 1139 q 401 1267 383 1251 q 412 1270 408 1270 q 443 1253 429 1270 q 458 1218 458 1236 q 448 1196 458 1204 q 245 1079 392 1156 q 234 1076 241 1076 z "},"Ŭ":{"ha":557,"x_min":64,"x_max":462,"o":"m 325 -25 q 248 -6 283 -25 q 189 50 214 13 q 143 133 162 87 q 113 237 124 178 q 92 361 100 302 q 80 490 84 420 q 73 756 73 612 q 74 871 73 822 q 75 973 75 920 q 64 1002 64 985 q 76 1031 64 1019 q 104 1044 88 1044 q 155 945 155 1044 q 161 705 155 858 q 168 463 168 543 q 181 391 175 446 q 187 301 187 337 q 197 226 187 271 q 224 135 208 181 q 272 55 243 87 q 334 24 302 24 q 366 36 353 24 q 384 73 379 49 q 390 111 389 96 q 391 149 391 126 l 391 420 q 382 551 391 467 q 374 682 374 634 l 374 691 l 372 732 l 371 772 q 366 890 371 817 q 361 1010 361 975 q 377 1037 361 1026 q 413 1048 393 1048 l 447 1015 l 447 992 q 442 951 447 977 q 437 907 437 920 q 450 558 437 785 q 462 195 462 326 q 459 130 462 157 q 449 74 456 103 q 426 22 441 42 q 387 -12 412 2 q 325 -25 359 -25 m 284 1099 q 228 1113 252 1099 q 191 1154 204 1128 q 167 1263 167 1200 q 174 1279 167 1272 q 193 1285 181 1285 q 220 1267 208 1285 q 241 1224 233 1249 q 258 1181 248 1198 q 280 1163 269 1163 q 315 1184 302 1163 q 328 1227 328 1204 q 336 1267 328 1255 q 367 1279 344 1279 q 392 1269 381 1279 q 404 1244 404 1258 q 401 1210 404 1221 q 361 1129 390 1160 q 284 1099 332 1099 z "},"Ǔ":{"ha":557,"x_min":64,"x_max":462,"o":"m 325 -25 q 248 -6 283 -25 q 189 50 214 13 q 143 133 162 87 q 113 237 124 178 q 92 361 100 302 q 80 490 84 420 q 73 756 73 612 q 74 871 73 822 q 75 973 75 920 q 64 1002 64 985 q 76 1031 64 1019 q 104 1044 88 1044 q 155 945 155 1044 q 161 705 155 858 q 168 463 168 543 q 181 391 175 446 q 187 301 187 337 q 197 226 187 271 q 224 135 208 181 q 272 55 243 87 q 334 24 302 24 q 366 36 353 24 q 384 73 379 49 q 390 111 389 96 q 391 149 391 126 l 391 420 q 382 551 391 467 q 374 682 374 634 l 374 691 l 372 732 l 371 772 q 366 890 371 817 q 361 1010 361 975 q 377 1037 361 1026 q 413 1048 393 1048 l 447 1015 l 447 992 q 442 951 447 977 q 437 907 437 920 q 450 558 437 785 q 462 195 462 326 q 459 130 462 157 q 449 74 456 103 q 426 22 441 42 q 387 -12 412 2 q 325 -25 359 -25 m 272 1086 q 225 1140 255 1086 q 171 1259 195 1194 q 146 1350 146 1324 q 157 1369 146 1361 q 180 1377 167 1377 q 214 1337 197 1377 q 249 1234 230 1300 l 267 1170 q 273 1217 269 1185 q 280 1274 276 1246 q 289 1325 283 1301 q 328 1381 301 1381 q 349 1374 340 1381 q 357 1352 357 1366 q 352 1341 357 1348 q 347 1331 348 1336 l 347 1306 l 327 1230 q 307 1131 307 1153 q 272 1086 307 1086 z "},"Û":{"ha":557,"x_min":64,"x_max":462,"o":"m 325 -25 q 248 -6 283 -25 q 189 50 214 13 q 143 133 162 87 q 113 237 124 178 q 92 361 100 302 q 80 490 84 420 q 73 756 73 612 q 74 871 73 822 q 75 973 75 920 q 64 1002 64 985 q 76 1031 64 1019 q 104 1044 88 1044 q 155 945 155 1044 q 161 705 155 858 q 168 463 168 543 q 181 391 175 446 q 187 301 187 337 q 197 226 187 271 q 224 135 208 181 q 272 55 243 87 q 334 24 302 24 q 366 36 353 24 q 384 73 379 49 q 390 111 389 96 q 391 149 391 126 l 391 420 q 382 551 391 467 q 374 682 374 634 l 374 691 l 372 732 l 371 772 q 366 890 371 817 q 361 1010 361 975 q 377 1037 361 1026 q 413 1048 393 1048 l 447 1015 l 447 992 q 442 951 447 977 q 437 907 437 920 q 450 558 437 785 q 462 195 462 326 q 459 130 462 157 q 449 74 456 103 q 426 22 441 42 q 387 -12 412 2 q 325 -25 359 -25 m 368 1075 q 350 1084 353 1075 l 296 1272 l 226 1094 q 206 1084 222 1084 q 181 1092 192 1084 q 171 1112 171 1099 q 174 1124 171 1119 q 210 1215 198 1183 l 223 1247 q 256 1320 245 1302 q 288 1354 273 1347 q 307 1357 297 1357 q 327 1343 317 1357 q 362 1250 342 1321 l 380 1183 q 397 1116 387 1156 q 399 1104 399 1109 q 390 1083 399 1090 q 368 1075 380 1075 z "},"Ȕ":{"ha":557,"x_min":51,"x_max":462,"o":"m 325 -25 q 248 -6 283 -25 q 189 50 214 13 q 143 133 162 87 q 113 237 124 178 q 92 361 100 302 q 80 490 84 420 q 73 756 73 612 q 74 871 73 822 q 75 973 75 920 q 64 1002 64 985 q 76 1031 64 1019 q 104 1044 88 1044 q 155 945 155 1044 q 161 705 155 858 q 168 463 168 543 q 181 391 175 446 q 187 301 187 337 q 197 226 187 271 q 224 135 208 181 q 272 55 243 87 q 334 24 302 24 q 366 36 353 24 q 384 73 379 49 q 390 111 389 96 q 391 149 391 126 l 391 420 q 382 551 391 467 q 374 682 374 634 l 374 691 l 372 732 l 371 772 q 366 890 371 817 q 361 1010 361 975 q 377 1037 361 1026 q 413 1048 393 1048 l 447 1015 l 447 992 q 442 951 447 977 q 437 907 437 920 q 450 558 437 785 q 462 195 462 326 q 459 130 462 157 q 449 74 456 103 q 426 22 441 42 q 387 -12 412 2 q 325 -25 359 -25 m 277 1089 q 64 1290 68 1284 l 51 1313 q 66 1338 55 1328 q 92 1348 78 1348 q 153 1294 102 1348 q 247 1178 203 1238 q 291 1105 291 1119 q 277 1089 291 1089 m 444 1078 q 307 1232 372 1146 q 267 1308 267 1284 q 278 1322 267 1316 q 302 1328 290 1328 q 347 1276 311 1328 q 417 1167 384 1225 q 452 1093 451 1109 l 444 1078 z "},"Ü":{"ha":557,"x_min":64,"x_max":462,"o":"m 325 -25 q 248 -6 283 -25 q 189 50 214 13 q 143 133 162 87 q 113 237 124 178 q 92 361 100 302 q 80 490 84 420 q 73 756 73 612 q 74 871 73 822 q 75 973 75 920 q 64 1002 64 985 q 76 1031 64 1019 q 104 1044 88 1044 q 155 945 155 1044 q 161 705 155 858 q 168 463 168 543 q 181 391 175 446 q 187 301 187 337 q 197 226 187 271 q 224 135 208 181 q 272 55 243 87 q 334 24 302 24 q 366 36 353 24 q 384 73 379 49 q 390 111 389 96 q 391 149 391 126 l 391 420 q 382 551 391 467 q 374 682 374 634 l 374 691 l 372 732 l 371 772 q 366 890 371 817 q 361 1010 361 975 q 377 1037 361 1026 q 413 1048 393 1048 l 447 1015 l 447 992 q 442 951 447 977 q 437 907 437 920 q 450 558 437 785 q 462 195 462 326 q 459 130 462 157 q 449 74 456 103 q 426 22 441 42 q 387 -12 412 2 q 325 -25 359 -25 m 170 1088 q 137 1104 151 1088 q 123 1138 123 1119 q 138 1175 123 1159 q 175 1192 154 1192 q 210 1176 195 1192 q 224 1139 224 1160 q 209 1103 224 1117 q 170 1088 194 1088 m 393 1082 q 361 1097 375 1082 q 347 1131 347 1112 q 362 1168 347 1152 q 399 1185 378 1185 q 433 1169 418 1185 q 448 1133 448 1153 q 433 1096 448 1110 q 393 1082 418 1082 z "}}}
